<svg width="19" height="20" viewBox="0 0 19 20" fill="none" xmlns="http://www.w3.org/2000/svg">
<g clip-path="url(#clip0_6_41)">
<rect width="4" height="20" fill="#FF0000"/>
<rect x="4" width="12" height="20" fill="white"/>
<rect x="15" width="4" height="20" fill="#FF0000"/>
<path d="M9.28226 15L9.39113 12.8586C9.39271 12.8233 9.38657 12.7882 9.37316 12.7557C9.35976 12.7233 9.33942 12.6943 9.31365 12.671C9.28788 12.6477 9.25734 12.6306 9.22427 12.6209C9.19121 12.6113 9.15646 12.6094 9.12258 12.6154L7.04435 12.9901L7.325 12.196C7.33639 12.1644 7.33784 12.13 7.32916 12.0975C7.32049 12.065 7.30211 12.0361 7.27661 12.0149L5 10.1241L5.5129 9.87841C5.54754 9.86162 5.57502 9.83244 5.59016 9.79635C5.60531 9.76025 5.60709 9.71973 5.59516 9.68238L5.14516 8.26303L6.45645 8.54839C6.49198 8.55598 6.52897 8.55075 6.56116 8.53356C6.59335 8.51637 6.61875 8.4883 6.63306 8.45409L6.8871 7.84119L7.91048 8.96774C7.93388 8.99306 7.96465 9.00991 7.99818 9.01577C8.03171 9.02163 8.06619 9.01618 8.09644 9.00025C8.1267 8.98432 8.1511 8.95875 8.16599 8.92739C8.18088 8.89603 8.18546 8.86056 8.17903 8.8263L7.68548 6.21588L8.47661 6.68486C8.49519 6.69603 8.5158 6.70316 8.53717 6.70583C8.55854 6.70849 8.58022 6.70662 8.60086 6.70034C8.6215 6.69406 8.64066 6.6835 8.65716 6.66931C8.67366 6.65512 8.68714 6.63761 8.69677 6.61787L9.5 5L10.3032 6.61787C10.3129 6.63761 10.3263 6.65512 10.3428 6.66931C10.3593 6.6835 10.3785 6.69406 10.3991 6.70034C10.4198 6.70662 10.4415 6.70849 10.4628 6.70583C10.4842 6.70316 10.5048 6.69603 10.5234 6.68486L11.3145 6.21588L10.821 8.8263C10.8145 8.86056 10.8191 8.89603 10.834 8.92739C10.8489 8.95875 10.8733 8.98432 10.9036 9.00025C10.9338 9.01618 10.9683 9.02163 11.0018 9.01577C11.0353 9.00991 11.0661 8.99306 11.0895 8.96774L12.1129 7.84119L12.3669 8.45409C12.3812 8.4883 12.4066 8.51637 12.4388 8.53356C12.471 8.55075 12.508 8.55598 12.5435 8.54839L13.8548 8.26303L13.4048 9.68238C13.3929 9.71973 13.3947 9.76025 13.4098 9.79635C13.425 9.83244 13.4525 9.86162 13.4871 9.87841L14 10.1241L11.7234 12.0149C11.6979 12.0361 11.6795 12.065 11.6708 12.0975C11.6622 12.13 11.6636 12.1644 11.675 12.196L11.9556 12.9901L9.87742 12.6154C9.84354 12.6094 9.80879 12.6113 9.77572 12.6209C9.74266 12.6306 9.71212 12.6477 9.68635 12.671C9.66058 12.6943 9.64024 12.7233 9.62684 12.7557C9.61343 12.7882 9.60729 12.8233 9.60887 12.8586L9.71774 15H9.28226Z" fill="#FF0000"/>
</g>
<defs>
<clipPath id="clip0_6_41">
<rect y="0.5" width="19" height="19" rx="3.36364" fill="white"/>
</clipPath>
</defs>
</svg>
