<svg width="402" height="383" viewBox="0 0 402 383" fill="none" xmlns="http://www.w3.org/2000/svg">
<g filter="url(#filter0_d_3_8)">
<path fill-rule="evenodd" clip-rule="evenodd" d="M88.6778 0C131.106 0 165.501 34.1814 165.501 76.3464V178.282C173.647 179.793 181.941 180.56 190.28 180.56H210.941C219.28 180.56 227.574 179.793 235.719 178.282V76.3464C235.719 34.1814 270.114 0 312.543 0C341.641 0 368.243 16.3383 381.256 42.2032L383.578 46.8183C393.686 66.9095 395.35 90.1684 388.202 111.478L382.381 128.833C371.506 161.254 348.117 188.055 317.358 203.339L295.415 214.242C293.476 215.206 291.521 216.135 289.553 217.031V224.901C310.086 217.685 332.85 218.98 352.583 228.784C379.94 242.378 397.221 270.165 397.221 300.561V374.496H343.387V300.561C343.387 290.429 337.627 281.167 328.508 276.636C320.93 272.87 312.01 272.87 304.432 276.636L289.553 284.029V374.496H235.719V232.438C230.29 233.152 224.823 233.632 219.335 233.874V234.06H210.941H190.28H181.886V233.874C176.397 233.632 170.931 233.152 165.501 232.438V374.496H111.668V284.029L96.7883 276.636C89.2105 272.87 80.291 272.87 72.7131 276.636C63.5941 281.167 57.8338 290.429 57.8338 300.561V374.496H4V300.561C4 270.165 21.2809 242.378 48.6379 228.784C68.3701 218.98 91.1347 217.685 111.668 224.901V217.031C109.699 216.135 107.745 215.206 105.805 214.242L83.8625 203.339C53.1039 188.055 29.7146 161.254 18.8398 128.833L13.0188 111.478C5.8711 90.1684 7.53438 66.9095 17.6428 46.8183L19.9648 42.2032C32.9781 16.3383 59.5792 0 88.6778 0ZM107.938 155.487L111.668 157.341V76.3464C111.668 63.7283 101.375 53.4994 88.6778 53.4994C79.97 53.4994 72.0095 58.3887 68.1152 66.1289L65.7932 70.744C62.0699 78.1442 61.4573 86.7111 64.09 94.5602L69.911 111.915C76.2708 130.876 89.9494 146.549 107.938 155.487ZM293.283 155.487L289.553 157.341V76.3464C289.553 63.7283 299.846 53.4994 312.543 53.4994C321.251 53.4994 329.211 58.3887 333.105 66.1289L335.427 70.744C339.151 78.1442 339.763 86.7112 337.131 94.5602L331.31 111.915C324.95 130.876 311.271 146.549 293.283 155.487Z" fill="white"/>
</g>
<defs>
<filter id="filter0_d_3_8" x="0" y="0" width="401.221" height="382.496" filterUnits="userSpaceOnUse" color-interpolation-filters="sRGB">
<feFlood flood-opacity="0" result="BackgroundImageFix"/>
<feColorMatrix in="SourceAlpha" type="matrix" values="0 0 0 0 0 0 0 0 0 0 0 0 0 0 0 0 0 0 127 0" result="hardAlpha"/>
<feOffset dy="4"/>
<feGaussianBlur stdDeviation="2"/>
<feComposite in2="hardAlpha" operator="out"/>
<feColorMatrix type="matrix" values="0 0 0 0 0 0 0 0 0 0 0 0 0 0 0 0 0 0 0.25 0"/>
<feBlend mode="normal" in2="BackgroundImageFix" result="effect1_dropShadow_3_8"/>
<feBlend mode="normal" in="SourceGraphic" in2="effect1_dropShadow_3_8" result="shape"/>
</filter>
</defs>
</svg>
