<svg xmlns="http://www.w3.org/2000/svg" xmlns:xlink="http://www.w3.org/1999/xlink" width="900" zoomAndPan="magnify" viewBox="0 0 675 187.499995" height="250" preserveAspectRatio="xMidYMid meet" version="1.0"><defs><clipPath id="c60e74d0d0"><path d="M 47 20 L 217 20 L 217 159 L 47 159 Z M 47 20 " clip-rule="nonzero"/></clipPath><clipPath id="b3ae9c71bc"><path d="M 133.609375 158.96875 C 132.734375 158.96875 131.863281 158.96875 131.050781 158.90625 C 121.316406 158.472656 112.085938 155.164062 104.410156 149.613281 C 101.351562 151.671875 98.109375 153.417969 94.863281 154.851562 C 82.261719 160.15625 70.15625 159.15625 62.171875 157.410156 C 53.8125 155.539062 47.699219 147.925781 47.761719 139.316406 L 47.945312 91.277344 C 47.945312 86.097656 50.566406 81.292969 54.808594 78.425781 L 97.546875 49.664062 C 100.917969 47.417969 105.347656 47.480469 108.652344 49.914062 L 133.859375 68.503906 C 136.292969 70.25 136.789062 73.683594 134.980469 76.054688 C 133.234375 78.488281 129.804688 78.984375 127.433594 77.175781 L 105.347656 60.894531 C 103.910156 59.832031 101.914062 59.769531 100.417969 60.769531 L 60.800781 87.347656 C 59.488281 88.21875 58.742188 89.65625 58.742188 91.277344 L 58.554688 139.316406 C 58.554688 142.875 61.050781 146.054688 64.480469 146.804688 C 70.90625 148.238281 80.640625 149.050781 90.621094 144.871094 C 92.492188 144.058594 94.367188 143.121094 96.175781 142 C 95.738281 141.5 95.363281 141 94.925781 140.503906 C 88.0625 131.832031 85.132812 122.222656 86.691406 113.488281 C 88.5625 102.757812 97.921875 95.082031 107.964844 96.082031 C 117.386719 97.015625 124.25 105.316406 124.75 116.296875 C 125.125 124.65625 121.691406 133.015625 114.890625 140.566406 C 114.332031 141.1875 113.707031 141.8125 113.082031 142.4375 C 118.574219 145.804688 124.875 147.800781 131.488281 148.113281 C 137.226562 148.363281 141.34375 147.554688 145.710938 145.308594 C 147.398438 144.433594 149.082031 143.433594 150.640625 142.375 C 143.589844 135.261719 138.664062 126.152344 139.097656 116.234375 C 139.597656 105.253906 146.523438 96.953125 155.882812 96.019531 C 165.925781 95.019531 175.285156 102.695312 177.15625 113.425781 C 178.902344 123.40625 174.410156 133.578125 167.363281 141.75 C 169.296875 142.9375 171.292969 143.933594 173.289062 144.808594 C 183.210938 148.988281 193.003906 148.175781 199.429688 146.742188 C 202.863281 145.992188 205.359375 142.8125 205.359375 139.253906 L 205.171875 90.464844 C 205.171875 89.09375 204.546875 87.78125 203.546875 86.910156 L 142.59375 33.878906 C 141.097656 32.566406 138.910156 32.441406 137.351562 33.566406 L 121.878906 44.296875 C 119.445312 45.980469 116.078125 45.359375 114.332031 42.925781 C 112.644531 40.492188 113.269531 37.121094 115.703125 35.375 L 134.667969 22.273438 C 138.289062 19.777344 143.15625 20.027344 146.460938 22.960938 L 210.597656 78.738281 C 213.96875 81.667969 215.902344 85.910156 215.964844 90.402344 L 216.152344 139.191406 C 216.214844 147.800781 210.097656 155.414062 201.738281 157.285156 C 193.753906 159.03125 181.648438 160.03125 169.046875 154.726562 C 165.738281 153.355469 162.433594 151.546875 159.25 149.363281 C 156.507812 151.484375 153.574219 153.355469 150.640625 154.851562 C 144.089844 158.222656 138.414062 158.96875 133.609375 158.96875 Z M 106.28125 106.75 C 102.601562 106.75 98.296875 109.867188 97.359375 115.296875 C 96.363281 120.972656 98.546875 127.527344 103.472656 133.765625 C 103.910156 134.324219 104.347656 134.886719 104.847656 135.386719 C 110.398438 130.019531 114.332031 123.34375 114.019531 116.730469 C 113.769531 111.367188 110.835938 107.1875 106.96875 106.8125 C 106.71875 106.75 106.46875 106.75 106.28125 106.75 Z M 157.566406 106.75 C 157.378906 106.75 157.128906 106.75 156.941406 106.75 C 153.074219 107.125 150.140625 111.304688 149.894531 116.667969 C 149.582031 123.21875 153.324219 129.773438 158.816406 135.074219 C 164.429688 128.710938 167.613281 121.285156 166.550781 115.234375 C 165.550781 109.867188 161.246094 106.75 157.566406 106.75 Z M 157.566406 106.75 " clip-rule="nonzero"/></clipPath><linearGradient x1="74.999984" gradientTransform="matrix(0.623902, 0, 0, 0.623902, 0.905074, 0)" y1="143.878998" x2="345.099973" gradientUnits="userSpaceOnUse" y2="143.878998" id="4050694c36"><stop stop-opacity="1" stop-color="rgb(1.599121%, 47.099304%, 34.098816%)" offset="0"/><stop stop-opacity="1" stop-color="rgb(1.609802%, 47.401428%, 34.281921%)" offset="0.00390625"/><stop stop-opacity="1" stop-color="rgb(1.620483%, 47.705078%, 34.466553%)" offset="0.0078125"/><stop stop-opacity="1" stop-color="rgb(1.629639%, 48.007202%, 34.649658%)" offset="0.0117188"/><stop stop-opacity="1" stop-color="rgb(1.64032%, 48.310852%, 34.83429%)" offset="0.015625"/><stop stop-opacity="1" stop-color="rgb(1.651001%, 48.612976%, 35.017395%)" offset="0.0195312"/><stop stop-opacity="1" stop-color="rgb(1.661682%, 48.916626%, 35.202026%)" offset="0.0234375"/><stop stop-opacity="1" stop-color="rgb(1.670837%, 49.21875%, 35.385132%)" offset="0.0273438"/><stop stop-opacity="1" stop-color="rgb(1.681519%, 49.520874%, 35.569763%)" offset="0.03125"/><stop stop-opacity="1" stop-color="rgb(1.6922%, 49.822998%, 35.752869%)" offset="0.0351562"/><stop stop-opacity="1" stop-color="rgb(1.702881%, 50.126648%, 35.935974%)" offset="0.0390625"/><stop stop-opacity="1" stop-color="rgb(1.712036%, 50.428772%, 36.11908%)" offset="0.0429688"/><stop stop-opacity="1" stop-color="rgb(1.722717%, 50.732422%, 36.303711%)" offset="0.046875"/><stop stop-opacity="1" stop-color="rgb(1.733398%, 51.034546%, 36.486816%)" offset="0.0507812"/><stop stop-opacity="1" stop-color="rgb(1.74408%, 51.338196%, 36.671448%)" offset="0.0546875"/><stop stop-opacity="1" stop-color="rgb(1.754761%, 51.64032%, 36.854553%)" offset="0.0585937"/><stop stop-opacity="1" stop-color="rgb(1.765442%, 51.94397%, 37.039185%)" offset="0.0625"/><stop stop-opacity="1" stop-color="rgb(1.774597%, 52.246094%, 37.22229%)" offset="0.0664062"/><stop stop-opacity="1" stop-color="rgb(1.785278%, 52.549744%, 37.406921%)" offset="0.0703125"/><stop stop-opacity="1" stop-color="rgb(1.795959%, 52.851868%, 37.590027%)" offset="0.0742187"/><stop stop-opacity="1" stop-color="rgb(1.806641%, 53.155518%, 37.774658%)" offset="0.078125"/><stop stop-opacity="1" stop-color="rgb(1.815796%, 53.457642%, 37.957764%)" offset="0.0820312"/><stop stop-opacity="1" stop-color="rgb(1.826477%, 53.759766%, 38.140869%)" offset="0.0859375"/><stop stop-opacity="1" stop-color="rgb(1.837158%, 54.06189%, 38.323975%)" offset="0.0898438"/><stop stop-opacity="1" stop-color="rgb(1.847839%, 54.36554%, 38.508606%)" offset="0.09375"/><stop stop-opacity="1" stop-color="rgb(1.856995%, 54.667664%, 38.691711%)" offset="0.0976562"/><stop stop-opacity="1" stop-color="rgb(1.867676%, 54.971313%, 38.876343%)" offset="0.101562"/><stop stop-opacity="1" stop-color="rgb(1.878357%, 55.273438%, 39.059448%)" offset="0.105469"/><stop stop-opacity="1" stop-color="rgb(1.889038%, 55.577087%, 39.24408%)" offset="0.109375"/><stop stop-opacity="1" stop-color="rgb(1.899719%, 55.879211%, 39.427185%)" offset="0.113281"/><stop stop-opacity="1" stop-color="rgb(1.9104%, 56.182861%, 39.611816%)" offset="0.117187"/><stop stop-opacity="1" stop-color="rgb(1.919556%, 56.484985%, 39.794922%)" offset="0.121094"/><stop stop-opacity="1" stop-color="rgb(1.930237%, 56.788635%, 39.979553%)" offset="0.125"/><stop stop-opacity="1" stop-color="rgb(1.940918%, 57.090759%, 40.162659%)" offset="0.128906"/><stop stop-opacity="1" stop-color="rgb(1.951599%, 57.394409%, 40.345764%)" offset="0.132812"/><stop stop-opacity="1" stop-color="rgb(1.960754%, 57.696533%, 40.52887%)" offset="0.136719"/><stop stop-opacity="1" stop-color="rgb(1.971436%, 57.998657%, 40.713501%)" offset="0.140625"/><stop stop-opacity="1" stop-color="rgb(1.982117%, 58.300781%, 40.896606%)" offset="0.144531"/><stop stop-opacity="1" stop-color="rgb(1.992798%, 58.604431%, 41.081238%)" offset="0.148437"/><stop stop-opacity="1" stop-color="rgb(2.015686%, 58.764648%, 41.183472%)" offset="0.15625"/><stop stop-opacity="1" stop-color="rgb(2.096558%, 59.109497%, 41.412354%)" offset="0.171875"/><stop stop-opacity="1" stop-color="rgb(2.212524%, 59.481812%, 41.667175%)" offset="0.1875"/><stop stop-opacity="1" stop-color="rgb(2.330017%, 59.8526%, 41.921997%)" offset="0.203125"/><stop stop-opacity="1" stop-color="rgb(2.445984%, 60.223389%, 42.176819%)" offset="0.21875"/><stop stop-opacity="1" stop-color="rgb(2.563477%, 60.594177%, 42.431641%)" offset="0.234375"/><stop stop-opacity="1" stop-color="rgb(2.679443%, 60.966492%, 42.684937%)" offset="0.25"/><stop stop-opacity="1" stop-color="rgb(2.79541%, 61.33728%, 42.939758%)" offset="0.265625"/><stop stop-opacity="1" stop-color="rgb(2.912903%, 61.708069%, 43.19458%)" offset="0.28125"/><stop stop-opacity="1" stop-color="rgb(3.02887%, 62.078857%, 43.449402%)" offset="0.296875"/><stop stop-opacity="1" stop-color="rgb(3.144836%, 62.449646%, 43.704224%)" offset="0.3125"/><stop stop-opacity="1" stop-color="rgb(3.262329%, 62.82196%, 43.959045%)" offset="0.328125"/><stop stop-opacity="1" stop-color="rgb(3.378296%, 63.192749%, 44.213867%)" offset="0.34375"/><stop stop-opacity="1" stop-color="rgb(3.494263%, 63.563538%, 44.468689%)" offset="0.359375"/><stop stop-opacity="1" stop-color="rgb(3.611755%, 63.934326%, 44.721985%)" offset="0.375"/><stop stop-opacity="1" stop-color="rgb(3.727722%, 64.306641%, 44.976807%)" offset="0.390625"/><stop stop-opacity="1" stop-color="rgb(3.843689%, 64.677429%, 45.231628%)" offset="0.40625"/><stop stop-opacity="1" stop-color="rgb(3.961182%, 65.048218%, 45.48645%)" offset="0.421875"/><stop stop-opacity="1" stop-color="rgb(4.077148%, 65.419006%, 45.741272%)" offset="0.4375"/><stop stop-opacity="1" stop-color="rgb(4.193115%, 65.791321%, 45.996094%)" offset="0.453125"/><stop stop-opacity="1" stop-color="rgb(4.310608%, 66.162109%, 46.250916%)" offset="0.46875"/><stop stop-opacity="1" stop-color="rgb(4.426575%, 66.532898%, 46.505737%)" offset="0.484375"/><stop stop-opacity="1" stop-color="rgb(4.542542%, 66.903687%, 46.760559%)" offset="0.5"/><stop stop-opacity="1" stop-color="rgb(4.660034%, 67.274475%, 47.013855%)" offset="0.515625"/><stop stop-opacity="1" stop-color="rgb(4.776001%, 67.64679%, 47.268677%)" offset="0.53125"/><stop stop-opacity="1" stop-color="rgb(4.891968%, 68.017578%, 47.523499%)" offset="0.546875"/><stop stop-opacity="1" stop-color="rgb(5.00946%, 68.388367%, 47.77832%)" offset="0.5625"/><stop stop-opacity="1" stop-color="rgb(5.125427%, 68.759155%, 48.033142%)" offset="0.578125"/><stop stop-opacity="1" stop-color="rgb(5.241394%, 69.13147%, 48.287964%)" offset="0.59375"/><stop stop-opacity="1" stop-color="rgb(5.358887%, 69.502258%, 48.542786%)" offset="0.609375"/><stop stop-opacity="1" stop-color="rgb(5.474854%, 69.873047%, 48.797607%)" offset="0.625"/><stop stop-opacity="1" stop-color="rgb(5.59082%, 70.243835%, 49.050903%)" offset="0.640625"/><stop stop-opacity="1" stop-color="rgb(5.708313%, 70.614624%, 49.305725%)" offset="0.65625"/><stop stop-opacity="1" stop-color="rgb(5.82428%, 70.986938%, 49.560547%)" offset="0.671875"/><stop stop-opacity="1" stop-color="rgb(5.940247%, 71.357727%, 49.815369%)" offset="0.6875"/><stop stop-opacity="1" stop-color="rgb(6.057739%, 71.728516%, 50.07019%)" offset="0.703125"/><stop stop-opacity="1" stop-color="rgb(6.173706%, 72.099304%, 50.325012%)" offset="0.71875"/><stop stop-opacity="1" stop-color="rgb(6.265259%, 72.392273%, 50.526428%)" offset="0.75"/><stop stop-opacity="1" stop-color="rgb(6.298828%, 72.499084%, 50.59967%)" offset="1"/></linearGradient><clipPath id="f800394b31"><path d="M 332 109 L 388 109 L 388 156 L 332 156 Z M 332 109 " clip-rule="nonzero"/></clipPath><clipPath id="bc5ff9deb5"><path d="M 385.539062 146.554688 C 383.355469 146.554688 381.359375 145.992188 379.550781 144.996094 C 384.230469 139.316406 386.976562 132.265625 386.976562 125.03125 C 386.976562 115.359375 382.046875 109.683594 374.558594 109.683594 C 366.761719 109.683594 361.582031 115.984375 361.582031 127.089844 C 361.582031 134.140625 363.328125 140.378906 366.511719 145.183594 C 359.085938 149.238281 353.222656 146.367188 351.226562 145.058594 C 351.226562 145.058594 351.226562 144.996094 351.289062 144.996094 C 355.96875 139.316406 358.710938 132.265625 358.710938 125.03125 C 358.710938 115.359375 353.785156 109.683594 346.296875 109.683594 C 338.5 109.683594 333.320312 115.984375 333.320312 127.089844 C 333.320312 134.140625 335.066406 140.378906 338.25 145.183594 C 336.5625 146.304688 334.691406 147.304688 332.757812 148.050781 L 336.253906 155.351562 C 339.121094 154.351562 341.742188 153.042969 344.175781 151.421875 C 360.210938 160.21875 372.4375 151.421875 372.4375 151.421875 C 375.996094 153.917969 380.238281 155.351562 385.042969 155.351562 L 387.535156 155.351562 L 387.535156 146.554688 Z M 342.679688 126.402344 C 342.679688 120.972656 344.050781 118.480469 346.109375 118.480469 C 348.105469 118.480469 349.292969 120.789062 349.292969 125.03125 C 349.292969 129.773438 347.792969 134.324219 345.175781 138.195312 C 343.550781 134.886719 342.679688 130.832031 342.679688 126.402344 Z M 373.4375 138.195312 C 371.816406 134.886719 370.941406 130.832031 370.941406 126.402344 C 370.941406 120.972656 372.3125 118.480469 374.371094 118.480469 C 376.367188 118.480469 377.554688 120.789062 377.554688 125.03125 C 377.554688 129.773438 376.058594 134.324219 373.4375 138.195312 Z M 373.4375 138.195312 " clip-rule="nonzero"/></clipPath><linearGradient x1="531.90008" gradientTransform="matrix(0.623902, 0, 0, 0.623902, 0.905074, 0)" y1="212.411" x2="619.700058" gradientUnits="userSpaceOnUse" y2="212.411" id="a40b07c95c"><stop stop-opacity="1" stop-color="rgb(1.599121%, 47.099304%, 34.098816%)" offset="0"/><stop stop-opacity="1" stop-color="rgb(1.608276%, 47.390747%, 34.275818%)" offset="0.00390625"/><stop stop-opacity="1" stop-color="rgb(1.618958%, 47.683716%, 34.45282%)" offset="0.0078125"/><stop stop-opacity="1" stop-color="rgb(1.629639%, 47.98584%, 34.635925%)" offset="0.0117187"/><stop stop-opacity="1" stop-color="rgb(1.64032%, 48.28949%, 34.820557%)" offset="0.015625"/><stop stop-opacity="1" stop-color="rgb(1.649475%, 48.591614%, 35.003662%)" offset="0.0195312"/><stop stop-opacity="1" stop-color="rgb(1.660156%, 48.895264%, 35.188293%)" offset="0.0234375"/><stop stop-opacity="1" stop-color="rgb(1.670837%, 49.197388%, 35.371399%)" offset="0.0273437"/><stop stop-opacity="1" stop-color="rgb(1.681519%, 49.501038%, 35.55603%)" offset="0.03125"/><stop stop-opacity="1" stop-color="rgb(1.690674%, 49.803162%, 35.739136%)" offset="0.0351562"/><stop stop-opacity="1" stop-color="rgb(1.701355%, 50.106812%, 35.923767%)" offset="0.0390625"/><stop stop-opacity="1" stop-color="rgb(1.712036%, 50.408936%, 36.106873%)" offset="0.0429688"/><stop stop-opacity="1" stop-color="rgb(1.722717%, 50.712585%, 36.291504%)" offset="0.046875"/><stop stop-opacity="1" stop-color="rgb(1.733398%, 51.014709%, 36.474609%)" offset="0.0507812"/><stop stop-opacity="1" stop-color="rgb(1.74408%, 51.318359%, 36.659241%)" offset="0.0546875"/><stop stop-opacity="1" stop-color="rgb(1.753235%, 51.620483%, 36.842346%)" offset="0.0585938"/><stop stop-opacity="1" stop-color="rgb(1.763916%, 51.924133%, 37.026978%)" offset="0.0625"/><stop stop-opacity="1" stop-color="rgb(1.774597%, 52.226257%, 37.210083%)" offset="0.0664062"/><stop stop-opacity="1" stop-color="rgb(1.785278%, 52.529907%, 37.394714%)" offset="0.0703125"/><stop stop-opacity="1" stop-color="rgb(1.794434%, 52.832031%, 37.57782%)" offset="0.0742187"/><stop stop-opacity="1" stop-color="rgb(1.805115%, 53.135681%, 37.762451%)" offset="0.078125"/><stop stop-opacity="1" stop-color="rgb(1.815796%, 53.437805%, 37.945557%)" offset="0.0820312"/><stop stop-opacity="1" stop-color="rgb(1.826477%, 53.741455%, 38.130188%)" offset="0.0859375"/><stop stop-opacity="1" stop-color="rgb(1.835632%, 54.043579%, 38.313293%)" offset="0.0898437"/><stop stop-opacity="1" stop-color="rgb(1.846313%, 54.347229%, 38.497925%)" offset="0.09375"/><stop stop-opacity="1" stop-color="rgb(1.856995%, 54.649353%, 38.68103%)" offset="0.0976562"/><stop stop-opacity="1" stop-color="rgb(1.867676%, 54.953003%, 38.865662%)" offset="0.101562"/><stop stop-opacity="1" stop-color="rgb(1.878357%, 55.255127%, 39.048767%)" offset="0.105469"/><stop stop-opacity="1" stop-color="rgb(1.889038%, 55.558777%, 39.233398%)" offset="0.109375"/><stop stop-opacity="1" stop-color="rgb(1.898193%, 55.860901%, 39.416504%)" offset="0.113281"/><stop stop-opacity="1" stop-color="rgb(1.908875%, 56.164551%, 39.601135%)" offset="0.117188"/><stop stop-opacity="1" stop-color="rgb(1.919556%, 56.466675%, 39.784241%)" offset="0.121094"/><stop stop-opacity="1" stop-color="rgb(1.930237%, 56.770325%, 39.968872%)" offset="0.125"/><stop stop-opacity="1" stop-color="rgb(1.939392%, 57.072449%, 40.151978%)" offset="0.128906"/><stop stop-opacity="1" stop-color="rgb(1.950073%, 57.376099%, 40.336609%)" offset="0.132812"/><stop stop-opacity="1" stop-color="rgb(1.960754%, 57.679749%, 40.519714%)" offset="0.136719"/><stop stop-opacity="1" stop-color="rgb(1.971436%, 57.983398%, 40.704346%)" offset="0.140625"/><stop stop-opacity="1" stop-color="rgb(1.980591%, 58.285522%, 40.887451%)" offset="0.144531"/><stop stop-opacity="1" stop-color="rgb(1.991272%, 58.589172%, 41.072083%)" offset="0.148437"/><stop stop-opacity="1" stop-color="rgb(2.01416%, 58.753967%, 41.177368%)" offset="0.15625"/><stop stop-opacity="1" stop-color="rgb(2.095032%, 59.104919%, 41.409302%)" offset="0.171875"/><stop stop-opacity="1" stop-color="rgb(2.212524%, 59.477234%, 41.664124%)" offset="0.1875"/><stop stop-opacity="1" stop-color="rgb(2.328491%, 59.848022%, 41.918945%)" offset="0.203125"/><stop stop-opacity="1" stop-color="rgb(2.444458%, 60.218811%, 42.173767%)" offset="0.21875"/><stop stop-opacity="1" stop-color="rgb(2.561951%, 60.591125%, 42.428589%)" offset="0.234375"/><stop stop-opacity="1" stop-color="rgb(2.677917%, 60.961914%, 42.683411%)" offset="0.25"/><stop stop-opacity="1" stop-color="rgb(2.793884%, 61.332703%, 42.938232%)" offset="0.265625"/><stop stop-opacity="1" stop-color="rgb(2.911377%, 61.705017%, 43.193054%)" offset="0.28125"/><stop stop-opacity="1" stop-color="rgb(3.027344%, 62.075806%, 43.44635%)" offset="0.296875"/><stop stop-opacity="1" stop-color="rgb(3.144836%, 62.446594%, 43.701172%)" offset="0.3125"/><stop stop-opacity="1" stop-color="rgb(3.260803%, 62.818909%, 43.955994%)" offset="0.328125"/><stop stop-opacity="1" stop-color="rgb(3.37677%, 63.189697%, 44.210815%)" offset="0.34375"/><stop stop-opacity="1" stop-color="rgb(3.494263%, 63.560486%, 44.465637%)" offset="0.359375"/><stop stop-opacity="1" stop-color="rgb(3.610229%, 63.9328%, 44.720459%)" offset="0.375"/><stop stop-opacity="1" stop-color="rgb(3.726196%, 64.303589%, 44.975281%)" offset="0.390625"/><stop stop-opacity="1" stop-color="rgb(3.843689%, 64.674377%, 45.230103%)" offset="0.40625"/><stop stop-opacity="1" stop-color="rgb(3.959656%, 65.046692%, 45.484924%)" offset="0.421875"/><stop stop-opacity="1" stop-color="rgb(4.077148%, 65.41748%, 45.739746%)" offset="0.4375"/><stop stop-opacity="1" stop-color="rgb(4.193115%, 65.789795%, 45.994568%)" offset="0.453125"/><stop stop-opacity="1" stop-color="rgb(4.309082%, 66.160583%, 46.24939%)" offset="0.46875"/><stop stop-opacity="1" stop-color="rgb(4.426575%, 66.531372%, 46.504211%)" offset="0.484375"/><stop stop-opacity="1" stop-color="rgb(4.542542%, 66.903687%, 46.759033%)" offset="0.5"/><stop stop-opacity="1" stop-color="rgb(4.658508%, 67.274475%, 47.013855%)" offset="0.515625"/><stop stop-opacity="1" stop-color="rgb(4.776001%, 67.645264%, 47.268677%)" offset="0.53125"/><stop stop-opacity="1" stop-color="rgb(4.891968%, 68.017578%, 47.523499%)" offset="0.546875"/><stop stop-opacity="1" stop-color="rgb(5.00946%, 68.388367%, 47.77832%)" offset="0.5625"/><stop stop-opacity="1" stop-color="rgb(5.125427%, 68.759155%, 48.033142%)" offset="0.578125"/><stop stop-opacity="1" stop-color="rgb(5.241394%, 69.13147%, 48.287964%)" offset="0.59375"/><stop stop-opacity="1" stop-color="rgb(5.358887%, 69.502258%, 48.542786%)" offset="0.609375"/><stop stop-opacity="1" stop-color="rgb(5.474854%, 69.873047%, 48.797607%)" offset="0.625"/><stop stop-opacity="1" stop-color="rgb(5.59082%, 70.245361%, 49.052429%)" offset="0.640625"/><stop stop-opacity="1" stop-color="rgb(5.708313%, 70.61615%, 49.307251%)" offset="0.65625"/><stop stop-opacity="1" stop-color="rgb(5.82428%, 70.986938%, 49.562073%)" offset="0.671875"/><stop stop-opacity="1" stop-color="rgb(5.941772%, 71.359253%, 49.816895%)" offset="0.6875"/><stop stop-opacity="1" stop-color="rgb(6.057739%, 71.730042%, 50.071716%)" offset="0.703125"/><stop stop-opacity="1" stop-color="rgb(6.173706%, 72.10083%, 50.326538%)" offset="0.71875"/><stop stop-opacity="1" stop-color="rgb(6.265259%, 72.392273%, 50.526428%)" offset="0.75"/><stop stop-opacity="1" stop-color="rgb(6.298828%, 72.499084%, 50.59967%)" offset="1"/></linearGradient></defs><g clip-path="url(#c60e74d0d0)"><g clip-path="url(#b3ae9c71bc)"><path fill="url(#4050694c36)" d="M 47.699219 19.777344 L 47.699219 160.15625 L 216.214844 160.15625 L 216.214844 19.777344 Z M 47.699219 19.777344 " fill-rule="nonzero"/></g></g><path fill="#474948" d="M 259.136719 42.113281 L 271.492188 42.113281 L 282.972656 69.816406 L 294.511719 42.113281 L 306.742188 42.113281 L 306.742188 84.851562 L 297.257812 84.851562 L 297.257812 58.648438 L 286.214844 84.851562 L 279.664062 84.851562 L 268.683594 58.648438 L 268.683594 84.851562 L 259.074219 84.851562 L 259.074219 42.113281 Z M 259.136719 42.113281 " fill-opacity="1" fill-rule="nonzero"/><path fill="#474948" d="M 311.984375 69.066406 C 311.984375 59.644531 319.28125 52.53125 329.015625 52.53125 C 338.746094 52.53125 346.046875 59.644531 346.046875 69.066406 C 346.046875 78.488281 338.746094 85.597656 329.015625 85.597656 C 319.28125 85.597656 311.984375 78.488281 311.984375 69.066406 Z M 336.75 69.066406 C 336.75 64.636719 333.445312 61.265625 329.015625 61.265625 C 324.585938 61.265625 321.277344 64.636719 321.277344 69.066406 C 321.277344 73.496094 324.585938 76.863281 329.015625 76.863281 C 333.445312 76.863281 336.75 73.496094 336.75 69.066406 Z M 336.75 69.066406 " fill-opacity="1" fill-rule="nonzero"/><path fill="#474948" d="M 350.726562 53.28125 L 359.773438 53.28125 L 359.773438 56.402344 C 362.269531 53.84375 365.449219 52.59375 369.382812 52.59375 C 376.617188 52.59375 381.421875 57.335938 381.421875 64.574219 L 381.421875 73.621094 C 381.421875 75.242188 382.359375 76.179688 383.980469 76.179688 L 384.605469 76.179688 L 384.605469 84.914062 L 382.046875 84.914062 C 375.683594 84.914062 372.375 81.730469 372.375 75.617188 L 372.375 67.632812 C 372.375 63.824219 369.941406 61.328125 366.324219 61.328125 C 362.457031 61.328125 359.773438 63.886719 359.773438 67.753906 L 359.773438 84.851562 L 350.726562 84.851562 Z M 350.726562 53.28125 " fill-opacity="1" fill-rule="nonzero"/><path fill="#474948" d="M 435.140625 53.28125 L 444.1875 53.28125 L 444.1875 56.402344 C 446.683594 53.84375 449.863281 52.59375 453.796875 52.59375 C 461.03125 52.59375 465.835938 57.335938 465.835938 64.574219 L 465.835938 73.621094 C 465.835938 75.242188 466.773438 76.179688 468.394531 76.179688 L 469.019531 76.179688 L 469.019531 84.914062 L 466.460938 84.914062 C 460.097656 84.914062 456.789062 81.730469 456.789062 75.617188 L 456.789062 67.632812 C 456.789062 63.824219 454.355469 61.328125 450.738281 61.328125 C 446.871094 61.328125 444.1875 63.886719 444.1875 67.753906 L 444.1875 84.851562 L 435.140625 84.851562 Z M 435.140625 53.28125 " fill-opacity="1" fill-rule="nonzero"/><path fill="#474948" d="M 470.578125 69.066406 C 470.578125 59.644531 477.878906 52.53125 487.609375 52.53125 C 497.28125 52.53125 504.644531 59.582031 504.644531 69.191406 C 504.644531 70 504.582031 71.25 504.394531 72 L 480.25 72 C 481.246094 75.617188 484.054688 77.863281 487.859375 77.863281 C 490.855469 77.863281 493.289062 76.550781 494.472656 74.867188 L 504.144531 74.867188 C 501.773438 81.230469 495.472656 85.597656 487.671875 85.597656 C 477.878906 85.597656 470.578125 78.488281 470.578125 69.066406 Z M 480.25 65.945312 L 494.910156 65.945312 C 493.914062 62.453125 491.167969 60.269531 487.546875 60.269531 C 483.992188 60.269531 481.246094 62.515625 480.25 65.945312 Z M 480.25 65.945312 " fill-opacity="1" fill-rule="nonzero"/><path fill="#474948" d="M 509.757812 52.96875 L 519.054688 53.03125 L 519.054688 58.210938 C 520.242188 56.339844 521.738281 54.839844 523.421875 53.84375 C 525.167969 52.84375 527.167969 52.34375 529.472656 52.34375 C 529.785156 52.34375 530.097656 52.34375 530.410156 52.34375 C 530.785156 52.34375 531.160156 52.40625 531.597656 52.46875 L 531.597656 63.203125 C 530.097656 62.453125 528.476562 62.078125 526.792969 62.078125 C 524.171875 62.078125 522.238281 62.828125 520.925781 64.386719 C 519.617188 65.945312 518.992188 68.191406 518.992188 71.1875 L 518.992188 84.851562 L 509.695312 84.726562 L 509.695312 52.96875 Z M 509.757812 52.96875 " fill-opacity="1" fill-rule="nonzero"/><path fill="#474948" d="M 534.089844 68.253906 C 534.089844 59.269531 540.578125 52.53125 549.316406 52.53125 C 553.121094 52.53125 556.425781 53.90625 558.859375 56.214844 L 558.859375 53.21875 L 567.90625 53.21875 L 567.90625 81.355469 C 567.90625 90.964844 561.417969 97.265625 551.625 97.265625 C 543.386719 97.265625 537.023438 92.898438 535.777344 85.910156 L 545.132812 85.910156 C 546.070312 88.03125 548.691406 89.46875 551.746094 89.46875 C 556.054688 89.46875 558.859375 86.597656 558.859375 81.855469 L 558.859375 80.234375 C 556.425781 82.605469 553.183594 83.914062 549.316406 83.914062 C 540.578125 83.976562 534.089844 77.175781 534.089844 68.253906 Z M 558.859375 68.253906 C 558.859375 64.074219 555.492188 60.894531 551.125 60.894531 C 546.695312 60.894531 543.386719 64.074219 543.386719 68.253906 C 543.386719 72.371094 546.695312 75.617188 551.125 75.617188 C 555.492188 75.617188 558.859375 72.371094 558.859375 68.253906 Z M 558.859375 68.253906 " fill-opacity="1" fill-rule="nonzero"/><path fill="#474948" d="M 573.398438 43.796875 C 573.398438 40.617188 575.832031 38.308594 578.949219 38.308594 C 582.195312 38.308594 584.566406 40.679688 584.566406 43.796875 C 584.566406 47.042969 582.132812 49.351562 578.949219 49.351562 C 575.769531 49.351562 573.398438 47.042969 573.398438 43.796875 Z M 574.457031 53.28125 L 583.503906 53.28125 L 583.503906 84.851562 L 574.457031 84.851562 Z M 574.457031 53.28125 " fill-opacity="1" fill-rule="nonzero"/><path fill="#474948" d="M 588.308594 69.066406 C 588.308594 59.644531 595.609375 52.53125 605.339844 52.53125 C 615.011719 52.53125 622.375 59.582031 622.375 69.191406 C 622.375 70 622.3125 71.25 622.125 72 L 597.980469 72 C 598.976562 75.617188 601.785156 77.863281 605.589844 77.863281 C 608.585938 77.863281 611.019531 76.550781 612.203125 74.867188 L 621.875 74.867188 C 619.503906 81.230469 613.203125 85.597656 605.402344 85.597656 C 595.609375 85.597656 588.308594 78.488281 588.308594 69.066406 Z M 597.980469 65.945312 L 612.640625 65.945312 C 611.640625 62.453125 608.898438 60.269531 605.277344 60.269531 C 601.722656 60.269531 598.976562 62.515625 597.980469 65.945312 Z M 597.980469 65.945312 " fill-opacity="1" fill-rule="nonzero"/><path fill="#474948" d="M 396.707031 69.003906 C 396.707031 59.644531 404.007812 52.53125 413.679688 52.53125 C 423.285156 52.53125 430.648438 59.582031 430.648438 69.128906 C 430.648438 69.9375 430.585938 71.1875 430.398438 71.9375 L 406.316406 71.9375 C 407.316406 75.492188 410.121094 77.800781 413.929688 77.800781 C 416.921875 77.800781 419.355469 76.492188 420.542969 74.804688 L 430.148438 74.804688 C 427.777344 81.167969 421.476562 85.472656 413.742188 85.472656 C 404.007812 85.472656 396.707031 78.425781 396.707031 69.003906 Z M 406.441406 65.945312 L 421.101562 65.945312 C 420.105469 62.515625 417.359375 60.269531 413.742188 60.269531 C 410.121094 60.269531 407.4375 62.453125 406.441406 65.945312 Z M 414.738281 40.929688 L 426.03125 40.929688 L 418.046875 50.097656 L 408.5625 50.097656 Z M 414.738281 40.929688 " fill-opacity="1" fill-rule="nonzero"/><path fill="#474948" d="M 435.265625 53.28125 L 444.3125 53.28125 L 444.3125 56.339844 C 446.808594 53.78125 449.988281 52.53125 453.859375 52.53125 C 461.09375 52.53125 465.898438 57.273438 465.898438 64.511719 L 465.898438 73.558594 C 465.898438 75.179688 466.835938 76.117188 468.457031 76.117188 L 469.082031 76.117188 L 469.082031 84.851562 L 466.523438 84.851562 C 460.160156 84.851562 456.914062 81.730469 456.914062 75.554688 L 456.914062 67.570312 C 456.914062 63.761719 454.480469 61.265625 450.863281 61.265625 C 446.996094 61.265625 444.3125 63.824219 444.3125 67.691406 L 444.3125 84.789062 L 435.265625 84.789062 Z M 435.265625 53.28125 " fill-opacity="1" fill-rule="nonzero"/><path fill="#474948" d="M 390.34375 139.691406 C 390.34375 130.269531 397.644531 123.15625 407.378906 123.15625 C 417.046875 123.15625 424.410156 130.207031 424.410156 139.816406 C 424.410156 140.628906 424.347656 141.875 424.160156 142.625 L 400.015625 142.625 C 401.011719 146.242188 403.820312 148.488281 407.625 148.488281 C 410.621094 148.488281 413.054688 147.179688 414.238281 145.492188 L 423.910156 145.492188 C 421.539062 151.859375 415.238281 156.226562 407.4375 156.226562 C 397.644531 156.226562 390.34375 149.113281 390.34375 139.691406 Z M 400.078125 136.570312 L 414.738281 136.570312 C 413.742188 133.078125 410.996094 130.894531 407.378906 130.894531 C 403.820312 130.894531 401.074219 133.140625 400.078125 136.570312 Z M 400.078125 136.570312 " fill-opacity="1" fill-rule="nonzero"/><path fill="#474948" d="M 427.09375 139.691406 C 427.09375 130.269531 434.390625 123.15625 444.125 123.15625 C 452.609375 123.15625 459.347656 128.648438 460.410156 136.324219 L 450.800781 136.324219 C 449.925781 133.640625 447.246094 131.894531 444.125 131.894531 C 439.695312 131.894531 436.386719 135.261719 436.386719 139.691406 C 436.386719 144.121094 439.695312 147.492188 444.125 147.492188 C 447.304688 147.492188 449.925781 145.679688 450.800781 143.0625 L 460.410156 143.0625 C 459.347656 150.734375 452.609375 156.226562 444.125 156.226562 C 434.453125 156.226562 427.09375 149.113281 427.09375 139.691406 Z M 427.09375 139.691406 " fill-opacity="1" fill-rule="nonzero"/><path fill="#474948" d="M 467.832031 145.183594 L 467.832031 132.140625 L 463.152344 132.140625 L 463.152344 123.90625 L 465.773438 123.90625 C 467.519531 123.90625 468.394531 123.035156 468.394531 121.285156 L 468.394531 115.609375 L 476.941406 115.609375 L 476.941406 123.90625 L 483.804688 123.90625 L 483.804688 132.140625 L 476.941406 132.140625 L 476.941406 143.683594 C 476.941406 145.929688 478.316406 147.242188 480.625 147.242188 L 483.804688 147.242188 L 483.804688 155.476562 L 479.3125 155.476562 C 471.703125 155.476562 467.832031 151.921875 467.832031 145.183594 Z M 467.832031 145.183594 " fill-opacity="1" fill-rule="nonzero"/><path fill="#474948" d="M 487.921875 114.421875 C 487.921875 111.242188 490.355469 108.933594 493.476562 108.933594 C 496.71875 108.933594 499.089844 111.304688 499.089844 114.421875 C 499.089844 117.667969 496.65625 119.976562 493.476562 119.976562 C 490.355469 120.039062 487.921875 117.667969 487.921875 114.421875 Z M 488.984375 123.90625 L 498.03125 123.90625 L 498.03125 155.476562 L 488.984375 155.476562 Z M 488.984375 123.90625 " fill-opacity="1" fill-rule="nonzero"/><path fill="#474948" d="M 501.210938 123.90625 L 511.570312 123.90625 L 518.867188 144.058594 L 521.988281 135.761719 C 523.671875 130.957031 524.484375 127.089844 523.796875 123.90625 L 533.09375 123.90625 C 533.78125 127.527344 533.03125 132.078125 530.722656 137.632812 L 523.421875 155.476562 L 514.125 155.476562 Z M 501.210938 123.90625 " fill-opacity="1" fill-rule="nonzero"/><path fill="#474948" d="M 535.464844 139.691406 C 535.464844 130.269531 542.761719 123.15625 552.496094 123.15625 C 562.167969 123.15625 569.527344 130.207031 569.527344 139.816406 C 569.527344 140.628906 569.464844 141.875 569.28125 142.625 L 545.132812 142.625 C 546.132812 146.242188 548.941406 148.488281 552.746094 148.488281 C 555.742188 148.488281 558.175781 147.179688 559.359375 145.492188 L 569.03125 145.492188 C 566.660156 151.859375 560.359375 156.226562 552.558594 156.226562 C 542.761719 156.226562 535.464844 149.113281 535.464844 139.691406 Z M 545.195312 136.570312 L 559.859375 136.570312 C 558.859375 133.078125 556.113281 130.894531 552.496094 130.894531 C 548.878906 130.894531 546.132812 133.140625 545.195312 136.570312 Z M 545.195312 136.570312 " fill-opacity="1" fill-rule="nonzero"/><g clip-path="url(#f800394b31)"><g clip-path="url(#bc5ff9deb5)"><path fill="url(#a40b07c95c)" d="M 332.757812 109.683594 L 332.757812 160.21875 L 387.535156 160.21875 L 387.535156 109.683594 Z M 332.757812 109.683594 " fill-rule="nonzero"/></g></g><path fill="#474948" d="M 259.136719 139.566406 C 259.136719 130.082031 266.5 122.972656 276.234375 122.972656 C 284.78125 122.972656 291.519531 128.523438 292.578125 136.261719 L 282.910156 136.261719 C 282.035156 133.578125 279.351562 131.769531 276.171875 131.769531 C 271.679688 131.769531 268.371094 135.136719 268.371094 139.628906 C 268.371094 144.121094 271.679688 147.492188 276.171875 147.492188 C 279.351562 147.492188 282.035156 145.679688 282.910156 143 L 292.578125 143 C 291.519531 150.734375 284.71875 156.289062 276.234375 156.289062 C 266.5 156.164062 259.136719 148.988281 259.136719 139.566406 Z M 259.136719 139.566406 " fill-opacity="1" fill-rule="nonzero"/><path fill="#474948" d="M 295.449219 139.566406 C 295.449219 130.082031 302.8125 122.972656 312.542969 122.972656 C 322.339844 122.972656 329.640625 130.144531 329.640625 139.566406 C 329.640625 149.050781 322.277344 156.164062 312.542969 156.164062 C 302.8125 156.164062 295.449219 148.988281 295.449219 139.566406 Z M 320.34375 139.566406 C 320.34375 135.074219 317.035156 131.707031 312.542969 131.707031 C 308.050781 131.707031 304.746094 135.074219 304.746094 139.566406 C 304.746094 144.058594 308.050781 147.429688 312.542969 147.429688 C 317.035156 147.367188 320.34375 144.058594 320.34375 139.566406 Z M 320.34375 139.566406 " fill-opacity="1" fill-rule="nonzero"/></svg>