<svg width="18" height="19" viewBox="0 0 18 19" fill="none" xmlns="http://www.w3.org/2000/svg">
<g clip-path="url(#clip0_148_410)">
<path d="M2.95482 12.9781C2.17604 12.9785 1.54322 12.3449 1.54308 11.5662L1.5428 7.24354C1.54252 6.4656 2.17519 5.83209 2.95299 5.83195C3.33113 5.83167 3.68522 5.97834 3.95213 6.24496C4.21904 6.51159 4.36585 6.86625 4.36613 7.24326L4.36571 11.5661C4.36668 11.7514 4.33074 11.9351 4.25997 12.1063C4.18921 12.2776 4.08503 12.4331 3.95354 12.5637C3.82282 12.6955 3.66722 12.8 3.49577 12.8711C3.32432 12.9423 3.14044 12.9786 2.95482 12.9781ZM2.95369 6.21121C2.38374 6.21093 1.92179 6.67401 1.92164 7.24354L1.92235 11.5658C1.92231 11.8397 2.03103 12.1024 2.22461 12.2961C2.41819 12.4899 2.68078 12.5989 2.95468 12.5991C3.09031 12.5991 3.22461 12.5724 3.34991 12.5205C3.4752 12.4685 3.58903 12.3924 3.68488 12.2965C3.78074 12.2005 3.85673 12.0866 3.90852 11.9612C3.96032 11.8359 3.98689 11.7016 3.98672 11.5659V7.24298C3.98642 6.96921 3.87745 6.70676 3.68375 6.51329C3.49005 6.31983 3.22746 6.21118 2.95369 6.21121Z" fill="white"/>
<path d="M14.0262 6.42525L13.6468 6.4251L4.34882 6.42637L3.96928 6.42651L3.96899 6.04696C3.96815 4.48884 4.81696 3.0397 6.20732 2.18357L5.66676 1.19681C5.60067 1.08121 5.58407 0.934823 5.6226 0.800948C5.64213 0.734178 5.67474 0.671958 5.71854 0.617904C5.76233 0.563851 5.81643 0.519044 5.8777 0.486089C5.95344 0.444384 6.03859 0.422745 6.12506 0.423229C6.31659 0.423229 6.49195 0.527151 6.58448 0.695057L7.15021 1.7257C7.74028 1.50975 8.36392 1.40001 8.99226 1.40156C9.63998 1.40128 10.2611 1.51082 10.8491 1.72654L11.414 0.694214C11.459 0.611853 11.5253 0.543149 11.6061 0.495335C11.6868 0.447522 11.779 0.422369 11.8728 0.422526C11.9592 0.422253 12.0443 0.443417 12.1205 0.48412C12.1818 0.517063 12.236 0.561974 12.2797 0.616199C12.3234 0.670423 12.3558 0.732861 12.375 0.799823C12.3943 0.865855 12.4003 0.935069 12.3926 1.00344C12.385 1.07181 12.3638 1.13797 12.3303 1.19807L11.79 2.18428C13.1781 3.04223 14.0259 4.49024 14.0258 6.0457L14.0262 6.42525ZM11.2776 2.32968L11.998 1.01414C12.0083 0.997609 12.0151 0.97916 12.018 0.959914C12.0209 0.940668 12.0199 0.921028 12.015 0.902194C12.01 0.883359 12.0013 0.865725 11.9894 0.850366C11.9774 0.835008 11.9625 0.822247 11.9454 0.812864C11.9283 0.80348 11.9096 0.797669 11.8902 0.795787C11.8708 0.793904 11.8513 0.795989 11.8327 0.801915C11.8142 0.80784 11.797 0.817481 11.7823 0.83025C11.7676 0.843019 11.7557 0.858647 11.7472 0.876182L11.0194 2.20509C10.4071 1.93312 9.72154 1.78026 8.9969 1.78096C8.27381 1.78026 7.58953 1.93256 6.97907 2.20354L6.25049 0.877589C6.2416 0.861017 6.22951 0.846379 6.21491 0.834525C6.20031 0.82267 6.18349 0.813837 6.16545 0.808537C6.14741 0.803238 6.12849 0.801578 6.1098 0.803655C6.09111 0.805732 6.07301 0.811504 6.05657 0.820635C5.98668 0.858042 5.96095 0.945932 5.9999 1.01456L6.7206 2.32912C5.30451 3.05953 4.3477 4.45031 4.34854 6.0471L13.6464 6.04598C13.6468 4.44975 12.6917 3.06178 11.2776 2.32968ZM6.88218 4.3627C6.77878 4.36264 6.67963 4.32151 6.60655 4.24835C6.53348 4.1752 6.49245 4.07601 6.49251 3.9726C6.49257 3.8692 6.5337 3.77006 6.60685 3.69698C6.68001 3.6239 6.7792 3.58288 6.8826 3.58293C6.98602 3.58312 7.08515 3.62427 7.15829 3.69739C7.23143 3.7705 7.27261 3.86961 7.27284 3.97303C7.27269 4.0765 7.23145 4.17568 7.15819 4.24875C7.08494 4.32182 6.98565 4.36281 6.88218 4.3627ZM11.116 4.36185C11.0648 4.36195 11.0141 4.35193 10.9667 4.33238C10.9194 4.31284 10.8764 4.28414 10.8402 4.24794C10.804 4.21174 10.7753 4.16874 10.7557 4.12142C10.7361 4.0741 10.7261 4.02339 10.7262 3.97218C10.7265 3.86881 10.7677 3.76977 10.8407 3.6966C10.9138 3.62344 11.0127 3.58208 11.1161 3.58153C11.2193 3.58238 11.3181 3.62388 11.3909 3.69703C11.4638 3.77018 11.5048 3.86909 11.5052 3.97232C11.5052 4.02346 11.4952 4.0741 11.4756 4.12135C11.4561 4.1686 11.4274 4.21153 11.3913 4.24771C11.3551 4.28388 11.3122 4.31257 11.265 4.33216C11.2177 4.35175 11.1671 4.36184 11.116 4.36185ZM7.27185 17.9047C6.49378 17.9046 5.86054 17.2718 5.8604 16.4932L5.86012 14.5853L5.48915 14.5857C5.29457 14.5864 5.1018 14.5484 4.92201 14.474C4.74221 14.3996 4.57898 14.2903 4.44178 14.1523C4.30361 14.0151 4.19413 13.8518 4.1197 13.6719C4.04527 13.492 4.00737 13.2991 4.00823 13.1044L4.00682 6.40682V6.02699H4.38637L13.6146 6.02559L13.9943 6.02531V6.40485L13.9953 13.1032C13.9954 13.9201 13.3308 14.5849 12.5142 14.5847L12.141 14.585L12.1414 16.4922C12.1414 17.2704 11.5083 17.9039 10.7305 17.9039C10.5451 17.9048 10.3613 17.8687 10.1899 17.7978C10.0185 17.7269 9.863 17.6225 9.73237 17.4909C9.60061 17.3603 9.49612 17.2049 9.42497 17.0336C9.35383 16.8622 9.31745 16.6785 9.31795 16.493V14.585H8.68359V16.4926C8.68331 17.2709 8.05035 17.9049 7.27185 17.9047Z" fill="white"/>
<path d="M4.38821 13.1042C4.38789 13.249 4.41616 13.3924 4.47138 13.5262C4.5266 13.66 4.60769 13.7815 4.71 13.8839C4.81231 13.9863 4.93383 14.0675 5.06758 14.1228C5.20134 14.1781 5.3447 14.2065 5.48944 14.2063H6.2394L6.24024 16.4934C6.2401 17.063 6.70275 17.5258 7.27172 17.5259C7.40733 17.5258 7.5416 17.499 7.66685 17.4471C7.79211 17.3951 7.9059 17.319 8.00172 17.223C8.09755 17.127 8.17353 17.0132 8.22533 16.8878C8.27714 16.7625 8.30374 16.6282 8.30363 16.4926L8.30377 14.2062L9.69722 14.2057L9.69708 16.4927C9.69765 17.0624 10.1609 17.5258 10.7297 17.5246C11.3001 17.5251 11.7624 17.0617 11.7623 16.4919L11.7616 14.2055L12.5144 14.2053C13.1217 14.2055 13.6157 13.712 13.6157 13.1032L13.6145 6.40457L4.38652 6.40626L4.38821 13.1042ZM15.0463 12.9763C14.2678 12.9764 13.6346 12.3437 13.6347 11.5649L13.6336 7.24242C13.6339 6.46378 14.2661 5.8304 15.0442 5.8304C15.8233 5.83026 16.4569 6.4635 16.4568 7.242L16.4572 11.5642C16.4573 12.3425 15.8247 12.9764 15.0463 12.9763ZM15.0449 6.20995C14.475 6.20939 14.0131 6.67218 14.0131 7.24242L14.0136 11.5648C14.0135 11.7004 14.0402 11.8347 14.092 11.96C14.1439 12.0852 14.2199 12.1991 14.3158 12.2949C14.4117 12.3908 14.5256 12.4668 14.6509 12.5187C14.7762 12.5705 14.9104 12.5971 15.046 12.597C15.1816 12.597 15.3158 12.5703 15.4411 12.5184C15.5663 12.4665 15.6801 12.3904 15.776 12.2945C15.8718 12.1986 15.9478 12.0848 15.9996 11.9595C16.0514 11.8342 16.078 11.7 16.0779 11.5644L16.0768 7.24214C16.0769 7.10659 16.0503 6.97235 15.9985 6.84709C15.9466 6.72184 15.8706 6.60803 15.7748 6.51216C15.679 6.4163 15.5652 6.34027 15.4399 6.28841C15.3147 6.23656 15.1805 6.20989 15.0449 6.20995Z" fill="white"/>
<path d="M2.95369 6.21121C2.38374 6.21093 1.92179 6.67401 1.92165 7.24354L1.92235 11.5658C1.92226 11.7014 1.9489 11.8357 2.00075 11.961C2.0526 12.0863 2.12865 12.2002 2.22454 12.2961C2.32043 12.392 2.43428 12.4681 2.55959 12.5199C2.6849 12.5718 2.8192 12.5985 2.95482 12.5984C3.09042 12.5985 3.22472 12.5719 3.35002 12.5201C3.47532 12.4683 3.58916 12.3922 3.68502 12.2963C3.78087 12.2004 3.85687 12.0865 3.90864 11.9612C3.96041 11.8358 3.98695 11.7015 3.98672 11.5659V7.24298C3.98643 6.96921 3.87745 6.70676 3.68375 6.51329C3.49005 6.31983 3.22746 6.21118 2.95369 6.21121ZM11.2776 2.32968L11.998 1.01414C12.0163 0.980763 12.0207 0.941475 12.0101 0.904886C11.9996 0.868296 11.9749 0.837392 11.9416 0.818948C11.9082 0.800891 11.869 0.796775 11.8326 0.807498C11.7962 0.818221 11.7655 0.842912 11.7473 0.876183L11.0195 2.20551C10.4072 1.93298 9.72197 1.78026 8.99691 1.78096C8.27382 1.78026 7.58883 1.93256 6.97908 2.20354L6.25051 0.877589C6.24161 0.861038 6.22952 0.846416 6.21494 0.834571C6.20035 0.822725 6.18356 0.813891 6.16554 0.808581C6.14751 0.803271 6.12861 0.801589 6.10994 0.803635C6.09126 0.80568 6.07317 0.81141 6.05672 0.820495C6.04012 0.829371 6.02545 0.841469 6.01358 0.856081C6.0017 0.870694 5.99286 0.887527 5.98757 0.905598C5.98228 0.923668 5.98065 0.942612 5.98277 0.961321C5.98489 0.98003 5.99071 0.998128 5.99991 1.01456L6.72061 2.32926C5.30452 3.05953 4.34771 4.45031 4.34855 6.0471L13.6464 6.04598C13.6468 4.44975 12.6917 3.06178 11.2776 2.32968ZM6.88219 4.3627C6.77879 4.36264 6.67964 4.32151 6.60657 4.24835C6.53349 4.1752 6.49247 4.07601 6.49252 3.9726C6.49258 3.8692 6.53371 3.77006 6.60686 3.69698C6.68002 3.6239 6.77921 3.58288 6.88262 3.58293C6.98603 3.58312 7.08516 3.62427 7.1583 3.69739C7.23144 3.7705 7.27263 3.86961 7.27285 3.97303C7.2727 4.0765 7.23146 4.17568 7.1582 4.24875C7.08495 4.32182 6.98566 4.36281 6.88219 4.3627ZM11.116 4.36185C11.0648 4.36189 11.0141 4.35184 10.9668 4.33227C10.9195 4.3127 10.8765 4.284 10.8403 4.24781C10.8041 4.21162 10.7754 4.16865 10.7558 4.12136C10.7362 4.07406 10.7262 4.02337 10.7262 3.97218C10.7267 3.86887 10.768 3.76993 10.841 3.69681C10.914 3.62368 11.0128 3.58226 11.1161 3.58153C11.2194 3.58238 11.3181 3.62388 11.3909 3.69703C11.4638 3.77018 11.5048 3.86909 11.5052 3.97232C11.5053 4.02347 11.4953 4.07412 11.4757 4.12139C11.4562 4.16866 11.4275 4.21161 11.3914 4.24779C11.3552 4.28397 11.3123 4.31266 11.265 4.33224C11.2178 4.35181 11.1671 4.36187 11.116 4.36185ZM4.38652 6.40626L4.38807 13.1049C4.3879 13.2496 4.41628 13.3929 4.47157 13.5266C4.52686 13.6603 4.60798 13.7818 4.71029 13.884C4.8126 13.9863 4.93408 14.0674 5.06778 14.1227C5.20148 14.178 5.34477 14.2064 5.48944 14.2062L6.2394 14.2064L6.24024 16.4936C6.2401 17.0631 6.70304 17.526 7.27172 17.526C7.8421 17.526 8.30419 17.0627 8.30433 16.4929L8.30377 14.2063L9.69722 14.2059L9.69779 16.4929C9.69779 17.062 10.1609 17.5259 10.7297 17.5248C11.3001 17.5252 11.7624 17.0618 11.7623 16.492L11.7616 14.2056L12.5142 14.205C12.6589 14.2051 12.8022 14.1766 12.9359 14.1212C13.0696 14.0659 13.191 13.9847 13.2934 13.8824C13.3957 13.7801 13.4769 13.6587 13.5322 13.525C13.5876 13.3913 13.6161 13.2481 13.6162 13.1034L13.6149 6.40471L4.38652 6.40626ZM16.0772 7.242C16.0773 7.10644 16.0506 6.9722 15.9987 6.84696C15.9468 6.72172 15.8708 6.60793 15.7749 6.51209C15.679 6.41625 15.5652 6.34023 15.44 6.28839C15.3147 6.23655 15.1805 6.20989 15.0449 6.20995C14.475 6.20939 14.0131 6.67218 14.0131 7.24242L14.014 11.5649C14.0139 11.7005 14.0405 11.8348 14.0924 11.96C14.1442 12.0853 14.2202 12.1991 14.3161 12.2949C14.4119 12.3908 14.5257 12.4668 14.651 12.5186C14.7762 12.5705 14.9105 12.5971 15.046 12.597C15.1816 12.597 15.3159 12.5703 15.4411 12.5184C15.5664 12.4665 15.6802 12.3904 15.776 12.2945C15.8718 12.1987 15.9478 12.0848 15.9996 11.9595C16.0514 11.8342 16.0781 11.7 16.0779 11.5644L16.0772 7.242Z" fill="#A4C439"/>
</g>
<defs>
<clipPath id="clip0_148_410">
<rect width="18" height="18" fill="white" transform="translate(0 0.163635)"/>
</clipPath>
</defs>
</svg>
