<svg width="691" height="708" viewBox="0 0 691 708" fill="none" xmlns="http://www.w3.org/2000/svg">
<g clip-path="url(#clip0_254_6707)">
<g filter="url(#filter0_d_254_6707)">
<path d="M244.065 22.8846C260.423 2.68375 287.928 -4.6863 312.195 4.62896L650.627 134.541C674.894 143.856 690.403 167.738 689.043 193.696L670.07 555.708C668.71 581.666 650.789 603.796 625.682 610.523L275.525 704.348C250.417 711.075 223.832 700.87 209.675 679.07L12.2387 375.045C-1.91841 353.245 -0.428101 324.808 15.9302 304.607L244.065 22.8846Z" fill="#2563EB" style="fill:#2563EB;fill:color(display-p3 0.1451 0.3882 0.9216);fill-opacity:1;"/>
</g>
<path fill-rule="evenodd" clip-rule="evenodd" d="M299.759 127C288.732 127 279.793 135.939 279.793 146.966C279.793 157.992 288.732 166.931 299.759 166.931H314.307C311.991 253.524 266.435 312.223 198.6 356.438C175.161 374.361 160 402.898 160 435.039C160 489.297 203.205 552.931 256.5 552.931H449.5C502.795 552.931 546 489.297 546 435.039C546 402.898 530.839 374.361 507.4 356.438C439.565 312.223 394.009 253.524 391.693 166.931H406.241C417.268 166.931 426.207 157.992 426.207 146.966C426.207 135.939 417.268 127 406.241 127H299.759Z" fill="white" style="fill:white;fill-opacity:1;"/>
<path fill-rule="evenodd" clip-rule="evenodd" d="M348.705 232.407C348.705 237.159 344.859 241.012 340.114 241.012C335.369 241.012 331.523 237.159 331.523 232.407C331.523 227.655 335.369 223.802 340.114 223.802C344.859 223.802 348.705 227.655 348.705 232.407ZM374.478 275.43C379.223 275.43 383.07 271.578 383.07 266.826C383.07 262.074 379.223 258.221 374.478 258.221C369.733 258.221 365.887 262.074 365.887 266.826C365.887 271.578 369.733 275.43 374.478 275.43ZM348.704 292.64C348.704 302.144 341.012 309.849 331.522 309.849C322.032 309.849 314.34 302.144 314.34 292.64C314.34 283.136 322.032 275.431 331.522 275.431C341.012 275.431 348.704 283.136 348.704 292.64ZM396.231 360.439C398.797 355.618 400.252 350.113 400.252 344.268C400.252 325.259 384.867 309.849 365.887 309.849C346.908 309.849 331.523 325.259 331.523 344.268C331.523 349.171 332.546 353.834 334.391 358.055C323.331 358.697 312.295 359.912 301.33 361.7L296.016 362.567C252.9 369.597 199.931 385.462 199.931 429.148C199.931 467.74 234.197 513 276.466 513H429.534C471.803 513 506.069 467.74 506.069 429.148C506.069 385.462 453.1 369.597 409.984 362.567L404.67 361.7C401.861 361.242 399.048 360.822 396.231 360.439Z" fill="#1F2937" style="fill:#1F2937;fill:color(display-p3 0.1216 0.1608 0.2157);fill-opacity:1;"/>
<path fill-rule="evenodd" clip-rule="evenodd" d="M298.649 408.736C298.649 417.312 291.697 424.264 283.12 424.264C274.544 424.264 267.592 417.312 267.592 408.736C267.592 400.159 274.544 393.207 283.12 393.207C291.697 393.207 298.649 400.159 298.649 408.736ZM267.592 439.793C267.592 448.369 260.64 455.322 252.063 455.322C243.487 455.322 236.534 448.369 236.534 439.793C236.534 431.217 243.487 424.264 252.063 424.264C260.64 424.264 267.592 431.217 267.592 439.793ZM314.178 455.322C322.755 455.322 329.707 448.369 329.707 439.793C329.707 431.217 322.755 424.264 314.178 424.264C305.602 424.264 298.65 431.217 298.65 439.793C298.65 448.369 305.602 455.322 314.178 455.322ZM298.649 470.851C298.649 479.427 291.697 486.379 283.12 486.379C274.544 486.379 267.592 479.427 267.592 470.851C267.592 462.274 274.544 455.322 283.12 455.322C291.697 455.322 298.649 462.274 298.649 470.851ZM407.35 401.824C407.35 397.762 407.35 395.731 408.612 394.469C409.874 393.207 411.905 393.207 415.968 393.207H429.791C433.853 393.207 435.884 393.207 437.146 394.469C438.408 395.731 438.408 397.762 438.408 401.824V424.264L460.848 424.264C464.91 424.264 466.942 424.264 468.204 425.526C469.466 426.788 469.466 428.819 469.466 432.882V446.705C469.466 450.767 469.466 452.798 468.204 454.06C466.942 455.322 464.91 455.322 460.848 455.322H438.408V477.762C438.408 481.824 438.408 483.855 437.146 485.117C435.884 486.379 433.853 486.379 429.791 486.379H415.968C411.905 486.379 409.874 486.379 408.612 485.117C407.35 483.855 407.35 481.824 407.35 477.762V455.322H384.91C380.848 455.322 378.817 455.322 377.555 454.06C376.293 452.798 376.293 450.767 376.293 446.705V432.882C376.293 428.819 376.293 426.788 377.555 425.526C378.817 424.264 380.848 424.264 384.91 424.264L407.35 424.264V401.824Z" fill="white" style="fill:white;fill-opacity:1;"/>
</g>
<defs>
<filter id="filter0_d_254_6707" x="-67.4413" y="-59.3597" width="826.567" height="845.756" filterUnits="userSpaceOnUse" color-interpolation-filters="sRGB">
<feFlood flood-opacity="0" result="BackgroundImageFix"/>
<feColorMatrix in="SourceAlpha" type="matrix" values="0 0 0 0 0 0 0 0 0 0 0 0 0 0 0 0 0 0 127 0" result="hardAlpha"/>
<feOffset dy="10"/>
<feGaussianBlur stdDeviation="35"/>
<feComposite in2="hardAlpha" operator="out"/>
<feColorMatrix type="matrix" values="0 0 0 0 0 0 0 0 0 0 0 0 0 0 0 0 0 0 0.08 0"/>
<feBlend mode="normal" in2="BackgroundImageFix" result="effect1_dropShadow_254_6707"/>
<feBlend mode="normal" in="SourceGraphic" in2="effect1_dropShadow_254_6707" result="shape"/>
</filter>
<clipPath id="clip0_254_6707">
<rect width="691" height="708" fill="white" style="fill:white;fill-opacity:1;"/>
</clipPath>
</defs>
</svg>
