<svg width="680" height="680" viewBox="0 0 680 680" fill="none" xmlns="http://www.w3.org/2000/svg">
<g filter="url(#filter0_dii_184_190)">
<g clip-path="url(#clip0_184_190)">
<rect x="40" y="40" width="600" height="600" rx="100" fill="#F4F4F4"/>
<g filter="url(#filter1_ii_184_190)">
<path fill-rule="evenodd" clip-rule="evenodd" d="M540.066 409.813C540.066 437.299 538.198 463.745 534.757 488.727C513.398 502.38 490.036 515.237 464.937 526.852C446.452 535.407 428.053 542.812 409.947 549.102C391.84 542.812 373.442 535.407 354.957 526.852C329.856 515.236 306.493 502.379 285.133 488.725C281.692 463.743 279.825 437.298 279.825 409.813C279.825 382.327 281.692 355.882 285.133 330.9C306.493 317.246 329.854 304.39 354.954 292.774C373.44 284.219 391.839 276.814 409.947 270.523C428.054 276.814 446.453 284.219 464.939 292.774C490.038 304.39 513.398 317.245 534.757 330.898C538.198 355.88 540.066 382.327 540.066 409.813ZM578.302 361.955C579.488 377.577 580.103 393.557 580.103 409.813C580.103 426.069 579.488 442.048 578.302 457.67C597.862 442.077 614.913 425.944 629.133 409.812C614.913 393.68 597.862 377.547 578.302 361.955ZM653.811 377.595C631.376 353.232 603.663 329.465 571.662 307.564C567.801 284.887 562.691 263.3 556.488 243.107C560.804 243.094 565.043 243.169 569.199 243.332C631.118 245.752 662.757 266.227 673.018 288.066C681.962 307.102 679.667 337.819 653.811 377.595ZM653.811 442.029C631.377 466.392 603.664 490.159 571.662 512.061C567.801 534.739 562.691 556.326 556.488 576.52C560.805 576.533 565.045 576.458 569.202 576.295C631.121 573.875 662.759 553.399 673.021 531.56C681.965 512.524 679.669 481.806 653.811 442.029ZM542.261 615.941C623.233 619.253 686.723 596.419 709.307 548.353C727.879 508.826 715.498 459.235 680.146 409.811C715.496 360.39 727.875 310.8 709.304 271.274C686.72 223.209 623.232 200.374 542.262 203.686C511.067 129.456 463.383 82 409.945 82C356.508 82 308.824 129.456 277.628 203.685C196.66 200.375 133.173 223.209 110.589 271.274C92.0178 310.8 104.397 360.39 139.747 409.811C104.395 459.235 92.0146 508.826 110.587 548.353C133.17 596.418 196.659 619.253 277.629 615.941C308.824 690.17 356.508 737.626 409.945 737.626C463.382 737.626 511.066 690.17 542.261 615.941ZM515.307 573.95C518.794 563.465 521.97 552.47 524.798 541.021C511.034 548.689 496.701 555.995 481.857 562.865C478.909 564.229 475.961 565.566 473.014 566.878C487.537 570.002 501.677 572.352 515.307 573.95ZM409.947 591.031C440.983 601.022 471.377 608.026 500.249 612.077C498.437 615.964 496.577 619.745 494.673 623.415C466.294 678.086 434.225 697.891 409.945 697.891C385.665 697.891 353.596 678.086 325.218 623.415C323.313 619.745 321.453 615.965 319.641 612.077C348.514 608.026 378.91 601.023 409.947 591.031ZM346.88 566.878C343.932 565.566 340.984 564.229 338.036 562.865C323.191 555.994 308.857 548.688 295.092 541.019C297.92 552.469 301.096 563.465 304.583 573.951C318.215 572.353 332.355 570.002 346.88 566.878ZM248.228 512.059C252.089 534.737 257.199 556.325 263.402 576.52C259.086 576.533 254.848 576.458 250.692 576.295C188.772 573.875 157.134 553.399 146.873 531.56C137.928 512.524 140.224 481.806 166.082 442.029C188.516 466.391 216.227 490.158 248.228 512.059ZM241.588 457.667C222.029 442.075 204.98 425.943 190.76 409.812C204.98 393.681 222.03 377.549 241.588 361.957C240.402 377.579 239.788 393.558 239.788 409.813C239.788 426.068 240.402 442.046 241.588 457.667ZM166.082 377.595C188.516 353.232 216.228 329.467 248.228 307.566C252.089 284.888 257.199 263.301 263.402 243.107C259.087 243.094 254.849 243.169 250.694 243.332C188.775 245.752 157.136 266.227 146.875 288.066C137.931 307.102 140.227 337.819 166.082 377.595ZM304.583 245.676C301.096 256.161 297.92 267.157 295.092 278.607C308.856 270.938 323.189 263.632 338.034 256.762C340.982 255.398 343.931 254.06 346.879 252.748C332.354 249.624 318.214 247.274 304.583 245.676ZM473.014 252.748C487.538 249.624 501.677 247.274 515.308 245.676C518.794 256.161 521.97 267.155 524.798 278.605C511.035 270.937 496.703 263.632 481.86 256.762C478.911 255.398 475.963 254.06 473.014 252.748ZM409.947 228.595C378.909 218.603 348.514 211.6 319.641 207.549C321.453 203.662 323.313 199.881 325.218 196.211C353.596 141.539 385.665 121.735 409.945 121.735C434.225 121.735 466.294 141.539 494.673 196.211C496.578 199.881 498.438 203.662 500.25 207.549C471.378 211.6 440.983 218.604 409.947 228.595ZM409.947 479.349C448.643 479.349 480.012 448.217 480.012 409.813C480.012 371.41 448.643 340.277 409.947 340.277C371.252 340.277 339.883 371.41 339.883 409.813C339.883 448.217 371.252 479.349 409.947 479.349Z" fill="#1774FF"/>
</g>
</g>
</g>
<defs>
<filter id="filter0_dii_184_190" x="0" y="0" width="680" height="680" filterUnits="userSpaceOnUse" color-interpolation-filters="sRGB">
<feFlood flood-opacity="0" result="BackgroundImageFix"/>
<feColorMatrix in="SourceAlpha" type="matrix" values="0 0 0 0 0 0 0 0 0 0 0 0 0 0 0 0 0 0 127 0" result="hardAlpha"/>
<feOffset/>
<feGaussianBlur stdDeviation="20"/>
<feComposite in2="hardAlpha" operator="out"/>
<feColorMatrix type="matrix" values="0 0 0 0 0 0 0 0 0 0 0 0 0 0 0 0 0 0 0.1 0"/>
<feBlend mode="normal" in2="BackgroundImageFix" result="effect1_dropShadow_184_190"/>
<feBlend mode="normal" in="SourceGraphic" in2="effect1_dropShadow_184_190" result="shape"/>
<feColorMatrix in="SourceAlpha" type="matrix" values="0 0 0 0 0 0 0 0 0 0 0 0 0 0 0 0 0 0 127 0" result="hardAlpha"/>
<feOffset dx="20" dy="20"/>
<feGaussianBlur stdDeviation="25"/>
<feComposite in2="hardAlpha" operator="arithmetic" k2="-1" k3="1"/>
<feColorMatrix type="matrix" values="0 0 0 0 1 0 0 0 0 1 0 0 0 0 1 0 0 0 0.25 0"/>
<feBlend mode="normal" in2="shape" result="effect2_innerShadow_184_190"/>
<feColorMatrix in="SourceAlpha" type="matrix" values="0 0 0 0 0 0 0 0 0 0 0 0 0 0 0 0 0 0 127 0" result="hardAlpha"/>
<feOffset dx="-20" dy="-20"/>
<feGaussianBlur stdDeviation="25"/>
<feComposite in2="hardAlpha" operator="arithmetic" k2="-1" k3="1"/>
<feColorMatrix type="matrix" values="0 0 0 0 0 0 0 0 0 0 0 0 0 0 0 0 0 0 0.25 0"/>
<feBlend mode="normal" in2="effect2_innerShadow_184_190" result="effect3_innerShadow_184_190"/>
</filter>
<filter id="filter1_ii_184_190" x="82" y="57" width="655.893" height="700.626" filterUnits="userSpaceOnUse" color-interpolation-filters="sRGB">
<feFlood flood-opacity="0" result="BackgroundImageFix"/>
<feBlend mode="normal" in="SourceGraphic" in2="BackgroundImageFix" result="shape"/>
<feColorMatrix in="SourceAlpha" type="matrix" values="0 0 0 0 0 0 0 0 0 0 0 0 0 0 0 0 0 0 127 0" result="hardAlpha"/>
<feOffset dx="-20" dy="-25"/>
<feGaussianBlur stdDeviation="20"/>
<feComposite in2="hardAlpha" operator="arithmetic" k2="-1" k3="1"/>
<feColorMatrix type="matrix" values="0 0 0 0 0 0 0 0 0 0 0 0 0 0 0 0 0 0 0.25 0"/>
<feBlend mode="normal" in2="shape" result="effect1_innerShadow_184_190"/>
<feColorMatrix in="SourceAlpha" type="matrix" values="0 0 0 0 0 0 0 0 0 0 0 0 0 0 0 0 0 0 127 0" result="hardAlpha"/>
<feOffset dx="20" dy="20"/>
<feGaussianBlur stdDeviation="20"/>
<feComposite in2="hardAlpha" operator="arithmetic" k2="-1" k3="1"/>
<feColorMatrix type="matrix" values="0 0 0 0 1 0 0 0 0 1 0 0 0 0 1 0 0 0 0.25 0"/>
<feBlend mode="normal" in2="effect1_innerShadow_184_190" result="effect2_innerShadow_184_190"/>
</filter>
<clipPath id="clip0_184_190">
<rect x="40" y="40" width="600" height="600" rx="100" fill="white"/>
</clipPath>
</defs>
</svg>
