<svg width="394" height="375" viewBox="0 0 394 375" fill="none" xmlns="http://www.w3.org/2000/svg">
<path fill-rule="evenodd" clip-rule="evenodd" d="M84.6778 0C127.106 0 161.501 34.1814 161.501 76.3464V178.282C169.647 179.793 177.941 180.56 186.28 180.56H206.941C215.28 180.56 223.574 179.793 231.719 178.282V76.3464C231.719 34.1814 266.114 0 308.543 0C337.641 0 364.243 16.3383 377.256 42.2032L379.578 46.8183C389.686 66.9095 391.35 90.1684 384.202 111.478L378.381 128.833C367.506 161.254 344.117 188.055 313.358 203.339L291.415 214.242C289.476 215.206 287.521 216.135 285.553 217.031V224.901C306.086 217.685 328.85 218.98 348.583 228.784C375.94 242.378 393.221 270.165 393.221 300.561V374.496H339.387V300.561C339.387 290.429 333.627 281.167 324.508 276.636C316.93 272.87 308.01 272.87 300.432 276.636L285.553 284.029V374.496H231.719V232.438C226.29 233.152 220.823 233.632 215.335 233.874V234.06H206.941H186.28H177.886V233.874C172.397 233.632 166.931 233.152 161.501 232.438V374.496H107.668V284.029L92.7883 276.636C85.2105 272.87 76.291 272.87 68.7131 276.636C59.5941 281.167 53.8338 290.429 53.8338 300.561V374.496H0V300.561C0 270.165 17.2809 242.378 44.6379 228.784C64.3701 218.98 87.1347 217.685 107.668 224.901V217.031C105.699 216.135 103.745 215.206 101.805 214.242L79.8625 203.339C49.1039 188.055 25.7146 161.254 14.8398 128.833L9.01878 111.478C1.87109 90.1684 3.53438 66.9095 13.6428 46.8183L15.9648 42.2032C28.9781 16.3383 55.5792 0 84.6778 0ZM103.938 155.487L107.668 157.341V76.3464C107.668 63.7283 97.3747 53.4994 84.6778 53.4994C75.97 53.4994 68.0094 58.3887 64.1152 66.1289L61.7932 70.744C58.0699 78.1442 57.4573 86.7112 60.09 94.5602L65.911 111.915C72.2708 130.876 85.9494 146.549 103.938 155.487ZM289.283 155.487L285.553 157.341V76.3464C285.553 63.7283 295.846 53.4994 308.543 53.4994C317.251 53.4994 325.211 58.3887 329.105 66.1289L331.427 70.744C335.151 78.1442 335.763 86.7112 333.131 94.5602L327.31 111.915C320.95 130.876 307.271 146.549 289.283 155.487Z" fill="white"/>
</svg>
