<svg width="268" height="185" viewBox="0 0 268 185" fill="none" xmlns="http://www.w3.org/2000/svg">
<g clip-path="url(#clip0_309_439)">
<path d="M246.805 63.0982L208.744 22.3914C208.125 21.6794 207.132 21.1665 205.984 20.8157C204.836 20.4648 203.697 20.4301 202.815 20.5787L148.755 33.2258C146.837 33.6851 144.958 35.725 144.403 37.5419L128.118 90.8081C127.796 91.8601 127.607 93.1617 128.051 94.4476L248.311 66.382C248.088 65.059 247.491 63.9352 246.805 63.0982Z" fill="#9B4F96"/>
<path d="M127.793 94.2642C128.037 95.1754 128.502 96.0495 129.055 96.6367L166.991 137.41C167.61 138.122 168.604 138.635 169.751 138.986C170.899 139.337 172.038 139.371 172.92 139.223L226.98 126.576C228.898 126.116 230.777 124.076 231.332 122.259L247.617 68.9932C247.881 68.1325 248.077 67.147 247.862 66.1401L127.793 94.2642Z" fill="#68217A"/>
<path d="M204.747 97.7141C198.567 103.563 189.455 106.005 180.752 103.345C167.842 99.3977 160.539 85.6623 164.486 72.7522C168.433 59.8421 182.168 52.5388 195.078 56.4858C203.781 59.1464 209.969 66.2669 211.793 74.6672L226.418 71.2957C223.394 57.9275 213.522 46.4391 199.464 42.1413C178.617 35.7676 156.515 47.5192 150.141 68.3666C143.768 89.2141 155.519 111.316 176.367 117.689C190.329 121.958 204.908 118.05 214.861 108.754L204.747 97.7141ZM218.83 91.6674L220.948 87.8185L216.932 86.5905L218.306 82.0959L223.183 83.587L226.143 78.0087L230.829 79.4413L227.898 84.9239L231.532 86.035L234.463 80.5523L239.053 81.9557L236.122 87.4383L238.417 88.14L237.043 92.6347L233.887 91.6698L231.769 95.5188L235.786 96.7468L234.412 101.241L229.535 99.7503L226.633 105.137L221.947 103.705L224.849 98.3177L221.215 97.2067L218.313 102.594L213.723 101.19L216.625 95.8033L214.329 95.1016L215.704 90.607L218.859 91.5718L218.83 91.6674ZM223.42 93.0708L227.054 94.1818L229.172 90.3329L225.538 89.2218L223.42 93.0708Z" fill="white"/>
</g>
<g clip-path="url(#clip1_309_439)">
<path d="M186.766 114.82C187.656 113.277 188.207 111.54 188.207 109.977V55.78C188.207 54.222 187.657 52.483 186.766 50.94L131.446 82.88L186.766 114.82Z" fill="#00599C"/>
<path d="M136.36 145.586L183.293 118.492C184.645 117.711 185.875 116.363 186.766 114.82L131.446 82.88L76.1201 114.82C77.0101 116.363 78.2411 117.71 79.5931 118.492L126.526 145.586C129.229 147.148 133.656 147.148 136.358 145.586H136.36Z" fill="#004482"/>
<path d="M186.766 50.941C185.875 49.395 184.645 48.047 183.293 47.27L136.359 20.172C133.656 18.609 129.23 18.609 126.527 20.172L79.5939 47.27C76.8899 48.828 74.6799 52.66 74.6799 55.78V109.976C74.6799 111.538 75.2299 113.276 76.1209 114.819L131.445 82.88L186.766 50.941Z" fill="#659AD2"/>
<path d="M131.445 45.035C110.578 45.035 93.6021 62.012 93.6021 82.879C93.6021 103.746 110.578 120.723 131.445 120.723C144.91 120.723 157.469 113.476 164.215 101.813L147.84 92.335C144.46 98.175 138.18 101.8 131.445 101.8C121.012 101.8 112.523 93.312 112.523 82.878C112.523 72.444 121.013 63.956 131.445 63.956C138.175 63.956 144.462 67.585 147.835 73.421L164.215 63.944C157.465 52.28 144.91 45.035 131.445 45.035ZM160.88 76.57V80.777H156.673V84.98H160.88V89.187H165.083V84.98H169.286V80.777H165.083V76.57H160.88ZM176.646 76.57V80.777H172.442V84.98H176.646V89.187H180.853V84.98H185.056V80.777H180.853V76.57H176.646Z" fill="white"/>
</g>
<g clip-path="url(#clip2_309_439)">
<path d="M119.341 58.0369L65.046 45.4762C64.1352 45.2303 63.0245 45.3587 61.8763 45.7075C60.7281 46.0563 59.7628 46.663 59.1136 47.2783L21.2955 87.9256C19.9596 89.3765 19.5381 92.1174 20.0903 93.9353L36.2803 147.231C36.6 148.283 37.1692 149.469 38.2544 150.289L122.422 59.9227C121.499 58.9489 120.377 58.3494 119.341 58.0369Z" fill="#659AD3"/>
<path d="M37.9384 150.28C38.6493 150.9 39.5225 151.367 40.3086 151.546L94.5371 164.231C95.4479 164.477 96.5585 164.349 97.7067 164C98.8549 163.651 99.8202 163.045 100.469 162.429L138.288 121.782C139.623 120.331 140.045 117.59 139.493 115.772L123.303 62.4771C123.041 61.6159 122.655 60.6882 121.915 59.9724L37.9384 150.28Z" fill="#03599C"/>
<path d="M103.737 110.226C101.869 118.527 95.6676 125.636 86.9605 128.281C74.0434 132.205 60.321 124.878 56.3971 111.961C52.4731 99.0434 59.8009 85.321 72.718 81.397C81.4251 78.752 90.5331 81.2108 96.7317 87.1662L106.99 76.2114C97.0252 66.8017 82.4234 62.7719 68.3581 67.0447C47.4993 73.3811 35.7082 95.4617 42.0447 116.32C48.3811 137.179 70.4617 148.97 91.3205 142.634C105.29 138.39 115.212 127.015 118.289 113.748L103.737 110.226Z" fill="white"/>
</g>
<defs>
<clipPath id="clip0_309_439">
<rect width="128" height="128" fill="white" transform="translate(145.424) rotate(17)"/>
</clipPath>
<clipPath id="clip1_309_439">
<rect width="128" height="128" fill="white" transform="translate(68 19)"/>
</clipPath>
<clipPath id="clip2_309_439">
<rect width="128" height="128" fill="white" transform="translate(0 62.2049) rotate(-16.8977)"/>
</clipPath>
</defs>
</svg>
