<svg width="695" height="403" viewBox="0 0 695 403" fill="none" xmlns="http://www.w3.org/2000/svg">
<g clip-path="url(#clip0_304_439)">
<path d="M549.335 86.1322C510.49 69.731 478.377 79.7728 452.964 116.264C475.371 102.121 495.312 101.69 512.767 114.961C522.737 122.53 527.412 134.276 532.587 147.29C541.012 168.463 550.762 192.974 586.858 208.215C625.7 224.615 657.817 214.572 683.233 178.071C660.82 192.225 640.88 192.657 623.423 179.385C613.456 171.815 608.789 160.075 603.603 147.056C595.187 125.886 585.441 101.377 549.335 86.1322ZM441.192 146.711C402.35 130.311 370.233 140.354 344.817 176.855C367.228 162.7 387.167 162.268 404.625 175.54C414.594 183.111 419.27 194.855 424.445 207.869C432.869 229.043 442.62 253.553 478.715 268.794C517.558 285.194 549.673 275.153 575.086 238.662C552.677 252.804 532.738 253.236 515.28 239.964C505.313 232.396 500.647 220.654 495.461 207.635C487.045 186.465 477.299 161.956 441.192 146.711Z" fill="#38BDF8"/>
<path d="M125.961 362.939L0 105.647L250.217 0.000238452L330.594 276.492L239.606 349.439L125.961 362.939Z" fill="#E44D26"/>
<path d="M230.987 326.686L304.509 267.737L235.823 31.463L133.545 74.647L230.987 326.686Z" fill="#F16529"/>
<path d="M171.816 173.638L130.365 191.14L114.542 158.825L158.856 140.115L146.201 107.382L67.653 140.546L71.7991 149.011L114.373 235.971L184.472 206.374L171.816 173.638ZM204.685 258.654L204.561 258.753L165.87 263.635L153.549 238.471L122.101 251.749L146.361 301.294L217.725 292.815L217.853 292.714L204.685 258.654Z" fill="#EBEBEB"/>
<path d="M171.708 173.684L184.364 206.42L222.935 190.134L235.714 234.123L204.587 258.728L217.754 292.787L274.781 247.072L273.114 241.343L247.156 152.054L244.52 142.941L236.08 146.504L171.708 173.684ZM146.092 107.428L158.747 140.161L234.411 108.214L232.196 100.594L227.209 83.3934L224.562 74.2957L146.092 107.428Z" fill="white"/>
<path d="M258.563 304.253L233.882 14.959H505.085L480.38 304.21L369.319 336.387L258.563 304.253Z" fill="#1572B6"/>
<path d="M369.485 311.793L459.229 285.79L480.343 38.6108H369.485V311.793Z" fill="#33A9DC"/>
<path d="M369.485 143.426H414.413L417.515 107.093H369.485V71.6123H454.622L453.807 81.1322L445.461 178.907H369.485V143.426Z" fill="white"/>
<path d="M369.687 235.571L369.537 235.617L331.726 224.948L329.308 196.65H295.231L299.986 252.361L369.532 272.532L369.687 272.486V235.571Z" fill="#EBEBEB"/>
<path d="M411.526 177.404L407.436 224.919L369.569 235.601V272.516L439.172 252.358L439.682 246.363L445.588 177.404H411.526Z" fill="white"/>
<path d="M369.601 71.6123V107.093H287.592L286.912 99.1203L285.366 81.1322L284.553 71.6123H369.601ZM369.485 143.431V178.912H332.151L331.471 170.939L329.922 152.951L329.112 143.431H369.485Z" fill="#EBEBEB"/>
</g>
<defs>
<clipPath id="clip0_304_439">
<rect width="695" height="402.198" fill="white"/>
</clipPath>
</defs>
</svg>
