<svg width="128" height="128" viewBox="0 0 128 128" fill="none" xmlns="http://www.w3.org/2000/svg">
<g clip-path="url(#clip0_304_837)">
<path d="M44.7778 84.6559L44.7775 84.6562L44.7753 84.6578L44.7654 84.6653C44.7565 84.6721 44.743 84.6825 44.7254 84.6963C44.6903 84.7239 44.6391 84.765 44.5764 84.8179C44.4508 84.9238 44.2802 85.0761 44.1003 85.2611C43.7342 85.6377 43.3569 86.1226 43.2167 86.6095C43.148 86.8478 43.1389 87.0769 43.2066 87.2932C43.274 87.5083 43.4246 87.7334 43.7147 87.953C44.3058 88.4003 45.4462 88.801 47.4777 89.0113C58.0229 90.1001 66.3412 90.1894 80.7588 87.4145L80.8903 87.3892L44.7778 84.6559ZM44.7778 84.6559L44.7779 84.6559L44.7779 84.6559C44.7779 84.6559 44.7779 84.6559 44.7775 84.6553L44.5503 84.2177C41.8985 85.0979 40.0663 86.0013 38.9654 86.9025C37.8644 87.8039 37.4373 88.7593 37.7768 89.7044C38.1 90.6041 39.0906 91.386 40.5161 92.0478C41.9566 92.7167 43.9015 93.2906 46.2316 93.7395C55.5489 95.5343 71.2007 95.3616 86.0082 91.0309L86.7531 90.8131L86.0211 90.5552C84.4802 90.0123 83.2185 89.2429 82.3415 88.6082C81.9034 88.2912 81.5623 88.0085 81.3315 87.8058C81.2161 87.7045 81.1283 87.6233 81.0699 87.5678C81.0407 87.5401 81.0188 87.5188 81.0045 87.5047L80.9886 87.489L80.985 87.4854L80.9842 87.4846L80.9842 87.4846L44.7778 84.6559ZM47.7427 98.3361L47.7428 98.3361L47.7429 98.336C47.7429 98.336 47.7429 98.336 47.7424 98.3352L47.5498 97.8792C45.1387 98.5528 43.4809 99.3242 42.495 100.154C42.0001 100.571 41.6635 101.011 41.4939 101.473C41.3226 101.939 41.3277 102.411 41.4906 102.871C41.8103 103.773 42.7282 104.609 44.0438 105.344C45.37 106.085 47.1445 106.748 49.2509 107.284C57.6702 109.426 71.5542 109.578 83.8305 104.319L84.3931 104.078L83.8227 103.856C81.8327 103.082 80.1233 102.249 78.9116 101.609C78.3058 101.289 77.8248 101.018 77.4957 100.827C77.3312 100.731 77.2046 100.656 77.1195 100.604C77.0769 100.578 77.0447 100.559 77.0232 100.546L76.9991 100.531L76.9933 100.527L76.9919 100.526L76.9916 100.526L76.9916 100.526L76.9087 100.474L76.8126 100.492C65.938 102.548 60.9082 102.709 51.0425 101.582C49.0098 101.349 47.8176 101.004 47.161 100.637C46.8351 100.455 46.658 100.277 46.5684 100.121C46.4822 99.9699 46.4674 99.8234 46.4987 99.6757C46.566 99.3568 46.8493 99.0273 47.1628 98.7576C47.3135 98.628 47.4598 98.5217 47.5686 98.4479C47.6228 98.411 47.6674 98.3825 47.6979 98.3635C47.7131 98.354 47.7248 98.3468 47.7325 98.3422L47.7409 98.3372L47.7427 98.3361Z" fill="#0074BD" stroke="white" stroke-width="0.5"/>
<path d="M69.6132 61.4348L69.6133 61.435C71.0885 63.133 71.7186 64.7742 71.8479 66.276C71.9774 67.7807 71.6059 69.1657 71.0454 70.3497C70.4847 71.5343 69.7382 72.5105 69.1297 73.1919C68.8259 73.5321 68.5576 73.7975 68.366 73.9772C68.2702 74.0671 68.1937 74.1354 68.1415 74.181C68.1155 74.2038 68.0955 74.2208 68.0823 74.232L68.0676 74.2443L68.0642 74.2471L68.0635 74.2477L68.0634 74.2477C68.0634 74.2477 68.0635 74.2477 68.064 74.2484L68.3367 74.6632L68.222 74.441C68.3367 74.6632 68.3368 74.6631 68.337 74.663L68.3377 74.6626L68.3401 74.6614L68.349 74.6568L68.3828 74.6389C68.4124 74.6232 68.4558 74.6 68.5118 74.5694C68.6239 74.5082 68.7867 74.4175 68.9909 74.2988C69.3993 74.0613 69.974 73.7115 70.6412 73.2607C71.9743 72.3601 73.6831 71.0524 75.1732 69.4288C76.6619 67.8068 77.9464 65.8543 78.4053 63.6636C78.8664 61.462 78.4882 59.0447 76.6949 56.5193L76.6947 56.519C76.4106 56.1199 76.1301 55.7304 75.8556 55.3492C74.5368 53.5178 73.3551 51.8768 72.5632 50.2645C71.6131 48.3301 71.2412 46.4683 71.8794 44.413C72.5219 42.3439 74.1994 40.0412 77.4393 37.2603C80.6765 34.4816 85.4512 31.2442 92.2515 27.3003L92.2414 27.283C92.2854 27.2423 92.3453 27.1742 92.376 27.084V26.65L92.0306 26.8503L91.941 26.8735C91.8599 26.8947 91.7403 26.9263 91.5854 26.9685C91.2756 27.053 90.8245 27.1797 90.2581 27.3492C89.1254 27.6882 87.5307 28.1986 85.6812 28.8847C81.9846 30.256 77.2595 32.3331 73.1695 35.1532C69.0846 37.9698 65.5981 41.5517 64.4392 45.9444C63.2755 50.3558 64.476 55.5147 69.6132 61.4348Z" fill="#EA2D2E" stroke="white" stroke-width="0.5"/>
<path d="M101.965 108.42L102.226 108.001C103.849 108.734 104.757 109.613 104.779 110.636C104.79 111.144 104.578 111.641 104.197 112.116C103.817 112.591 103.258 113.058 102.544 113.515C99.6948 115.335 94.1832 117.099 86.7471 118.424C71.857 121.077 49.1244 121.986 24.187 117.944L24.187 117.944C21.8928 117.571 20.2834 117.08 19.2467 116.499C18.2102 115.918 17.6933 115.214 17.7204 114.414C17.7465 113.641 18.2812 112.883 19.0752 112.182C19.8785 111.472 20.9936 110.781 22.2792 110.146C24.8519 108.875 28.1505 107.81 31.1201 107.281C32.6051 107.017 34.0159 106.885 35.2177 106.931C36.4111 106.977 37.435 107.2 38.114 107.678L38.8462 108.193L101.965 108.42ZM101.965 108.42C101.964 108.422 101.964 108.422 101.964 108.422L101.964 108.422L101.964 108.422L101.969 108.427C101.974 108.431 101.982 108.438 101.993 108.447C102.013 108.466 102.044 108.495 102.081 108.533C102.156 108.61 102.256 108.722 102.354 108.862C102.552 109.146 102.73 109.526 102.711 109.954C102.692 110.373 102.483 110.886 101.812 111.44C101.136 112 100.001 112.591 98.1626 113.149C91.148 115.274 76.5023 116.664 62.0421 116.846C54.8171 116.938 47.6487 116.727 41.5157 116.158C35.3743 115.587 30.2984 114.66 27.2408 113.33C26.7007 113.095 26.3911 112.863 26.2367 112.654C26.0943 112.462 26.0784 112.284 26.1479 112.097C26.2245 111.891 26.4119 111.658 26.7162 111.407C27.0166 111.16 27.4102 110.912 27.8668 110.67C29.6988 109.7 32.4188 108.892 33.7198 108.611L33.7199 108.611C35.0767 108.318 36.1401 108.198 36.8617 108.152C37.2225 108.128 37.4979 108.124 37.6817 108.124C37.7737 108.125 37.8427 108.127 37.8882 108.128C37.9109 108.129 37.9277 108.13 37.9385 108.131L37.9502 108.131L37.9526 108.131L37.9528 108.131L37.9529 108.131L37.953 108.131L101.965 108.42ZM90.703 74.842L90.659 74.5959L90.6587 74.596L90.6574 74.5962L90.6524 74.5971L90.6321 74.6007L90.5517 74.6149C90.4806 74.6274 90.375 74.6458 90.2373 74.6696C89.9618 74.7171 89.5577 74.7859 89.0432 74.871C88.0143 75.0411 86.5444 75.2761 84.7814 75.5358C81.2547 76.0553 76.5571 76.673 71.8691 77.0669C60.3798 78.0306 48.0721 78.2184 41.9122 77.3942L41.9122 77.3942C40.0867 77.1501 38.8657 76.8552 38.1156 76.534C37.7402 76.3733 37.5007 76.2134 37.3612 76.0651C37.2274 75.9228 37.1921 75.7997 37.2016 75.6886C37.2119 75.5667 37.2798 75.4152 37.4378 75.2338C37.5943 75.054 37.8237 74.8629 38.1206 74.6638C38.7142 74.266 39.5421 73.86 40.4964 73.4643C42.4025 72.674 44.769 71.9423 46.6642 71.4072C47.6108 71.14 48.4376 70.9224 49.0278 70.7716C49.3228 70.6962 49.5586 70.6376 49.7205 70.5978C49.8014 70.5779 49.8639 70.5627 49.9061 70.5525L49.9539 70.541L49.9659 70.5382L49.9689 70.5375L49.9696 70.5373C49.9698 70.5372 49.9698 70.5372 49.912 70.294M90.703 74.842L90.8016 75.0718L90.8015 75.0718L90.8011 75.072L90.7995 75.0727L90.7926 75.0756L90.765 75.0876C90.7406 75.0982 90.7043 75.1141 90.6572 75.1349C90.5629 75.1765 90.4253 75.2379 90.2525 75.3167C89.9069 75.4744 89.421 75.7016 88.8607 75.9797C87.7382 76.5367 86.324 77.294 85.1399 78.1015L85.1043 78.1258L85.0626 78.1368C73.5069 81.1764 56.5921 81.9854 44.1734 81.2619C37.9704 80.9006 32.8545 80.1553 30.0849 79.099C29.391 78.8344 28.8283 78.5444 28.4301 78.2252C28.0335 77.9074 27.7696 77.5349 27.7463 77.1051C27.723 76.6741 27.9458 76.263 28.3444 75.8781C28.7439 75.4922 29.3475 75.1045 30.1592 74.7119C35.6024 72.0793 40.5391 70.9122 44.1168 70.4034C45.9058 70.1489 47.3554 70.059 48.3594 70.0328C48.8614 70.0197 49.252 70.0225 49.518 70.0287C49.651 70.0318 49.7529 70.0357 49.8219 70.0388C49.8564 70.0404 49.8827 70.0418 49.9006 70.0429L49.9212 70.0441L49.9266 70.0444L49.9282 70.0445L49.9286 70.0446C49.9288 70.0446 49.9289 70.0446 49.912 70.294M90.703 74.842L90.659 74.5959L90.8016 75.0718L90.703 74.842ZM49.912 70.294L49.9289 70.0446L49.9698 70.5372L49.912 70.294ZM90.4938 92.8191L90.4088 92.8633L90.375 92.953C90.3373 93.0535 90.246 93.179 90.1463 93.2926C90.0992 93.3462 90.0549 93.392 90.0223 93.4246C90.006 93.4408 89.9927 93.4536 89.9834 93.4626L89.9716 93.474L89.9653 93.4801C89.9644 93.481 89.9613 93.4841 89.9575 93.4882C89.9561 93.4897 89.9511 93.4952 89.9452 93.5025C89.9427 93.5057 89.9359 93.5144 89.9285 93.5264C89.9247 93.5328 89.916 93.5492 89.9113 93.5593C89.9048 93.5763 89.8932 93.6255 89.891 93.658V93.9822L90.2046 93.8998C98.0483 91.8377 103.238 88.9827 106.366 85.922C109.497 82.8582 110.566 79.5802 110.135 76.7045C109.271 70.9483 102.464 67.0322 94.8812 69.6971L94.8807 69.6973C94.1808 69.9448 93.6508 70.3549 93.2975 70.6995C93.1203 70.8723 92.986 71.0302 92.8953 71.1459C92.8499 71.2038 92.8153 71.2513 92.7916 71.285C92.7798 71.3018 92.7707 71.3152 92.7643 71.3248L92.7567 71.3362L92.7545 71.3397L92.7537 71.3408L92.7535 71.3413L92.7533 71.3414C92.7533 71.3415 92.7533 71.3416 92.964 71.476L92.7533 71.3416L92.333 72.0006L93.0575 71.7079L93.0576 71.7078L93.0576 71.7078L93.0577 71.7078L93.0588 71.7074L93.0648 71.705L93.0915 71.6948C93.116 71.6855 93.1538 71.6716 93.2053 71.6535C93.3082 71.6174 93.466 71.5646 93.6816 71.4998C94.1127 71.37 94.7749 71.1918 95.692 71.0007L95.641 70.756L95.692 71.0007C99.3529 70.238 103.798 72.6991 104.496 76.7873C105.191 80.8581 102.19 86.743 90.4938 92.8191Z" fill="#0074BD" stroke="white" stroke-width="0.5"/>
<path d="M76.491 1.58701L76.6679 1.41028L76.025 0.766977L76.2487 1.64851C77.5434 6.74905 77.0472 10.9449 75.4526 14.5736C73.855 18.2092 71.1475 21.2924 67.9914 24.1504C65.8782 26.064 63.5783 27.8647 61.2836 29.6614C60.1453 30.5526 59.0082 31.4429 57.8958 32.3456C54.552 35.0586 51.4441 37.8737 49.285 41.1154L49.2849 41.1155C47.7998 43.3466 47.2349 45.629 47.4194 47.9644C47.6033 50.2941 48.5314 52.6603 50.0043 55.0689C52.9465 59.8805 58.1004 64.9202 64.0136 70.2546L64.4097 69.9679C63.3529 67.5793 61.7249 65.261 60.0945 62.9394C59.9264 62.6999 59.7582 62.4604 59.5906 62.2207C57.7902 59.6466 56.055 57.0542 55.0905 54.2983C54.1297 51.553 53.9354 48.6493 55.2204 45.4451C56.5091 42.2318 59.2949 38.6932 64.3429 34.7062C77.0134 24.7051 80.1508 16.408 80.0661 10.5648C80.0239 7.64846 79.1786 5.36402 78.3427 3.80787C77.9248 3.02991 77.509 2.43353 77.1965 2.03036C77.0402 1.82874 76.9096 1.6753 76.8174 1.57151C76.7712 1.51961 76.7346 1.4801 76.7092 1.45317C76.6965 1.43971 76.6866 1.42939 76.6796 1.42223L76.6714 1.41388L76.6691 1.41148L76.6683 1.41073C76.6681 1.41048 76.6679 1.41028 76.491 1.58701Z" fill="#EA2D2E" stroke="white" stroke-width="0.5"/>
<path d="M52.198 126.27L52.1981 126.27C63.4484 126.99 77.7168 126.79 89.2813 125.078C95.0614 124.222 100.183 122.986 103.917 121.289C107.634 119.599 110.065 117.41 110.28 114.604L109.801 114.495C109.798 114.494 109.798 114.494 109.798 114.494L109.799 114.493L109.799 114.492L109.799 114.491C109.799 114.491 109.799 114.492 109.798 114.494C109.796 114.497 109.793 114.505 109.787 114.516C109.775 114.539 109.755 114.576 109.721 114.628C109.654 114.73 109.536 114.888 109.34 115.091C108.947 115.498 108.24 116.088 106.998 116.783C104.512 118.172 99.8961 119.974 91.4078 121.57L91.4078 121.57C72.2523 125.177 48.6138 124.756 34.6077 122.443L34.317 122.395V122.69C34.3359 122.785 34.3941 122.871 34.3985 122.875L34.4037 122.879L34.4074 122.882L34.412 122.886L34.4226 122.895C34.431 122.901 34.4424 122.91 34.457 122.92C34.4863 122.941 34.529 122.97 34.5871 123.007C34.7033 123.079 34.8817 123.18 35.1396 123.303C35.6553 123.548 36.4902 123.88 37.784 124.24C40.3709 124.96 44.8009 125.795 52.198 126.27Z" fill="#0074BD" stroke="white" stroke-width="0.5"/>
</g>
<defs>
<clipPath id="clip0_304_837">
<rect width="128" height="128" fill="white"/>
</clipPath>
</defs>
</svg>
