<svg width="136" height="148" viewBox="0 0 136 148" fill="none" xmlns="http://www.w3.org/2000/svg">
<path d="M67.9998 2.3C33.8998 2.3 6.2998 29.9 6.2998 64C6.2998 98.1 33.8998 125.7 67.9998 125.7C102.1 125.7 129.7 98.1 129.7 64C129.7 29.9 102.1 2.3 67.9998 2.3ZM101.3 38C98.3998 38.1 96.4998 36.4 96.3998 33.8C96.3998 32.8 96.5998 32 97.2998 31C97.8998 29.8 98.0998 29.6 98.0998 29.1C97.9998 27.5 95.5998 27.4 94.8998 27.4C85.5998 27.7 83.1998 40.2 81.1998 50.4L80.1998 55.8C85.4998 56.6 89.2998 55.6 91.3998 54.3C94.3998 52.4 90.5998 50.4 90.9998 48.2C91.4998 46 93.4998 44.9 95.0998 44.8C97.3998 44.7 98.9998 47.1 98.8998 49.5C98.7998 53.4 93.5998 58.9 83.0998 58.6C81.7998 58.6 80.6998 58.5 79.5998 58.4L77.5998 69.3C75.7998 77.5 73.4998 88.8 65.0998 98.6C57.8998 107.2 50.5998 108.5 47.2998 108.6C41.1998 108.8 37.0998 105.5 36.9998 101.2C36.8998 97 40.5998 94.7 42.9998 94.6C46.2998 94.5 48.4998 96.9 48.5998 99.6C48.6998 101.9 47.4998 102.6 46.6998 103.1C46.1998 103.5 45.3998 104 45.3998 104.9C45.3998 105.3 45.8998 106.2 47.1998 106.2C49.7998 106.1 51.4998 104.8 52.6998 104C58.6998 99 60.9998 90.3 63.9998 74.6L64.5998 70.8C65.5998 65.7 66.7998 59.9 68.4998 54.2C64.2998 51 61.7998 47.1 56.0998 45.6C52.1998 44.5 49.8998 45.4 48.1998 47.5C46.1998 50 46.8998 53.2 48.7998 55.1L51.8998 58.6C55.7998 63.1 57.8998 66.5 57.0998 71.2C55.9998 78.5 47.0998 84.2 36.5998 81C27.5998 78.2 25.9998 71.9 27.0998 68.4C27.9998 65.3 30.4998 64.7 32.8998 65.5C35.4998 66.3 36.4998 69.4 35.6998 71.8C35.5998 72.1 35.4998 72.5 35.1998 73C34.8998 73.7 34.3998 74.2 34.0998 75C33.4998 76.9 36.0998 78.2 37.8998 78.8C41.8998 80 45.7998 77.9 46.7998 74.7C47.6998 71.7 45.7998 69.6 45.0998 68.8L41.2998 64.7C39.5998 62.8 35.6998 57.4 37.5998 51.3C38.2998 49 39.7998 46.5 41.9998 44.9C46.5998 41.4 51.6998 40.9 56.4998 42.3C62.6998 44.1 65.6998 48.2 69.5998 51.4C71.7998 45.1 74.7998 38.8 79.2998 33.6C83.3998 28.8 88.7998 25.4 95.0998 25.1C101.4 24.9 106.1 27.7 106.3 32.2C106.2 34.2 105.1 37.9 101.3 38Z" fill="white"/>
<g filter="url(#filter0_d_309_471)">
<path d="M4 106C4 124.593 32.654 139.667 68 139.667C103.346 139.667 132 124.593 132 106C132 87.407 103.345 72.333 68 72.333C32.654 72.333 4 87.407 4 106Z" fill="url(#paint0_radial_309_471)"/>
</g>
<g filter="url(#filter1_d_309_471)">
<path d="M68 137.167C101.965 137.167 129.5 123.212 129.5 106C129.5 88.786 101.965 74.833 68 74.833C34.035 74.833 6.5 88.786 6.5 106C6.5 123.212 34.035 137.167 68 137.167Z" fill="#777BB3"/>
</g>
<g filter="url(#filter2_d_309_471)">
<path d="M38.772 109.864C41.565 109.864 43.649 109.349 44.968 108.334C46.274 107.328 47.175 105.587 47.648 103.159C48.088 100.889 47.92 99.305 47.148 98.449C46.36 97.575 44.655 97.132 42.081 97.132H37.617L35.144 109.864H38.772ZM24.173 125.547C24.0706 125.547 23.9695 125.524 23.8769 125.48C23.7844 125.436 23.7027 125.373 23.6377 125.293C23.5727 125.214 23.526 125.122 23.501 125.022C23.476 124.923 23.4733 124.819 23.493 124.719L30.05 90.981C30.081 90.8233 30.1657 90.6812 30.2897 90.5789C30.4137 90.4766 30.5693 90.4205 30.73 90.42H44.864C49.306 90.42 52.612 91.626 54.691 94.005C56.779 96.395 57.425 99.739 56.608 103.94C56.275 105.651 55.703 107.24 54.908 108.664C54.0805 110.129 53.0245 111.452 51.78 112.584C50.249 114.016 48.516 115.056 46.633 115.667C44.781 116.271 42.401 116.577 39.563 116.577H33.839L32.205 124.985C32.1742 125.143 32.0893 125.286 31.9649 125.388C31.8404 125.491 31.6843 125.547 31.523 125.547H24.173Z" fill="black"/>
</g>
<g filter="url(#filter3_d_309_471)">
<path d="M38.1898 97.826H42.0808C45.1878 97.826 46.2668 98.508 46.6338 98.915C47.2408 99.589 47.3568 101.012 46.9648 103.027C46.5258 105.284 45.7118 106.885 44.5448 107.783C43.3508 108.703 41.4068 109.169 38.7718 109.169H35.9858L38.1908 97.827L38.1898 97.826ZM44.8638 89.726H30.7308C30.4085 89.726 30.0962 89.8381 29.8474 90.0429C29.5986 90.2478 29.4287 90.5327 29.3668 90.849L22.8098 124.588C22.7711 124.789 22.7772 124.996 22.8277 125.194C22.8783 125.393 22.972 125.577 23.1022 125.735C23.2324 125.893 23.3959 126.02 23.581 126.108C23.766 126.195 23.9681 126.241 24.1728 126.241H31.5228C31.845 126.241 32.1572 126.128 32.4058 125.923C32.6544 125.718 32.8241 125.433 32.8858 125.117L34.4108 117.271H39.5618C42.4738 117.271 44.9258 116.953 46.8488 116.327C48.8258 115.685 50.6448 114.596 52.2548 113.09C53.5511 111.909 54.6512 110.53 55.5138 109.003C56.3448 107.516 56.9428 105.856 57.2888 104.072C58.1488 99.649 57.4498 96.108 55.2128 93.548C52.9968 91.011 49.5148 89.725 44.8638 89.725V89.726ZM34.3008 110.557H38.7718C41.7348 110.557 43.9418 110 45.3918 108.882C46.8428 107.766 47.8198 105.902 48.3298 103.291C48.8148 100.783 48.5938 99.014 47.6648 97.983C46.7338 96.953 44.8738 96.437 42.0808 96.437H37.0448L34.3008 110.557ZM44.8648 91.112C49.1168 91.112 52.2178 92.229 54.1678 94.46C56.1178 96.692 56.7038 99.807 55.9278 103.806C55.6058 105.454 55.0648 106.96 54.3028 108.324C53.5388 109.69 52.5428 110.938 51.3118 112.071C49.8438 113.444 48.2148 114.423 46.4198 115.006C44.6258 115.59 42.3398 115.881 39.5628 115.881H33.2668L31.5238 124.851H24.1738L30.7318 91.112H44.8648Z" fill="white"/>
</g>
<g filter="url(#filter4_d_309_471)">
<path d="M73.4591 116.577C73.3566 116.577 73.2553 116.555 73.1626 116.511C73.0699 116.467 72.988 116.404 72.9228 116.325C72.8576 116.245 72.8107 116.153 72.7855 116.054C72.7603 115.954 72.7574 115.851 72.7771 115.75L75.6771 100.822C75.9541 99.402 75.8861 98.384 75.4871 97.952C75.2421 97.689 74.5081 97.248 72.3371 97.248H67.0811L63.4351 116.016C63.4038 116.174 63.3185 116.316 63.194 116.418C63.0694 116.521 62.9132 116.576 62.7521 116.576H55.4621C55.3597 116.576 55.2585 116.554 55.1658 116.51C55.0731 116.466 54.9913 116.403 54.926 116.324C54.8607 116.245 54.8137 116.153 54.7883 116.053C54.7629 115.954 54.7598 115.851 54.7791 115.75L61.3371 82.011C61.3681 81.8529 61.4531 81.7106 61.5775 81.6083C61.7019 81.5059 61.858 81.45 62.0191 81.45H69.3091C69.4115 81.4499 69.5126 81.4725 69.6053 81.5161C69.698 81.5597 69.7799 81.6232 69.8451 81.7021C69.9104 81.781 69.9574 81.8734 69.9828 81.9726C70.0082 82.0718 70.0114 82.1754 69.9921 82.276L68.4101 90.42H74.0631C78.3701 90.42 81.2901 91.178 82.9911 92.741C84.7241 94.334 85.2661 96.881 84.5991 100.314L81.5481 116.016C81.5168 116.174 81.4317 116.316 81.3073 116.418C81.183 116.52 81.027 116.576 80.8661 116.576H73.4591V116.577Z" fill="black"/>
</g>
<g filter="url(#filter5_d_309_471)">
<path d="M69.3101 80.755H62.0191C61.6966 80.7551 61.3842 80.8672 61.1354 81.0723C60.8866 81.2773 60.7168 81.5625 60.6551 81.879L54.0981 115.617C54.0592 115.818 54.0652 116.025 54.1156 116.224C54.1661 116.422 54.2598 116.607 54.3901 116.765C54.5203 116.923 54.6838 117.05 54.869 117.138C55.0541 117.225 55.2563 117.271 55.4611 117.271H62.7521C63.0745 117.271 63.3869 117.159 63.6357 116.954C63.8845 116.749 64.0544 116.463 64.1161 116.147L67.6531 97.942H72.3351C74.5031 97.942 74.9591 98.405 74.9761 98.426C75.1081 98.566 75.2811 99.221 74.9951 100.69L72.0951 115.617C72.0561 115.818 72.0622 116.025 72.1127 116.224C72.1632 116.422 72.257 116.607 72.3874 116.765C72.5177 116.923 72.6814 117.051 72.8666 117.138C73.0519 117.226 73.2542 117.271 73.4591 117.271H80.8671C81.1893 117.271 81.5015 117.158 81.7501 116.953C81.9987 116.748 82.1684 116.463 82.2301 116.147L85.2811 100.447C85.9961 96.761 85.3841 93.997 83.4611 92.23C81.6251 90.544 78.5511 89.725 74.0631 89.725H69.2531L70.6741 82.41C70.7131 82.2088 70.7072 82.0015 70.6568 81.8028C70.6063 81.6042 70.5125 81.4191 70.3822 81.261C70.2518 81.1028 70.0881 80.9754 69.9028 80.8879C69.7174 80.8005 69.515 80.7551 69.3101 80.755ZM69.3101 82.145L67.5671 91.113H74.0631C78.1501 91.113 80.9701 91.827 82.5201 93.253C84.0731 94.679 84.5371 96.988 83.9181 100.183L80.8661 115.882H73.4591L76.3601 100.954C76.6901 99.256 76.5681 98.098 75.9951 97.48C75.4221 96.863 74.2021 96.554 72.3371 96.554H66.5081L62.7521 115.881H55.4601L62.0181 82.142H69.3101V82.145Z" fill="white"/>
</g>
<g filter="url(#filter6_d_309_471)">
<path d="M96.1358 109.864C98.9288 109.864 101.014 109.349 102.334 108.334C103.638 107.328 104.54 105.587 105.013 103.159C105.453 100.889 105.286 99.305 104.513 98.449C103.725 97.575 102.02 97.132 99.4458 97.132H94.9828L92.5078 109.864H96.1358ZM81.5398 125.547C81.4372 125.547 81.3358 125.525 81.243 125.481C81.1502 125.437 81.0683 125.373 81.003 125.294C80.9378 125.215 80.891 125.122 80.8658 125.023C80.8407 124.923 80.838 124.82 80.8578 124.719L87.4148 90.981C87.4458 90.8229 87.5308 90.6806 87.6552 90.5783C87.7796 90.4759 87.9357 90.42 88.0968 90.42H102.23C106.672 90.42 109.978 91.626 112.056 94.005C114.145 96.395 114.79 99.739 113.973 103.94C113.661 105.595 113.087 107.189 112.274 108.664C111.446 110.129 110.39 111.452 109.146 112.584C107.616 114.016 105.881 115.056 103.999 115.667C102.147 116.271 99.7668 116.577 96.9278 116.577H91.2048L89.5718 124.985C89.5409 125.143 89.4559 125.286 89.3312 125.389C89.2066 125.491 89.0502 125.547 88.8888 125.547H81.5398Z" fill="black"/>
</g>
<g filter="url(#filter7_d_309_471)">
<path d="M95.555 97.826H99.446C102.553 97.826 103.632 98.508 103.998 98.915C104.608 99.589 104.722 101.012 104.331 103.027C103.891 105.284 103.077 106.885 101.91 107.783C100.715 108.703 98.771 109.169 96.137 109.169H93.351L95.555 97.826ZM102.229 89.726H88.096C87.7739 89.7263 87.4619 89.8384 87.2132 90.0432C86.9646 90.2481 86.7949 90.5329 86.733 90.849L80.175 124.588C80.1363 124.789 80.1424 124.996 80.193 125.195C80.2436 125.393 80.3375 125.578 80.4678 125.736C80.5981 125.894 80.7617 126.021 80.9469 126.108C81.1321 126.196 81.3343 126.241 81.539 126.241H88.889C89.2113 126.241 89.5234 126.128 89.772 125.923C90.0207 125.718 90.1903 125.433 90.252 125.117L91.777 117.271H96.927C99.838 117.271 102.291 116.953 104.213 116.327C106.191 115.685 108.01 114.596 109.621 113.089C110.917 111.908 112.017 110.529 112.879 109.003C113.711 107.516 114.307 105.856 114.654 104.072C115.514 99.649 114.816 96.108 112.578 93.548C110.362 91.011 106.881 89.725 102.228 89.725L102.229 89.726ZM91.666 110.557H96.136C99.1 110.557 101.306 110 102.758 108.882C104.208 107.766 105.186 105.902 105.694 103.291C106.181 100.783 105.96 99.014 105.029 97.983C104.099 96.953 102.238 96.437 99.446 96.437H94.411L91.666 110.557ZM102.229 91.112C106.48 91.112 109.583 92.229 111.532 94.46C113.482 96.692 114.069 99.807 113.291 103.806C112.971 105.454 112.429 106.96 111.667 108.324C110.904 109.69 109.907 110.938 108.675 112.071C107.208 113.444 105.578 114.423 103.783 115.006C101.99 115.59 99.705 115.881 96.927 115.881H90.632L88.887 124.851H81.537L88.095 91.112H102.229Z" fill="white"/>
</g>
<defs>
<filter id="filter0_d_309_471" x="0" y="72.333" width="136" height="75.334" filterUnits="userSpaceOnUse" color-interpolation-filters="sRGB">
<feFlood flood-opacity="0" result="BackgroundImageFix"/>
<feColorMatrix in="SourceAlpha" type="matrix" values="0 0 0 0 0 0 0 0 0 0 0 0 0 0 0 0 0 0 127 0" result="hardAlpha"/>
<feOffset dy="4"/>
<feGaussianBlur stdDeviation="2"/>
<feComposite in2="hardAlpha" operator="out"/>
<feColorMatrix type="matrix" values="0 0 0 0 0 0 0 0 0 0 0 0 0 0 0 0 0 0 0.25 0"/>
<feBlend mode="normal" in2="BackgroundImageFix" result="effect1_dropShadow_309_471"/>
<feBlend mode="normal" in="SourceGraphic" in2="effect1_dropShadow_309_471" result="shape"/>
</filter>
<filter id="filter1_d_309_471" x="2.5" y="74.833" width="131" height="70.334" filterUnits="userSpaceOnUse" color-interpolation-filters="sRGB">
<feFlood flood-opacity="0" result="BackgroundImageFix"/>
<feColorMatrix in="SourceAlpha" type="matrix" values="0 0 0 0 0 0 0 0 0 0 0 0 0 0 0 0 0 0 127 0" result="hardAlpha"/>
<feOffset dy="4"/>
<feGaussianBlur stdDeviation="2"/>
<feComposite in2="hardAlpha" operator="out"/>
<feColorMatrix type="matrix" values="0 0 0 0 0 0 0 0 0 0 0 0 0 0 0 0 0 0 0.25 0"/>
<feBlend mode="normal" in2="BackgroundImageFix" result="effect1_dropShadow_309_471"/>
<feBlend mode="normal" in="SourceGraphic" in2="effect1_dropShadow_309_471" result="shape"/>
</filter>
<filter id="filter2_d_309_471" x="19.48" y="90.42" width="41.4707" height="43.127" filterUnits="userSpaceOnUse" color-interpolation-filters="sRGB">
<feFlood flood-opacity="0" result="BackgroundImageFix"/>
<feColorMatrix in="SourceAlpha" type="matrix" values="0 0 0 0 0 0 0 0 0 0 0 0 0 0 0 0 0 0 127 0" result="hardAlpha"/>
<feOffset dy="4"/>
<feGaussianBlur stdDeviation="2"/>
<feComposite in2="hardAlpha" operator="out"/>
<feColorMatrix type="matrix" values="0 0 0 0 0 0 0 0 0 0 0 0 0 0 0 0 0 0 0.25 0"/>
<feBlend mode="normal" in2="BackgroundImageFix" result="effect1_dropShadow_309_471"/>
<feBlend mode="normal" in="SourceGraphic" in2="effect1_dropShadow_309_471" result="shape"/>
</filter>
<filter id="filter3_d_309_471" x="18.7847" y="89.725" width="42.8604" height="44.516" filterUnits="userSpaceOnUse" color-interpolation-filters="sRGB">
<feFlood flood-opacity="0" result="BackgroundImageFix"/>
<feColorMatrix in="SourceAlpha" type="matrix" values="0 0 0 0 0 0 0 0 0 0 0 0 0 0 0 0 0 0 127 0" result="hardAlpha"/>
<feOffset dy="4"/>
<feGaussianBlur stdDeviation="2"/>
<feComposite in2="hardAlpha" operator="out"/>
<feColorMatrix type="matrix" values="0 0 0 0 0 0 0 0 0 0 0 0 0 0 0 0 0 0 0.25 0"/>
<feBlend mode="normal" in2="BackgroundImageFix" result="effect1_dropShadow_309_471"/>
<feBlend mode="normal" in="SourceGraphic" in2="effect1_dropShadow_309_471" result="shape"/>
</filter>
<filter id="filter4_d_309_471" x="50.7666" y="81.45" width="38.1089" height="43.127" filterUnits="userSpaceOnUse" color-interpolation-filters="sRGB">
<feFlood flood-opacity="0" result="BackgroundImageFix"/>
<feColorMatrix in="SourceAlpha" type="matrix" values="0 0 0 0 0 0 0 0 0 0 0 0 0 0 0 0 0 0 127 0" result="hardAlpha"/>
<feOffset dy="4"/>
<feGaussianBlur stdDeviation="2"/>
<feComposite in2="hardAlpha" operator="out"/>
<feColorMatrix type="matrix" values="0 0 0 0 0 0 0 0 0 0 0 0 0 0 0 0 0 0 0.25 0"/>
<feBlend mode="normal" in2="BackgroundImageFix" result="effect1_dropShadow_309_471"/>
<feBlend mode="normal" in="SourceGraphic" in2="effect1_dropShadow_309_471" result="shape"/>
</filter>
<filter id="filter5_d_309_471" x="50.0728" y="80.755" width="39.4976" height="44.516" filterUnits="userSpaceOnUse" color-interpolation-filters="sRGB">
<feFlood flood-opacity="0" result="BackgroundImageFix"/>
<feColorMatrix in="SourceAlpha" type="matrix" values="0 0 0 0 0 0 0 0 0 0 0 0 0 0 0 0 0 0 127 0" result="hardAlpha"/>
<feOffset dy="4"/>
<feGaussianBlur stdDeviation="2"/>
<feComposite in2="hardAlpha" operator="out"/>
<feColorMatrix type="matrix" values="0 0 0 0 0 0 0 0 0 0 0 0 0 0 0 0 0 0 0.25 0"/>
<feBlend mode="normal" in2="BackgroundImageFix" result="effect1_dropShadow_309_471"/>
<feBlend mode="normal" in="SourceGraphic" in2="effect1_dropShadow_309_471" result="shape"/>
</filter>
<filter id="filter6_d_309_471" x="76.8447" y="90.42" width="41.4707" height="43.127" filterUnits="userSpaceOnUse" color-interpolation-filters="sRGB">
<feFlood flood-opacity="0" result="BackgroundImageFix"/>
<feColorMatrix in="SourceAlpha" type="matrix" values="0 0 0 0 0 0 0 0 0 0 0 0 0 0 0 0 0 0 127 0" result="hardAlpha"/>
<feOffset dy="4"/>
<feGaussianBlur stdDeviation="2"/>
<feComposite in2="hardAlpha" operator="out"/>
<feColorMatrix type="matrix" values="0 0 0 0 0 0 0 0 0 0 0 0 0 0 0 0 0 0 0.25 0"/>
<feBlend mode="normal" in2="BackgroundImageFix" result="effect1_dropShadow_309_471"/>
<feBlend mode="normal" in="SourceGraphic" in2="effect1_dropShadow_309_471" result="shape"/>
</filter>
<filter id="filter7_d_309_471" x="76.1499" y="89.725" width="42.8604" height="44.516" filterUnits="userSpaceOnUse" color-interpolation-filters="sRGB">
<feFlood flood-opacity="0" result="BackgroundImageFix"/>
<feColorMatrix in="SourceAlpha" type="matrix" values="0 0 0 0 0 0 0 0 0 0 0 0 0 0 0 0 0 0 127 0" result="hardAlpha"/>
<feOffset dy="4"/>
<feGaussianBlur stdDeviation="2"/>
<feComposite in2="hardAlpha" operator="out"/>
<feColorMatrix type="matrix" values="0 0 0 0 0 0 0 0 0 0 0 0 0 0 0 0 0 0 0.25 0"/>
<feBlend mode="normal" in2="BackgroundImageFix" result="effect1_dropShadow_309_471"/>
<feBlend mode="normal" in="SourceGraphic" in2="effect1_dropShadow_309_471" result="shape"/>
</filter>
<radialGradient id="paint0_radial_309_471" cx="0" cy="0" r="1" gradientUnits="userSpaceOnUse" gradientTransform="translate(42.426 84.169) scale(84.0414)">
<stop stop-color="#AEB2D5"/>
<stop offset="0.3" stop-color="#AEB2D5"/>
<stop offset="0.75" stop-color="#484C89"/>
<stop offset="1" stop-color="#484C89"/>
</radialGradient>
</defs>
</svg>
