<svg width="251" height="245" viewBox="0 0 251 245" fill="none" xmlns="http://www.w3.org/2000/svg">
<g clip-path="url(#clip0_304_857)">
<path d="M239.985 100.994C232.817 100.798 227.344 101.468 222.661 103.44C221.332 104.002 219.212 104.015 218.995 105.681C219.726 106.448 219.838 107.592 220.421 108.536C221.537 110.339 223.425 112.764 225.108 114.038C226.947 115.424 228.843 116.909 230.814 118.11C234.324 120.25 238.24 121.472 241.613 123.612C243.605 124.876 245.58 126.467 247.524 127.893C248.484 128.596 249.131 129.692 250.374 130.134V129.933C249.72 129.098 249.551 127.949 248.949 127.078L246.298 124.428C243.708 120.99 240.419 117.971 236.926 115.465C234.139 113.461 227.899 110.759 226.738 107.518L226.534 107.314C228.51 107.089 230.823 106.374 232.649 105.884C235.713 105.064 238.452 105.277 241.613 104.458L245.893 103.238V102.422C244.295 100.784 243.155 98.6115 241.412 97.126C236.847 93.2391 231.867 89.3594 226.739 86.1232C223.896 84.3283 220.382 83.1594 217.367 81.6379C216.351 81.128 214.572 80.8587 213.901 80.0075C212.319 77.9916 211.456 75.4338 210.235 73.0807C207.678 68.1534 205.167 62.7769 202.899 57.5926C201.352 54.0593 200.345 50.5733 198.417 47.405C189.165 32.1934 179.207 23.0101 163.778 13.9862C160.494 12.0669 156.542 11.3082 152.365 10.3162L145.639 9.91009C144.27 9.33954 142.848 7.6649 141.563 6.84968C136.453 3.61862 123.341 -3.40479 119.554 5.83091C117.165 11.6577 123.128 17.3437 125.261 20.2992C126.758 22.3676 128.674 24.6919 129.742 27.0214C130.449 28.5552 130.569 30.089 131.172 31.7082C132.65 35.7 133.942 40.0444 135.858 43.7308C136.826 45.5977 137.894 47.5622 139.119 49.2328C139.867 50.2567 141.155 50.7111 141.36 52.2891C140.099 54.0521 140.027 56.7866 139.321 59.0154C136.136 69.0591 137.341 81.5392 141.971 88.9687C143.393 91.254 146.742 96.1443 151.343 94.2692C155.371 92.6264 154.472 87.547 155.624 83.0617C155.885 82.0461 155.725 81.2987 156.235 80.6161V80.8207L159.905 88.1535C162.62 92.5267 167.434 97.0962 171.518 100.18C173.635 101.779 175.301 104.541 178.04 105.477V105.272H177.835C177.305 104.444 176.474 104.103 175.8 103.441C174.206 101.875 172.431 99.9315 171.113 98.1407C167.399 93.1014 164.118 87.583 161.13 81.8415C159.7 79.0987 158.459 76.0753 157.255 73.2843C156.789 72.2079 156.797 70.5775 155.829 70.0234C154.512 72.0671 152.568 73.7222 151.548 76.135C149.922 79.9941 149.709 84.7045 149.106 89.5835C148.749 89.712 148.906 89.6236 148.697 89.7881C145.858 89.1013 144.863 86.1818 143.806 83.6724C141.139 77.3357 140.642 67.1316 142.991 59.8316C143.597 57.9442 146.344 52.0012 145.232 50.2546C144.701 48.5162 142.951 47.5078 141.971 46.1785C140.758 44.5358 139.55 42.3718 138.71 40.472C136.526 35.5324 135.51 29.9832 133.208 24.988C132.108 22.5989 130.253 20.181 128.727 18.0612C127.036 15.7081 125.145 13.9728 123.836 11.1303C123.37 10.1188 122.74 8.49965 123.427 7.46443C123.648 6.76127 123.957 6.46829 124.651 6.24007C125.831 5.32821 129.125 6.54539 130.353 7.05528C133.622 8.41227 136.349 9.70551 139.119 11.5405C140.444 12.4195 141.79 14.1229 143.396 14.5968H145.231C148.098 15.2558 151.311 14.7973 153.993 15.6125C158.731 17.0538 162.975 19.2949 166.831 21.7282C178.573 29.1453 188.178 39.6979 194.747 52.2952C195.803 54.3235 196.262 56.2552 197.193 58.4068C199.068 62.744 201.434 67.2056 203.3 71.4503C205.167 75.6785 206.983 79.952 209.621 83.4729C211.006 85.3244 216.355 86.3164 218.789 87.3445C220.495 88.063 223.29 88.8145 224.904 89.7901C227.988 91.6498 230.976 93.8662 233.872 95.9017C235.313 96.9215 239.762 99.1584 239.983 100.998L239.985 100.994ZM148.898 23.3586C147.404 23.3309 146.348 23.519 145.232 23.7647V23.9693H145.432C146.147 25.4311 147.404 26.3748 148.287 27.6352L150.323 31.9158L150.527 31.7154C151.789 30.8241 152.366 29.4023 152.358 27.2301C151.852 26.6956 151.78 26.0335 151.338 25.3951C150.761 24.548 149.632 24.07 148.897 23.3596L148.898 23.3586Z" fill="#00618A"/>
</g>
<g clip-path="url(#clip1_304_857)">
<path d="M74.6981 133.894C50.3965 142.786 28.181 143.132 24.8655 134.071L55.912 218.922C59.1025 227.641 81.0512 227.628 105.128 218.976L105.746 218.749C130.048 209.858 147.24 195.781 143.924 186.718L112.877 101.868C116.117 110.722 98.9997 125.002 74.6981 133.894Z" fill="url(#paint0_linear_304_857)"/>
<path d="M112.877 102.868C116.117 111.722 98.9999 126.003 74.6983 134.895C50.3967 143.787 28.1809 144.132 24.8654 135.071C21.5495 126.008 38.7411 111.931 63.0427 103.04C87.3443 94.1478 109.561 93.8052 112.877 102.868Z" fill="#E8E8E8"/>
<path d="M102.172 104.305C104.232 109.935 90.7149 120.017 72.1112 126.824C53.5076 133.631 36.6757 134.653 34.6155 129.023C32.5554 123.393 46.0976 113.379 64.7013 106.572C83.3049 99.7653 100.136 98.7418 102.172 104.305Z" fill="#50E6FF"/>
<path d="M69.3222 119.202C60.1773 122.287 51.6287 126.917 44.0472 132.889C53.6818 132.503 63.1768 130.451 72.111 126.824C81.276 123.771 89.8256 119.114 97.3613 113.069C87.7391 113.542 78.2629 115.614 69.3222 119.202Z" fill="#198AB3"/>
<path d="M117.198 167.074L108.659 143.734L102.478 145.996L112.852 174.347L129.743 168.167L127.909 163.155L117.198 167.074ZM63.9861 173.544C62.5223 173.498 61.076 173.213 59.7043 172.699C59.3203 172.508 58.9786 172.241 58.6992 171.915C58.4198 171.589 58.2084 171.211 58.0775 170.802C57.9091 170.407 57.8461 169.975 57.8945 169.548C57.943 169.121 58.1014 168.714 58.3541 168.366C58.9852 167.473 59.8928 166.812 60.9368 166.485C63.3416 165.482 66.01 165.299 68.5293 165.964L66.3699 160.063C63.8781 160.046 61.408 160.527 59.1041 161.476C56.3575 162.318 54.0038 164.117 52.471 166.546C51.8034 167.604 51.3969 168.806 51.2849 170.052C51.1729 171.298 51.3587 172.553 51.8269 173.713C53.1074 177.213 56.3064 179.156 61.7297 179.506C63.4813 179.597 65.2136 179.903 66.8922 180.422C67.3115 180.573 67.6927 180.815 68.0092 181.129C68.3257 181.443 68.5698 181.822 68.7246 182.241C69.0351 183.089 68.9135 184.031 68.4065 184.773C67.6704 185.661 66.6919 186.316 65.5901 186.658C62.8205 187.646 59.7866 187.593 57.0526 186.511L59.3886 192.896C62.0839 193.236 64.8216 192.878 67.3385 191.855C70.2776 190.973 72.8374 189.134 74.609 186.625C75.1562 185.526 75.4395 184.314 75.4364 183.086C75.4333 181.858 75.1438 180.648 74.591 179.551C73.9815 177.781 72.7456 176.296 71.1164 175.374C68.894 174.272 66.4648 173.648 63.9861 173.544ZM103.953 171.296C104.557 168.116 104.245 164.83 103.055 161.82C101.958 159.303 100.266 157.09 98.1259 155.37C96.2699 153.619 93.9472 152.442 91.4375 151.981C88.9102 151.559 86.3166 151.809 83.9163 152.705C81.3028 153.598 78.9768 155.176 77.1808 157.274C75.4937 159.232 74.4 161.63 74.028 164.188C73.7007 167.059 74.0708 169.967 75.107 172.665C75.9935 175.046 77.4174 177.19 79.2679 178.93C81.0917 180.666 83.3845 181.83 85.8627 182.276C88.3987 182.781 91.0218 182.625 93.4803 181.824L101.897 186.527L110.205 183.488L98.995 179.029C101.527 177.135 103.288 174.388 103.953 171.296ZM96.4573 172.093C96.117 173.098 95.5483 174.01 94.7959 174.758C94.0434 175.506 93.1278 176.069 92.1209 176.404C91.1293 176.804 90.0565 176.962 88.9915 176.864C87.9266 176.767 86.9003 176.417 85.9979 175.843C83.8238 174.389 82.2299 172.218 81.4951 169.708C80.4404 167.315 80.2562 164.628 80.9741 162.112C81.3285 161.079 81.9102 160.139 82.6762 159.36C83.4422 158.582 84.3731 157.985 85.4003 157.614C86.387 157.203 87.4615 157.047 88.5244 157.161C89.5873 157.276 90.6041 157.656 91.4808 158.268C93.5731 159.799 95.1061 161.973 95.8451 164.458C96.9898 166.839 97.208 169.56 96.4573 172.093Z" fill="url(#paint1_radial_304_857)"/>
</g>
<path d="M159.024 141.9C159.831 135.184 159.59 134.198 164.592 135.286L165.862 135.397C169.708 135.572 174.741 134.779 177.697 133.405C184.062 130.452 187.834 125.522 181.561 126.817C167.246 129.77 166.263 124.923 166.263 124.923C181.378 102.497 187.696 74.0278 182.241 67.0589C167.366 48.0519 141.617 57.0399 141.186 57.2722L141.048 57.2979C138.22 56.7109 135.055 56.3603 131.499 56.3028C125.022 56.1959 120.107 58.0011 116.378 60.8281C116.378 60.8281 70.4431 41.9033 72.5804 84.6277C73.0348 93.7164 85.6074 153.4 100.604 135.373C106.086 128.781 111.382 123.207 111.382 123.207C114.012 124.954 117.161 125.846 120.463 125.525L120.719 125.307C120.639 126.126 120.674 126.927 120.821 127.874C116.959 132.191 118.094 132.949 110.37 134.538C102.555 136.148 107.146 139.015 110.143 139.764C113.777 140.673 122.183 141.96 127.864 134.01L127.638 134.916C129.153 136.129 129.051 143.631 129.265 148.99C129.48 154.35 129.839 159.351 130.932 162.301C132.024 165.249 133.314 172.844 143.464 170.669C151.947 168.855 158.433 166.239 159.024 141.9Z" fill="black"/>
<path d="M140.159 175.972C135.67 175.972 132.746 174.236 130.971 172.559C128.291 170.03 127.228 166.772 126.593 164.826L126.318 164.014C125.039 160.562 124.605 155.592 124.348 149.191C124.309 148.23 124.283 147.24 124.253 146.191C124.231 145.423 124.204 144.459 124.165 143.452C122.548 144.223 120.831 144.766 119.064 145.064C115.899 145.605 112.496 145.43 108.949 144.543C106.445 143.917 103.845 142.619 102.362 140.616C98.0414 144.4 93.9201 143.887 91.6749 143.137C87.7139 141.816 84.1693 138.104 80.8375 131.791C78.4638 127.294 76.1683 121.434 74.0135 114.373C70.2613 102.078 67.8773 89.1284 67.6655 84.8765C66.9994 71.5688 70.582 62.0514 78.3117 56.5916C90.505 47.9789 108.979 53.0439 115.715 55.3436C120.24 52.6163 125.564 51.2891 131.58 51.3847C134.812 51.4372 137.888 51.7209 140.746 52.2308C143.728 51.2932 149.616 49.9476 156.357 50.0319C168.776 50.1799 179.068 55.0198 186.117 64.0283C191.148 70.4555 188.66 83.9523 186.73 91.426C184.014 101.938 179.256 113.119 173.41 122.852C174.998 122.864 177.297 122.674 180.566 121.998C187.016 120.667 188.903 124.125 189.415 125.673C191.466 131.885 182.551 136.579 179.77 137.87C176.207 139.524 170.397 140.531 165.64 140.313L165.432 140.3L164.182 140.19L164.059 141.232L163.939 142.251C163.62 154.586 161.858 162.398 158.232 167.56C154.431 172.971 149.149 174.488 144.496 175.485C142.909 175.824 141.467 175.972 140.159 175.972ZM130.712 131.078C133.61 133.397 133.864 137.761 134.091 145.916C134.12 146.934 134.146 147.897 134.182 148.797C134.291 151.521 134.547 157.9 135.547 160.595C135.687 160.977 135.814 161.363 135.947 161.773C137.061 165.182 137.619 166.892 142.433 165.863C146.474 164.996 148.552 164.219 150.178 161.904C152.542 158.538 153.864 151.768 154.106 141.78L159.023 141.9L154.14 141.314L154.284 140.094C154.752 136.075 155.089 133.172 157.775 131.251C159.931 129.711 162.387 129.86 164.343 130.213C162.194 128.589 161.6 126.684 161.441 125.903L161.031 123.883L162.183 122.173C168.821 112.325 174.295 100.221 177.202 88.9639C180.189 77.3977 179.278 71.2553 178.368 70.0936C166.31 54.6867 145.401 61.0481 143.218 61.7698L142.849 61.9692L140.998 62.3136L140.05 62.1172C137.437 61.5744 134.534 61.2742 131.422 61.2239C126.533 61.1416 122.588 62.2971 119.354 64.751L117.11 66.4524L114.506 65.3801C108.942 63.1051 92.6011 58.5315 83.9781 64.6389C79.1917 68.0294 77.0112 74.6724 77.4965 84.3841C77.6568 87.5905 79.8352 99.7283 83.4292 111.5C88.3955 127.768 92.9085 133.173 94.7929 133.801C95.1218 133.912 95.9751 133.249 96.8242 132.229C100.365 127.985 104.031 123.847 107.818 119.821L110.665 116.824L114.108 119.112C115.496 120.034 117.027 120.557 118.599 120.656L126.809 113.653L125.62 125.792C125.593 126.064 125.58 126.435 125.687 127.124L126.045 129.425L124.492 131.16L124.313 131.361L128.824 133.443L130.712 131.078Z" fill="black"/>
<path d="M181.561 126.817C167.245 129.77 166.262 124.923 166.262 124.923C181.377 102.496 187.695 74.0258 182.242 67.0589C167.367 48.0529 141.616 57.0409 141.186 57.2742L141.047 57.2989C138.219 56.7119 135.054 56.3624 131.496 56.3048C125.019 56.1989 120.106 58.0031 116.377 60.8302C116.377 60.8302 70.4412 41.9064 72.5774 84.6298C73.0318 93.7195 85.6044 153.403 100.601 135.376C106.083 128.784 111.378 123.21 111.378 123.21C114.009 124.957 117.157 125.849 120.458 125.528L120.715 125.31C120.635 126.129 120.672 126.93 120.818 127.877C116.955 132.194 118.09 132.952 110.366 134.541C102.551 136.151 107.142 139.018 110.14 139.767C113.773 140.676 122.18 141.963 127.86 134.013L127.633 134.919C129.147 136.132 130.21 142.806 130.032 148.856C129.853 154.906 129.734 159.06 130.928 162.305C132.12 165.549 133.309 172.848 143.461 170.673C151.944 168.855 156.34 164.144 156.953 156.286C157.387 150.698 158.369 151.525 158.431 146.53L159.22 144.165C160.128 136.592 159.364 134.149 164.591 135.285L165.861 135.396C169.708 135.571 174.742 134.777 177.697 133.404C184.061 130.453 187.835 125.522 181.561 126.817Z" fill="#336791"/>
<path d="M140.672 172.941C132.209 172.941 129.528 166.239 128.431 163.498C126.826 159.482 126.479 143.895 126.837 131.113C126.842 130.897 126.89 130.685 126.978 130.488C127.066 130.291 127.192 130.113 127.348 129.965C127.505 129.817 127.689 129.701 127.891 129.625C128.093 129.548 128.307 129.512 128.523 129.519C128.738 129.525 128.95 129.573 129.147 129.661C129.344 129.749 129.521 129.875 129.669 130.031C129.817 130.188 129.933 130.372 130.009 130.573C130.086 130.774 130.123 130.989 130.116 131.204C129.704 145.947 130.289 159.307 131.477 162.28C133.332 166.915 136.145 170.97 144.096 169.266C151.645 167.647 154.472 164.785 155.731 157.485C156.698 151.884 158.609 135.947 158.844 132.803C158.86 132.588 158.918 132.378 159.015 132.186C159.112 131.993 159.246 131.822 159.409 131.681C159.572 131.541 159.762 131.434 159.967 131.366C160.171 131.299 160.387 131.273 160.602 131.289C161.036 131.322 161.439 131.526 161.722 131.855C162.006 132.185 162.147 132.614 162.115 133.047C161.87 136.322 159.968 152.227 158.965 158.044C157.478 166.666 153.634 170.576 144.784 172.474C143.28 172.796 141.914 172.94 140.672 172.941ZM94.7855 140.207C94.0458 140.205 93.3113 140.083 92.6102 139.848C87.1134 138.014 81.8777 129.062 77.048 113.237C73.3719 101.192 71.0424 88.6195 70.8378 84.5331C70.2323 72.419 73.3513 63.8484 80.1105 59.0609C93.4819 49.5867 115.976 58.6086 116.927 58.9972C117.33 59.1617 117.651 59.4796 117.819 59.8808C117.988 60.282 117.99 60.7337 117.825 61.1365C117.661 61.5393 117.343 61.8603 116.942 62.0288C116.541 62.1973 116.089 62.1995 115.686 62.035C115.469 61.9466 93.8993 53.3051 82 61.742C76.2205 65.8397 73.5672 73.4532 74.1131 84.3697C74.2847 87.8125 76.461 100.083 80.1845 112.279C84.496 126.406 89.4028 135.32 93.6474 136.736C94.3136 136.958 96.3408 137.633 99.2388 134.148C102.618 130.09 106.125 126.138 109.752 122.299C110.056 121.997 110.466 121.825 110.895 121.82C111.323 121.816 111.737 121.98 112.046 122.276C112.356 122.573 112.537 122.979 112.551 123.408C112.565 123.836 112.41 124.253 112.121 124.569C112.072 124.621 107.138 129.778 101.762 136.247C99.2152 139.309 96.7747 140.207 94.7855 140.207ZM166.16 126.386C165.862 126.385 165.571 126.304 165.316 126.151C165.061 125.997 164.853 125.778 164.713 125.515C164.574 125.253 164.508 124.957 164.523 124.66C164.539 124.363 164.635 124.076 164.801 123.829C180.08 101.156 185.443 73.7606 180.85 67.8906C175.068 60.5032 166.905 56.6451 156.585 56.422C148.943 56.2575 142.87 58.2087 141.877 58.549L141.627 58.6508C140.629 58.9643 139.863 58.4174 139.574 57.778C139.409 57.4116 139.384 56.9977 139.504 56.6142C139.623 56.2307 139.879 55.9042 140.223 55.6962C140.27 55.6685 140.42 55.6047 140.664 55.5153C142.351 54.8975 148.517 53.047 156.154 53.1344C167.573 53.2557 177.006 57.6587 183.431 65.8695C186.471 69.7544 186.478 78.7043 183.451 90.4257C180.365 102.376 174.558 115.219 167.52 125.663C167.205 126.133 166.687 126.386 166.16 126.386ZM166.941 136.882C164.332 136.882 161.993 136.514 160.593 135.675C159.154 134.812 158.879 133.641 158.843 133.019C158.451 126.121 162.256 124.92 164.197 124.372C163.927 123.963 163.542 123.482 163.144 122.985C162.013 121.571 160.462 119.634 159.268 116.737C159.081 116.284 158.495 115.233 157.816 114.015C154.137 107.417 146.481 93.6876 151.399 86.657C153.675 83.4034 158.208 82.1224 164.886 82.8369C162.921 76.8518 153.566 58.1296 131.368 57.7656C124.693 57.6546 119.217 59.7076 115.103 63.8618C105.892 73.1643 106.225 89.996 106.23 90.1646C106.236 90.3799 106.199 90.5943 106.122 90.7954C106.045 90.9965 105.929 91.1804 105.781 91.3367C105.632 91.493 105.455 91.6185 105.258 91.7061C105.061 91.7938 104.849 91.8418 104.634 91.8475C104.419 91.8532 104.204 91.8164 104.003 91.7392C103.802 91.662 103.618 91.546 103.462 91.3978C103.306 91.2495 103.18 91.0719 103.092 90.8752C103.005 90.6784 102.957 90.4663 102.951 90.251C102.93 89.5036 102.587 71.8402 112.773 61.5529C117.54 56.7386 123.815 54.3619 131.423 54.4863C145.624 54.7196 154.765 61.9394 159.932 67.9543C165.564 74.51 168.326 81.7411 168.553 84.1548C168.723 85.9498 167.434 86.3085 167.174 86.362L166.582 86.3754C160.029 85.3257 155.824 86.0546 154.086 88.5383C150.345 93.885 157.587 106.872 160.679 112.418C161.469 113.833 162.038 114.856 162.299 115.487C163.315 117.95 164.64 119.605 165.704 120.935C166.641 122.105 167.452 123.12 167.742 124.31C167.876 124.547 169.788 127.374 181.128 125.033C183.97 124.447 185.675 124.948 186.196 126.524C187.221 129.623 181.47 133.239 178.286 134.717C175.433 136.043 170.88 136.882 166.941 136.882ZM162.113 132.748C162.473 133.111 164.273 133.737 168.001 133.577C171.315 133.435 174.81 132.714 176.908 131.741C179.59 130.495 181.38 129.102 182.308 128.151L181.794 128.245C174.543 129.742 169.414 129.543 166.55 127.652C166.358 127.525 166.173 127.387 165.995 127.24C165.685 127.362 165.398 127.443 165.193 127.5C163.569 127.956 161.889 128.427 162.113 132.748ZM115.275 141.913C113.474 141.913 111.578 141.667 109.642 141.183C107.637 140.681 104.256 139.171 104.307 136.691C104.366 133.908 108.413 133.073 109.936 132.759C115.44 131.626 115.799 131.171 117.519 128.987C118.021 128.35 118.645 127.558 119.496 126.608C120.759 125.193 122.14 124.477 123.6 124.477C124.616 124.477 125.45 124.821 126.001 125.05C127.757 125.778 129.222 127.538 129.824 129.643C130.368 131.541 130.108 133.369 129.095 134.789C125.767 139.449 120.988 141.913 115.275 141.913ZM107.851 136.831C108.345 137.214 109.336 137.725 110.439 138C112.116 138.42 113.742 138.633 115.276 138.633C119.949 138.633 123.702 136.698 126.427 132.882C126.995 132.086 126.825 131.076 126.672 130.544C126.354 129.431 125.562 128.418 124.747 128.08C124.305 127.897 123.938 127.757 123.601 127.757C123.42 127.757 122.869 127.757 121.942 128.794C121.302 129.514 120.687 130.255 120.097 131.017C117.955 133.737 116.973 134.66 110.599 135.973C109.044 136.292 108.246 136.617 107.851 136.831ZM120.463 129.265C120.072 129.265 119.693 129.124 119.396 128.869C119.099 128.613 118.904 128.26 118.844 127.873C118.803 127.601 118.776 127.327 118.762 127.052C114.584 126.974 110.553 125.181 107.493 121.988C103.623 117.951 101.862 112.357 102.662 106.643C103.531 100.437 103.206 94.9583 103.031 92.0151C102.983 91.1968 102.948 90.6056 102.95 90.1965C102.953 89.6773 102.963 88.3008 107.565 85.9683C109.201 85.1387 112.483 83.6912 116.067 83.3201C122.006 82.7064 125.921 85.3514 127.093 90.7691C130.256 105.396 127.344 111.865 125.217 116.59C124.821 117.47 124.447 118.3 124.148 119.105L123.883 119.815C122.76 122.828 121.788 125.431 122.087 127.375C122.119 127.588 122.11 127.805 122.058 128.014C122.007 128.223 121.915 128.42 121.788 128.594C121.66 128.768 121.5 128.915 121.316 129.026C121.131 129.138 120.927 129.212 120.714 129.245L120.463 129.265ZM106.241 90.6509L106.304 91.8218C106.485 94.8791 106.823 100.568 105.91 107.098C105.251 111.812 106.69 116.412 109.86 119.718C112.366 122.331 115.662 123.774 119.051 123.774H119.121C119.5 122.175 120.13 120.487 120.809 118.668L121.071 117.963C121.409 117.054 121.805 116.174 122.224 115.243C124.271 110.695 126.819 105.034 123.885 91.463C123.304 88.7747 121.894 87.2194 119.578 86.7064C114.82 85.6557 107.73 89.2343 106.241 90.6509ZM116.14 89.9549C116.058 90.5347 117.202 92.0829 118.695 92.2895C120.185 92.4982 121.459 91.2872 121.541 90.7074C121.622 90.1276 120.479 89.4882 118.986 89.2805C117.494 89.0729 116.22 89.3751 116.14 89.9549ZM119.037 92.8601L118.619 92.8313C117.694 92.7028 116.758 92.1199 116.118 91.2708C115.893 90.9726 115.526 90.3949 115.599 89.8788C115.703 89.1222 116.626 88.6689 118.066 88.6689C118.388 88.6689 118.723 88.6925 119.06 88.7398C119.847 88.8488 120.578 89.076 121.118 89.3772C122.054 89.8994 122.122 90.4823 122.08 90.7835C121.965 91.6193 120.636 92.8601 119.037 92.8601ZM116.684 90.0515C116.731 90.4093 117.617 91.5895 118.77 91.7488L119.038 91.7673C120.103 91.7673 120.899 90.9295 120.993 90.655C120.894 90.4679 120.209 90.0032 118.911 89.8223C118.631 89.7822 118.349 89.7619 118.067 89.7616C117.232 89.7616 116.789 89.9498 116.684 90.0515ZM161.511 88.7717C161.592 89.3515 160.449 90.8997 158.957 91.1073C157.467 91.315 156.191 90.105 156.109 89.5252C156.031 88.9454 157.174 88.3049 158.664 88.0983C160.155 87.8896 161.429 88.1929 161.511 88.7717ZM158.613 91.4034C157.178 91.4034 155.939 90.287 155.837 89.5622C155.719 88.6925 157.151 88.0315 158.625 87.8269C158.95 87.7817 159.272 87.7591 159.581 87.7591C160.854 87.7591 161.697 88.1322 161.781 88.7347C161.836 89.1243 161.537 89.7257 161.022 90.2685C160.681 90.6252 159.967 91.243 158.993 91.3777L158.613 91.4034ZM159.582 88.306C159.299 88.306 159.003 88.3276 158.702 88.3687C157.221 88.5753 156.337 89.1695 156.38 89.4882C156.429 89.8387 157.375 90.8575 158.614 90.8575L158.919 90.8359C159.728 90.7239 160.336 90.1955 160.626 89.8912C161.081 89.4131 161.262 88.9629 161.241 88.8097C161.212 88.6062 160.665 88.306 159.582 88.306ZM163.658 122.069C163.361 122.069 163.07 121.989 162.815 121.836C162.56 121.683 162.351 121.464 162.212 121.201C162.072 120.939 162.006 120.644 162.021 120.347C162.036 120.05 162.132 119.763 162.297 119.517C165.791 114.299 165.151 108.979 164.533 103.834C164.269 101.642 163.998 99.3757 164.068 97.2004C164.14 94.9624 164.424 93.1161 164.699 91.3304C165.025 89.2147 165.333 87.2163 165.206 84.8436C165.194 84.6286 165.225 84.4133 165.296 84.2102C165.368 84.0071 165.479 83.82 165.623 83.6597C165.767 83.4995 165.941 83.3691 166.135 83.2761C166.329 83.183 166.54 83.1292 166.755 83.1176C166.97 83.106 167.185 83.1368 167.388 83.2084C167.591 83.28 167.778 83.3908 167.939 83.5347C168.099 83.6786 168.229 83.8526 168.322 84.0468C168.415 84.2411 168.469 84.4517 168.481 84.6668C168.627 87.3787 168.278 89.6403 167.941 91.829C167.681 93.518 167.412 95.2646 167.347 97.3052C167.284 99.2317 167.53 101.277 167.79 103.442C168.448 108.914 169.193 115.115 165.024 121.341C164.874 121.566 164.67 121.749 164.432 121.876C164.194 122.003 163.928 122.069 163.658 122.069Z" fill="white"/>
<defs>
<linearGradient id="paint0_linear_304_857" x1="43.3024" y1="184.46" x2="131.314" y2="152.257" gradientUnits="userSpaceOnUse">
<stop stop-color="#005BA1"/>
<stop offset="0.07" stop-color="#0060A9"/>
<stop offset="0.36" stop-color="#0071C8"/>
<stop offset="0.52" stop-color="#0078D4"/>
<stop offset="0.64" stop-color="#0074CD"/>
<stop offset="0.82" stop-color="#006ABB"/>
<stop offset="1" stop-color="#005BA1"/>
</linearGradient>
<radialGradient id="paint1_radial_304_857" cx="0" cy="0" r="1" gradientUnits="userSpaceOnUse" gradientTransform="translate(56256.1 -2091.37) rotate(-20.0973) scale(38766.8 10055.8)">
<stop stop-color="#F2F2F2"/>
<stop offset="0.58" stop-color="#EEEEEE"/>
<stop offset="1" stop-color="#E6E6E6"/>
</radialGradient>
<clipPath id="clip0_304_857">
<rect width="131.586" height="131.586" fill="white" transform="translate(119)"/>
</clipPath>
<clipPath id="clip1_304_857">
<rect width="131.586" height="131.586" fill="white" transform="translate(0 121.215) rotate(-20.0973)"/>
</clipPath>
</defs>
</svg>
