<svg width="960" height="960" viewBox="0 0 960 960" fill="none" xmlns="http://www.w3.org/2000/svg">
<path fill-rule="evenodd" clip-rule="evenodd" d="M921.807 269.806C921.807 327.643 917.878 383.292 910.637 435.861C865.691 464.59 816.533 491.643 763.716 516.086C724.818 534.088 686.103 549.671 648 562.907C609.898 549.671 571.182 534.088 532.284 516.086C479.467 491.643 430.308 464.589 385.361 435.859C378.12 383.29 374.191 327.642 374.191 269.806C374.191 211.968 378.12 156.319 385.361 103.749C430.308 75.0188 479.466 47.9659 532.283 23.5229C571.182 5.52109 609.897 -10.0621 648 -23.2982C686.103 -10.0621 724.819 5.52109 763.717 23.5229C816.533 47.9655 865.691 75.0179 910.637 103.747C917.878 156.317 921.807 211.968 921.807 269.806ZM1002.27 169.101C1004.76 201.973 1006.06 235.599 1006.06 269.806C1006.06 304.012 1004.76 337.636 1002.27 370.507C1043.43 337.697 1079.3 303.749 1109.23 269.804C1079.3 235.859 1043.43 201.911 1002.27 169.101ZM1161.16 202.01C1113.95 150.744 1055.63 100.733 988.295 54.6466C980.17 6.927 969.417 -38.4971 956.364 -80.99C965.446 -81.0176 974.366 -80.8596 983.112 -80.5177C1113.41 -75.425 1179.98 -32.339 1201.57 13.6162C1220.4 53.6722 1215.57 118.31 1161.16 202.01ZM1161.16 337.597C1113.95 388.863 1055.63 438.874 988.295 484.961C980.171 532.681 969.418 578.106 956.365 620.599C965.448 620.627 974.367 620.469 983.113 620.127C1113.41 615.034 1179.98 571.948 1201.58 525.993C1220.4 485.936 1215.57 421.298 1161.16 337.597ZM926.429 703.552C1096.81 710.521 1230.41 662.471 1277.93 561.329C1317.01 478.154 1290.96 373.802 1216.57 269.804C1290.96 165.806 1317.01 61.4547 1277.93 -21.7201C1230.41 -122.862 1096.81 -170.912 926.428 -163.944C860.785 -320.141 760.445 -420 647.999 -420C535.553 -420 435.213 -320.141 369.57 -163.944C199.189 -170.912 65.5918 -122.862 18.07 -21.7201C-21.0099 61.4547 5.04057 165.806 79.4284 269.804C5.03961 373.802 -21.0114 478.154 18.0688 561.329C65.5906 662.471 199.187 710.521 369.569 703.553C435.212 859.752 535.552 959.612 647.999 959.612C760.446 959.612 860.786 859.752 926.429 703.552ZM869.71 615.193C877.047 593.129 883.73 569.993 889.681 545.899C860.717 562.036 830.558 577.409 799.321 591.865C793.117 594.736 786.914 597.551 780.711 600.311C811.273 606.884 841.027 611.831 869.71 615.193ZM648 651.136C713.309 672.16 777.269 686.898 838.024 695.422C834.211 703.603 830.297 711.559 826.289 719.281C766.573 834.325 699.091 875.999 647.999 875.999C596.907 875.999 529.425 834.325 469.71 719.281C465.701 711.559 461.787 703.603 457.974 695.422C518.73 686.898 582.69 672.16 648 651.136ZM515.29 600.311C509.087 597.551 502.883 594.736 496.679 591.865C465.442 577.409 435.281 562.035 406.317 545.898C412.267 569.992 418.951 593.129 426.288 615.194C454.972 611.831 484.727 606.885 515.29 600.311ZM307.702 484.959C315.827 532.68 326.58 578.105 339.633 620.599C330.551 620.627 321.632 620.469 312.887 620.127C182.592 615.034 116.016 571.948 94.424 525.993C75.6034 485.936 80.4336 421.298 134.844 337.597C182.051 388.863 240.365 438.873 307.702 484.959ZM293.73 370.505C252.573 337.695 216.695 303.748 186.773 269.804C216.695 235.859 252.573 201.912 293.73 169.103C291.235 201.975 289.942 235.6 289.942 269.806C289.942 304.011 291.234 337.634 293.73 370.505ZM134.844 202.01C182.051 150.745 240.365 100.734 307.703 54.6483C315.828 6.92807 326.581 -38.4966 339.634 -80.99C330.552 -81.0175 321.634 -80.8595 312.888 -80.5177C182.593 -75.425 116.018 -32.339 94.4253 13.6162C75.6048 53.6722 80.4348 118.31 134.844 202.01ZM426.289 -75.5847C418.952 -53.5204 412.269 -30.3836 406.318 -6.29019C435.281 -22.4272 465.441 -37.8 496.678 -52.2561C502.882 -55.1271 509.086 -57.9425 515.289 -60.7024C484.727 -67.2758 454.973 -72.222 426.289 -75.5847ZM780.711 -60.7024C811.273 -67.2757 841.026 -72.2218 869.709 -75.5844C877.045 -53.5207 883.729 -30.3845 889.68 -6.2916C860.717 -22.4281 830.558 -37.8004 799.322 -52.2561C793.119 -55.1271 786.914 -57.9425 780.711 -60.7024ZM648 -111.528C582.691 -132.552 518.731 -147.289 457.975 -155.813C461.788 -163.993 465.702 -171.948 469.71 -179.669C529.425 -294.713 596.907 -336.387 647.999 -336.387C699.091 -336.387 766.573 -294.713 826.289 -179.669C830.297 -171.948 834.21 -163.993 838.023 -155.813C777.268 -147.289 713.309 -132.551 648 -111.528ZM648 416.127C729.426 416.127 795.435 350.616 795.435 269.804C795.435 188.993 729.426 123.482 648 123.482C566.574 123.482 500.565 188.993 500.565 269.804C500.565 350.616 566.574 416.127 648 416.127Z" fill="#E4E4E4"/>
</svg>
