<svg width="680" height="680" viewBox="0 0 680 680" fill="none" xmlns="http://www.w3.org/2000/svg">
<g filter="url(#filter0_dii_228_409)">
<g clip-path="url(#clip0_228_409)">
<rect x="30" y="30" width="600" height="600" rx="100" fill="#1774FF"/>
<path d="M122.582 427C112.25 427 102.349 425.663 92.8777 422.989C83.4068 420.193 75.7809 416.608 70 412.232L80.1474 389.989C85.6823 393.878 92.2013 397.099 99.7042 399.652C107.33 402.083 115.017 403.298 122.766 403.298C128.67 403.298 133.406 402.751 136.973 401.657C140.663 400.442 143.369 398.801 145.091 396.735C146.813 394.669 147.674 392.298 147.674 389.624C147.674 386.221 146.321 383.547 143.615 381.602C140.909 379.536 137.342 377.895 132.914 376.68C128.486 375.343 123.566 374.127 118.154 373.033C112.865 371.818 107.515 370.359 102.103 368.657C96.8137 366.956 91.9553 364.768 87.5273 362.094C83.0994 359.42 79.4709 355.895 76.6419 351.519C73.936 347.144 72.583 341.552 72.583 334.746C72.583 327.453 74.5509 320.829 78.4869 314.873C82.5459 308.796 88.5728 303.994 96.5677 300.47C104.686 296.823 114.833 295 127.01 295C135.128 295 143.123 295.972 150.995 297.917C158.867 299.74 165.816 302.536 171.843 306.304L162.618 328.729C156.591 325.326 150.564 322.834 144.537 321.254C138.51 319.552 132.606 318.702 126.825 318.702C121.044 318.702 116.309 319.37 112.619 320.707C108.929 322.044 106.285 323.807 104.686 325.994C103.087 328.061 102.287 330.492 102.287 333.287C102.287 336.569 103.64 339.243 106.346 341.309C109.052 343.254 112.619 344.834 117.047 346.05C121.475 347.265 126.333 348.481 131.622 349.696C137.034 350.912 142.385 352.309 147.674 353.889C153.086 355.47 158.006 357.597 162.433 360.271C166.861 362.945 170.428 366.47 173.134 370.845C175.963 375.221 177.378 380.751 177.378 387.436C177.378 394.608 175.348 401.171 171.289 407.127C167.23 413.083 161.142 417.884 153.024 421.53C145.029 425.177 134.882 427 122.582 427Z" fill="#F4F4F4"/>
<path d="M259.608 427C249.645 427 240.358 425.42 231.748 422.26C223.262 418.978 215.882 414.359 209.609 408.403C203.336 402.448 198.416 395.459 194.849 387.436C191.405 379.414 189.683 370.602 189.683 361C189.683 351.398 191.405 342.586 194.849 334.564C198.416 326.541 203.336 319.552 209.609 313.597C216.005 307.641 223.446 303.083 231.933 299.923C240.42 296.641 249.706 295 259.792 295C270.985 295 281.071 296.945 290.05 300.834C299.152 304.602 306.778 310.193 312.928 317.608L293.74 335.11C289.312 330.127 284.392 326.42 278.98 323.989C273.568 321.436 267.664 320.16 261.268 320.16C255.241 320.16 249.706 321.133 244.663 323.077C239.62 325.022 235.254 327.818 231.564 331.464C227.874 335.11 224.984 339.425 222.893 344.409C220.925 349.392 219.941 354.923 219.941 361C219.941 367.077 220.925 372.608 222.893 377.591C224.984 382.575 227.874 386.889 231.564 390.536C235.254 394.182 239.62 396.978 244.663 398.923C249.706 400.867 255.241 401.84 261.268 401.84C267.664 401.84 273.568 400.624 278.98 398.193C284.392 395.641 289.312 391.812 293.74 386.707L312.928 404.21C306.778 411.624 299.152 417.276 290.05 421.166C281.071 425.055 270.924 427 259.608 427Z" fill="#F4F4F4"/>
<path d="M333.111 424.812V297.188H363V424.812H333.111Z" fill="#F4F4F4"/>
<path d="M131.023 580C121.189 580 112.022 578.408 103.523 575.224C95.1458 571.917 87.861 567.263 81.6689 561.262C75.4769 555.261 70.6203 548.22 67.0994 540.137C63.6998 532.054 62 523.175 62 513.5C62 503.825 63.6998 494.946 67.0994 486.863C70.6203 478.78 75.4769 471.738 81.6689 465.738C87.9824 459.737 95.3279 455.144 103.705 451.96C112.083 448.653 121.25 447 131.206 447C142.254 447 152.21 448.959 161.073 452.878C170.058 456.675 177.585 462.308 183.656 469.779L164.716 487.414C160.345 482.393 155.488 478.658 150.146 476.209C144.804 473.637 138.976 472.351 132.662 472.351C126.713 472.351 121.25 473.331 116.272 475.29C111.294 477.25 106.984 480.066 103.341 483.74C99.6988 487.414 96.8456 491.762 94.7816 496.783C92.839 501.804 91.8677 507.377 91.8677 513.5C91.8677 519.623 92.839 525.196 94.7816 530.217C96.8456 535.238 99.6988 539.586 103.341 543.26C106.984 546.934 111.294 549.75 116.272 551.71C121.25 553.669 126.713 554.649 132.662 554.649C138.976 554.649 144.804 553.424 150.146 550.975C155.488 548.403 160.345 544.546 164.716 539.402L183.656 557.037C177.585 564.508 170.058 570.203 161.073 574.122C152.21 578.041 142.193 580 131.023 580Z" fill="#F4F4F4"/>
<path d="M262.833 580C252.755 580 243.407 578.347 234.786 575.04C226.287 571.733 218.881 567.08 212.568 561.079C206.375 555.078 201.519 548.036 197.998 539.953C194.598 531.87 192.899 523.052 192.899 513.5C192.899 503.948 194.598 495.13 197.998 487.047C201.519 478.964 206.436 471.922 212.75 465.921C219.063 459.92 226.469 455.267 234.968 451.96C243.467 448.653 252.695 447 262.65 447C272.728 447 281.955 448.653 290.333 451.96C298.832 455.267 306.177 459.92 312.369 465.921C318.683 471.922 323.6 478.964 327.121 487.047C330.642 495.007 332.402 503.825 332.402 513.5C332.402 523.052 330.642 531.931 327.121 540.137C323.6 548.22 318.683 555.261 312.369 561.262C306.177 567.141 298.832 571.733 290.333 575.04C281.955 578.347 272.789 580 262.833 580ZM262.65 554.649C268.357 554.649 273.578 553.669 278.313 551.71C283.169 549.75 287.419 546.934 291.061 543.26C294.704 539.586 297.496 535.238 299.439 530.217C301.503 525.196 302.535 519.623 302.535 513.5C302.535 507.377 301.503 501.804 299.439 496.783C297.496 491.762 294.704 487.414 291.061 483.74C287.54 480.066 283.351 477.25 278.495 475.29C273.638 473.331 268.357 472.351 262.65 472.351C256.944 472.351 251.663 473.331 246.806 475.29C242.071 477.25 237.882 480.066 234.24 483.74C230.597 487.414 227.744 491.762 225.68 496.783C223.738 501.804 222.766 507.377 222.766 513.5C222.766 519.501 223.738 525.073 225.68 530.217C227.744 535.238 230.537 539.586 234.058 543.26C237.7 546.934 241.95 549.75 246.806 551.71C251.663 553.669 256.944 554.649 262.65 554.649Z" fill="#F4F4F4"/>
<path d="M354.575 577.796V449.204H378.98L454.195 541.79H442.357V449.204H471.496V577.796H447.274L371.877 485.21H383.715V577.796H354.575Z" fill="#F4F4F4"/>
<path d="M528.977 507.07H590.169V530.952H528.977V507.07ZM531.162 577.796H501.659V449.204H598V473.086H531.162V577.796Z" fill="#F4F4F4"/>
<path fill-rule="evenodd" clip-rule="evenodd" d="M694.208 83.0065C694.208 107.239 692.561 130.554 689.528 152.579C670.697 164.616 650.101 175.95 627.972 186.191C611.676 193.733 595.456 200.262 579.493 205.807C563.529 200.262 547.309 193.733 531.013 186.191C508.883 175.95 488.286 164.615 469.454 152.577C466.42 130.552 464.774 107.238 464.774 83.0065C464.774 58.7748 466.42 35.4598 469.454 13.4351C488.285 1.39822 508.881 -9.93607 531.009 -20.177C547.307 -27.7193 563.528 -34.2484 579.493 -39.794C595.457 -34.2484 611.678 -27.7193 627.976 -20.177C650.103 -9.93677 670.697 1.39668 689.527 13.4327C692.561 35.4581 694.208 58.774 694.208 83.0065ZM727.918 40.8133C728.964 54.5862 729.505 68.6745 729.505 83.0065C729.505 97.338 728.964 111.426 727.918 125.198C745.162 111.451 760.195 97.2276 772.732 83.0052C760.195 68.7832 745.162 54.5599 727.918 40.8133ZM794.488 54.6018C774.709 33.1228 750.277 12.1698 722.064 -7.13905C718.66 -27.1313 714.155 -46.1619 708.686 -63.9645C712.491 -63.976 716.228 -63.9098 719.892 -63.7666C774.482 -61.6329 802.375 -43.5813 811.421 -24.3275C819.306 -7.54559 817.283 19.5348 794.488 54.6018ZM794.489 111.408C774.71 132.888 750.277 153.841 722.064 173.151C718.66 193.144 714.155 212.175 708.686 229.979C712.492 229.99 716.23 229.924 719.896 229.781C774.485 227.647 802.378 209.596 811.425 190.342C819.31 173.559 817.286 146.477 794.489 111.408ZM696.144 264.733C767.53 267.654 823.504 247.522 843.415 205.147C859.789 170.298 848.873 126.577 817.706 83.0048C848.871 39.4336 859.785 -4.28525 843.412 -39.1323C823.501 -81.5074 767.529 -101.639 696.144 -98.7194C668.642 -164.162 626.602 -206 579.491 -206C532.379 -206 490.34 -164.162 462.838 -98.7195C391.455 -101.638 335.483 -81.5068 315.574 -39.1323C299.201 -4.28525 310.114 39.4336 341.279 83.0048C310.112 126.577 299.197 170.298 315.57 205.147C335.48 247.522 391.453 267.653 462.838 264.734C490.341 330.175 532.38 372.013 579.491 372.013C626.602 372.013 668.641 330.175 696.144 264.733ZM672.38 227.714C675.454 218.47 678.254 208.776 680.747 198.682C668.613 205.443 655.977 211.884 642.89 217.94C640.291 219.143 637.692 220.322 635.093 221.478C647.898 224.232 660.363 226.305 672.38 227.714ZM579.493 242.772C606.854 251.581 633.651 257.755 659.105 261.327C657.507 264.754 655.868 268.087 654.188 271.322C629.169 319.522 600.897 336.982 579.491 336.982C558.085 336.982 529.812 319.522 504.793 271.322C503.114 268.087 501.474 264.754 499.877 261.327C525.332 257.756 552.13 251.581 579.493 242.772ZM523.892 221.478C521.293 220.322 518.694 219.143 516.095 217.94C503.007 211.883 490.37 205.442 478.234 198.68C480.727 208.775 483.528 218.469 486.602 227.714C498.62 226.305 511.086 224.233 523.892 221.478ZM436.917 173.148C440.321 193.142 444.827 212.175 450.296 229.979C446.491 229.99 442.754 229.924 439.09 229.781C384.5 227.647 356.607 209.596 347.561 190.342C339.675 173.559 341.699 146.477 364.496 111.408C384.274 132.887 408.705 153.84 436.917 173.148ZM431.063 125.195C413.821 111.449 398.789 97.2266 386.253 83.0052C398.79 68.7842 413.821 54.562 431.064 40.8163C430.018 54.5882 429.477 68.6755 429.477 83.0065C429.477 97.3369 430.018 111.424 431.063 125.195ZM364.497 54.6018C384.275 33.1238 408.706 12.1717 436.918 -7.13634C440.321 -27.1296 444.827 -46.1611 450.295 -63.9645C446.492 -63.976 442.756 -63.9098 439.093 -63.7666C384.504 -61.6329 356.61 -43.5813 347.564 -24.3275C339.679 -7.54559 341.702 19.5348 364.497 54.6018ZM486.601 -61.7002C483.527 -52.4558 480.727 -42.7621 478.234 -32.6675C490.369 -39.4285 503.005 -45.8692 516.092 -51.9259C518.692 -53.1289 521.291 -54.3086 523.89 -55.465C511.085 -58.2191 498.619 -60.2914 486.601 -61.7002ZM635.095 -55.465C647.899 -58.2188 660.364 -60.291 672.381 -61.6998C675.454 -52.4562 678.254 -42.7634 680.747 -32.6698C668.614 -39.4299 655.979 -45.8699 642.893 -51.9259C640.294 -53.1289 637.694 -54.3086 635.095 -55.465ZM579.493 -76.7593C552.129 -85.5677 525.332 -91.7423 499.877 -95.3133C501.474 -98.7407 503.114 -102.074 504.793 -105.309C529.812 -153.509 558.085 -170.969 579.491 -170.969C600.897 -170.969 629.169 -153.509 654.188 -105.309C655.868 -102.074 657.508 -98.7404 659.105 -95.3129C633.651 -91.7417 606.855 -85.5673 579.493 -76.7593ZM579.492 144.311C613.607 144.311 641.263 116.864 641.263 83.0069C641.263 49.1494 613.607 21.7025 579.492 21.7025C545.377 21.7025 517.722 49.1494 517.722 83.0069C517.722 116.864 545.377 144.311 579.492 144.311Z" fill="#F4F4F4"/>
</g>
</g>
<defs>
<filter id="filter0_dii_228_409" x="0" y="0" width="680" height="680" filterUnits="userSpaceOnUse" color-interpolation-filters="sRGB">
<feFlood flood-opacity="0" result="BackgroundImageFix"/>
<feColorMatrix in="SourceAlpha" type="matrix" values="0 0 0 0 0 0 0 0 0 0 0 0 0 0 0 0 0 0 127 0" result="hardAlpha"/>
<feOffset dx="10" dy="10"/>
<feGaussianBlur stdDeviation="20"/>
<feComposite in2="hardAlpha" operator="out"/>
<feColorMatrix type="matrix" values="0 0 0 0 0 0 0 0 0 0 0 0 0 0 0 0 0 0 0.1 0"/>
<feBlend mode="normal" in2="BackgroundImageFix" result="effect1_dropShadow_228_409"/>
<feBlend mode="normal" in="SourceGraphic" in2="effect1_dropShadow_228_409" result="shape"/>
<feColorMatrix in="SourceAlpha" type="matrix" values="0 0 0 0 0 0 0 0 0 0 0 0 0 0 0 0 0 0 127 0" result="hardAlpha"/>
<feOffset dx="20" dy="20"/>
<feGaussianBlur stdDeviation="25"/>
<feComposite in2="hardAlpha" operator="arithmetic" k2="-1" k3="1"/>
<feColorMatrix type="matrix" values="0 0 0 0 1 0 0 0 0 1 0 0 0 0 1 0 0 0 0.25 0"/>
<feBlend mode="normal" in2="shape" result="effect2_innerShadow_228_409"/>
<feColorMatrix in="SourceAlpha" type="matrix" values="0 0 0 0 0 0 0 0 0 0 0 0 0 0 0 0 0 0 127 0" result="hardAlpha"/>
<feOffset dx="-20" dy="-20"/>
<feGaussianBlur stdDeviation="30"/>
<feComposite in2="hardAlpha" operator="arithmetic" k2="-1" k3="1"/>
<feColorMatrix type="matrix" values="0 0 0 0 0 0 0 0 0 0.0339167 0 0 0 0 0.154167 0 0 0 0.1 0"/>
<feBlend mode="normal" in2="effect2_innerShadow_228_409" result="effect3_innerShadow_228_409"/>
</filter>
<clipPath id="clip0_228_409">
<rect x="30" y="30" width="600" height="600" rx="100" fill="white"/>
</clipPath>
</defs>
</svg>
