<svg width="110" height="110" viewBox="0 0 110 110" fill="none" xmlns="http://www.w3.org/2000/svg">
<rect width="110" height="110" fill="#F5F5F5"/>
<rect x="-84.5" y="-62.5" width="279" height="701" rx="4.5" stroke="#9747FF" stroke-dasharray="10 5"/>
<g filter="url(#filter0_d_0_1)">
<rect x="-65" y="-43" width="240" height="200" rx="10" fill="white" shape-rendering="crispEdges"/>
<rect x="-64.5" y="-42.5" width="239" height="199" rx="9.5" stroke="#6C757D" shape-rendering="crispEdges"/>
<g clip-path="url(#clip0_0_1)">
<path d="M61.1877 50.6687C61.944 47.85 61.119 45.2375 59.6752 42.8312C59.194 41.9375 58.3002 41.3187 57.4065 40.8375C54.5877 39.325 52.319 37.125 50.6002 34.4437C48.1252 30.5937 47.5752 26.2625 48.0565 21.7937C48.744 15.95 50.8752 10.6562 53.7627 5.56874C54.3815 4.33124 55.1377 3.16249 55.8252 1.99374C56.169 1.51249 56.444 1.51249 56.994 1.78749C60.5002 3.84999 63.7315 6.32499 66.8252 8.93749C69.644 11.3437 72.3252 13.9562 74.6627 16.9125C75.144 17.5312 75.694 17.7375 76.519 17.6687C80.644 17.2562 84.8377 17.1875 88.894 18.0812C92.2627 18.8375 95.4252 20.2125 97.969 22.6187C100.925 25.5062 102.369 29.15 103.194 33.1375C104.019 37.3312 104.088 41.6625 105.119 45.8562C105.256 46.4062 105.394 47.0937 105.531 47.6437C105.325 47.7125 105.119 47.7812 104.981 47.85C103.331 48.8812 100.375 48.7437 98.7252 47.7125C96.3877 46.2 93.9127 45.4437 91.094 46.5437C89.719 47.0937 88.344 47.575 86.969 48.125C84.9065 48.8812 82.7065 48.8125 80.5065 48.675C79.1315 48.6062 77.7565 48.4687 76.5877 47.9187C74.1127 46.75 71.6377 46.475 68.9565 46.75C67.719 46.8875 66.5502 47.2312 65.3815 47.9187C63.9377 49.0187 62.6315 49.9812 61.1877 50.6687Z" fill="#F77143"/>
<path d="M60.9811 49.775C62.4249 49.0875 63.7311 48.0563 65.1749 47.3C66.3436 46.6813 67.5124 46.3375 68.7499 46.1313C71.3624 45.8563 73.9061 46.1313 76.3811 47.3C77.6186 47.85 78.9249 47.9188 80.2999 48.0563C82.4999 48.1938 84.6999 48.2625 86.7624 47.5063C88.1374 47.025 89.5124 46.5438 90.8874 45.925C93.6374 44.6875 96.1124 45.5125 98.5186 47.0938C100.169 48.125 103.194 48.2625 104.775 47.2313C104.912 47.0938 105.187 47.0938 105.325 47.025C105.737 48.4688 106.287 49.775 107.044 51.0813C102.919 52.525 98.9311 54.175 95.4249 56.65C92.8124 58.4375 90.1311 59.7438 87.1061 60.7063C82.0186 62.3563 77.2061 61.3938 72.8749 58.3C71.4311 57.3375 70.2624 56.0313 68.6811 55.275C66.1374 53.9 63.5249 52.8 60.6374 52.4563C60.0186 52.3875 60.0874 52.1125 60.2249 51.7C60.4999 50.9438 60.7061 50.3938 60.9811 49.775Z" fill="#FBD8B5"/>
<path d="M58.0249 80.575C57.8187 82.5 56.5812 83.875 55.4812 85.3875C55.1374 85.8 54.7249 86.1438 54.3812 86.4875C50.9437 89.5813 50.2562 93.6375 50.8062 97.9688C50.9437 99.1375 51.2874 100.375 51.7687 101.475C51.9062 101.75 51.4249 102.025 51.0812 102.3C50.7374 102.575 50.4624 103.812 50.0499 103.606C49.0874 103.125 47.7124 101.337 47.4374 100.306C46.8187 97.8312 46.5437 95.2875 46.4749 92.8125C46.1312 84.4937 46.4062 75.9688 47.9187 67.7188C48.3999 65.1063 49.2249 62.7 50.4624 60.3625C50.6687 60.0188 50.9437 59.675 51.2187 59.3313C53.8999 56.1 57.9562 53.9 62.2187 53.625C64.6249 53.4188 66.8249 54.3812 68.6812 56.1C68.6812 56.2375 68.6812 56.3062 68.7499 56.4437C71.7062 63.5937 73.0124 71.0188 73.5624 78.5813C72.8749 79.2 72.9437 80.1625 72.6687 80.9875C71.2249 85.4563 70.2624 89.9937 70.0562 94.6687C69.8499 98.5187 70.3312 102.231 71.5687 105.875C72.3249 108.213 72.2562 108.35 69.7124 108.144C69.3687 108.144 69.0249 108.075 68.6812 108.006C67.7874 107.869 66.5499 107.319 66.5499 106.288C66.5499 103.263 66.5499 100.169 66.2749 97.1438C65.9999 93.8438 65.1062 90.6125 64.4187 87.3812C63.6624 83.1187 63.2499 78.7875 63.2499 74.4563L62.6999 77.8938L58.9187 77.6875L58.0249 80.575Z" fill="#F77143"/>
<path d="M37.6062 95.0812C34.3749 94.9437 31.3499 94.05 28.6687 92.3312C27.5687 91.6437 26.4687 90.0625 26.0562 88.6875C26.6062 88.7562 27.0187 88.3437 27.5687 88.0687C31.1437 86.0062 33.6874 82.9125 36.1624 79.75C38.5687 76.725 40.9061 73.6312 43.3811 70.6062C44.4124 69.2312 45.5124 67.9937 46.5436 66.6875C46.9562 66.2062 47.3686 65.725 47.9186 65.2437C46.6124 71.7062 46.3374 78.3062 43.9312 84.425C42.6937 87.45 41.3187 90.5437 38.9812 92.8812C38.4312 93.5 38.1562 94.7375 37.6062 95.0812Z" fill="#D64D2D"/>
<path d="M24.4061 80.6437C26.3311 78.9937 28.3249 77.4812 29.9061 75.5562C31.3499 73.7 32.7249 71.8437 33.9624 69.7812C35.6811 66.6875 37.6061 63.7312 40.0811 61.1875C42.2811 58.9187 44.7561 57.2687 47.5061 55.7562C50.0499 54.3812 53.4186 54.6562 56.5124 54.5187C52.1811 57.5437 49.2249 60.775 48.0561 65.45C47.5061 65.7937 47.1624 66.275 46.6811 66.8937C45.5811 68.2 44.5499 69.4375 43.4499 70.8125C41.0436 73.9062 38.6374 76.9312 36.1624 80.025C33.6874 83.1875 31.0749 86.2812 27.5686 88.3437C27.0874 88.6187 26.7436 88.9625 26.0561 88.9625C25.6436 88.55 25.4374 88.0687 25.2311 87.45C24.2686 85.1812 24.3374 82.9125 24.4061 80.6437Z" fill="#E05934"/>
<path d="M85.5935 78.2375C85.181 80.7812 85.6623 84.2875 85.2498 86.7625C84.4248 91.2312 83.531 94.8062 83.0498 99.3437C82.7748 102.231 83.806 104.569 85.2498 106.975C85.5935 107.525 84.5623 108.075 84.081 108.831C83.6685 109.519 83.3248 109.656 82.7748 108.9C81.6748 107.662 80.9873 106.15 80.5748 104.569C78.7185 98.175 77.9623 91.7125 78.0998 85.1125C78.0998 84.2875 78.306 83.875 79.131 83.4625C81.6748 82.225 83.7373 80.4375 85.5935 78.2375Z" fill="#E05934"/>
<path d="M94.3249 18.5625C94.3249 18.6313 94.3249 18.7 94.2562 18.9063C91.7124 17.8063 89.0312 17.05 86.2124 16.5688C90.1999 10.5188 94.8061 5.29376 101.337 1.51251C99.7561 9.41876 100.512 16.9813 101.131 24.8188C100.719 24.2 100.444 23.8563 100.169 23.5813L94.3249 18.5625Z" fill="#E05934"/>
<path d="M53.3501 20.075C53.4876 15.95 54.5188 11.6188 56.5126 7.56251C57.1313 6.32501 57.4064 6.25626 58.6439 6.87501C61.6001 8.31876 64.0751 10.3813 66.1376 12.8563C69.5063 16.9125 69.9876 20.4875 67.4438 24.9563C65.7251 27.9813 63.9376 30.8688 61.7376 33.55C61.6689 33.6875 61.5314 33.7563 61.4626 33.8938C59.6751 35.8188 59.2626 35.8188 57.6813 33.6875C55.6876 31.0063 54.1751 28.05 53.6251 24.6813C53.4876 23.3063 53.3501 21.8625 53.3501 20.075ZM55.2064 19.3875C55.2064 24.8875 56.3063 28.8063 59.0563 32.2438C59.5376 32.8625 59.8126 32.9313 60.3626 32.3125C62.6314 29.9063 64.2126 26.95 65.8626 24.1313C66.3439 23.3063 66.7563 22.4125 67.0313 21.5188C67.9251 18.4938 66.4813 16.0875 64.6938 13.8875C63.1126 11.8938 60.8438 10.5875 58.7813 9.00626C58.1626 8.52501 57.8876 8.59376 57.6126 9.35001C56.1689 12.9938 55.1376 16.7063 55.2064 19.3875Z" fill="#474C55"/>
<path d="M83.2562 44.2063C81.1937 44.0688 79.0624 43.8625 77.1374 43.0375C74.3187 41.8 71.5687 40.5625 69.2999 38.5C68.5437 37.8125 67.8562 36.9875 67.1687 36.2313C66.7562 35.8188 66.6874 35.2688 67.1687 34.8563C67.6499 34.375 68.1312 34.65 68.5437 35.0625C70.5374 36.9875 72.5312 38.9125 75.0749 40.0813C77.6874 41.3188 80.4374 42.075 83.3937 42.2125C84.2187 42.2125 84.6312 42.625 84.5624 43.3813C84.4937 44.0688 83.9437 44.2063 83.2562 44.2063Z" fill="#43484F"/>
<path d="M100.856 37.3312C100.719 38.775 100.031 39.875 99.0687 40.7687C97.4187 42.2812 95.4937 43.45 93.2937 44C92.675 44.1375 92.0562 44.2062 91.85 43.45C91.6437 42.6937 91.9875 42.2125 92.7437 42.075C93.8437 41.8 94.875 41.4562 95.9062 40.9062C97.35 40.0812 98.725 39.1875 99.0687 37.3312C99.1375 36.7812 99.4812 36.4375 100.1 36.5062C100.581 36.5062 100.787 36.85 100.856 37.3312Z" fill="#43484F"/>
<path d="M94.6688 53.2812C95.8375 53.4187 96.6625 53.0062 97.075 51.9062C97.2813 51.3562 97.7625 50.9437 98.3813 51.2875C99 51.6312 99 52.1812 98.725 52.7312C97.8313 54.6562 95.7688 55.4812 93.5688 54.7937C93.0188 54.5875 92.675 54.5187 92.125 54.9312C91.1625 55.6187 89.925 55.6875 88.7563 55.55C87.0375 55.275 85.4563 54.5875 84.0125 53.6937C83.325 53.2812 83.2563 52.7312 83.7375 52.1125C84.2188 51.4937 84.5625 51.8375 85.0438 52.1812C86.5563 53.1437 88.2063 53.9687 90.0625 53.7625C90.4063 53.7625 90.8188 53.7625 90.9563 53.4875C91.1625 53.1437 90.6813 53.0062 90.475 52.8C89.8563 52.1125 89.375 51.3562 88.9625 50.6C88.4813 49.6375 88.6875 48.95 89.65 48.4C90.475 47.9875 91.4375 47.7125 92.4 47.6437C94.5313 47.5062 95.8375 49.0187 95.425 51.15C95.3563 51.9062 95.15 52.6625 94.6688 53.2812ZM93.7063 50.7375C93.7063 50.1875 93.7063 49.6375 93.0875 49.5687C92.3313 49.4312 91.4375 49.4312 90.8875 50.05C90.6125 50.325 91.3688 50.7375 91.6438 51.15C91.7813 51.3562 91.9875 51.4937 92.1938 51.7C92.95 52.4562 93.3625 52.3187 93.6375 51.2875C93.7063 51.0812 93.7063 50.875 93.7063 50.7375Z" fill="#43484F"/>
<path d="M73.0126 78.5813C72.5313 71.225 71.2251 64.0063 68.2001 57.2C68.1313 57.1313 68.2001 56.9938 68.1313 56.8563C68.8876 56.9938 69.4376 57.475 70.0563 57.8875C71.8438 59.0563 73.4938 60.4313 75.3501 61.4625C77.4126 62.6313 79.6814 63.0438 82.0189 63.1125C84.5626 63.1125 87.0376 62.5625 89.3751 61.6C89.6501 61.4625 89.9251 61.2563 90.2689 61.1188C90.4751 61.6 90.2001 62.0813 90.1314 62.5625C89.0314 67.4438 87.5189 72.1875 84.8376 76.45C83.5314 78.5125 82.0876 80.4375 80.0251 81.7438C77.9626 83.05 75.7626 83.6 73.2876 83.3938C73.6313 82.1563 74.0438 80.9875 74.3188 79.8188C74.5251 78.7875 74.1126 78.4438 73.0126 78.5813Z" fill="#FBD8B5"/>
<path d="M29.0123 91.85C31.7623 93.6375 34.8561 94.6 38.0873 94.6688C34.1686 98.175 29.4936 99.1375 24.3373 98.725C19.8686 98.3125 15.7436 96.9375 11.8248 94.6688C9.48733 93.2938 7.01233 91.85 5.01858 89.925C4.05608 89.0313 3.29983 88.0688 2.47483 87.0375C1.92483 86.4188 1.99358 86.0063 2.88733 85.9375C5.08733 85.8 7.28733 85.525 9.48733 85.3875C14.8498 84.975 19.9373 83.2563 24.6123 80.5063C24.5436 82.775 24.4748 85.1125 25.5061 87.3125C25.4373 87.3813 27.0186 90.75 29.0123 91.85Z" fill="#FBD8B5"/>
<path d="M98.0376 7.70001C98.7251 7.21876 98.7251 7.70001 98.7251 8.18126C99.0001 11.6875 99.2751 15.1938 99.5501 18.7C99.6188 20.075 99.6876 21.45 99.7563 22.825C98.8626 22 98.0376 21.1063 97.0063 20.35C96.5251 20.0063 96.5251 19.4563 96.3876 18.975C95.2876 15.4 95.7688 12.1 97.9688 9.07501C98.3126 8.59376 98.3126 8.11251 98.0376 7.70001Z" fill="#FBD8B5"/>
<path d="M55.2065 19.3875C55.2065 16.6375 56.2377 12.9937 57.6815 9.41875C57.9565 8.6625 58.3002 8.59375 58.8502 9.075C60.844 10.5875 63.1127 11.8937 64.7627 13.9562C66.5502 16.1562 67.994 18.5625 67.1002 21.5875C66.8252 22.4812 66.4127 23.375 65.9315 24.2C64.2815 27.0187 62.7002 29.975 60.4315 32.3812C59.8127 33 59.6065 32.9312 59.1252 32.3125C56.3065 28.8062 55.1377 24.8875 55.2065 19.3875Z" fill="#FBD8B5"/>
<path d="M93.9812 50.9438C93.9812 51.0813 93.9812 51.3563 93.9125 51.4938C93.5687 52.7313 93.0187 52.8 92.1937 51.975C91.9187 51.7 91.7812 51.5625 91.5062 51.2875C91.1625 50.875 90.2687 50.325 90.6125 49.9813C91.3 49.2938 92.2625 49.2938 93.225 49.4313C93.9812 49.6375 93.9812 50.325 93.9812 50.9438Z" fill="#43484F"/>
<path d="M109.106 52.4563C108.625 52.7313 108.075 52.8 107.525 52.9375C104.362 53.5563 101.406 54.725 98.6561 56.375C96.7999 57.5438 94.9436 58.7125 93.0186 59.7438C92.5374 60.0188 92.3999 60.3625 92.3311 60.775C91.5061 65.3813 90.0624 69.7813 88.2749 74.1125C87.5186 75.9688 87.4499 78.1688 87.0374 80.1625C86.0061 86.075 84.9749 91.9188 83.9436 97.8313C83.5311 100.306 83.9436 102.575 85.1811 104.706C85.5936 105.463 86.1436 106.219 86.0061 107.181C85.8686 108.625 84.9061 109.725 83.7374 109.931C82.4999 110.138 81.1249 109.244 80.4374 107.8C78.5811 104.225 77.8249 100.306 77.2749 96.3875C76.7249 92.95 76.5186 89.5125 76.6561 86.075C76.6561 85.3187 76.4499 85.25 75.8311 85.3875C75.2124 85.4563 74.5249 85.5938 73.9749 85.4563C72.9436 85.25 72.6686 85.7313 72.4624 86.625C71.0874 92.8125 70.7436 99 73.0124 105.119C73.1499 105.531 73.2186 105.944 73.2874 106.356C73.4936 108.419 72.8061 109.244 70.7436 109.313C69.5749 109.313 68.4061 109.244 67.3061 108.9C66.0686 108.556 65.4499 107.731 65.2436 106.494C65.1749 105.944 65.0374 105.463 65.1061 104.913C65.3811 98.9313 64.4874 93.0875 63.1124 87.2438C62.5624 84.7688 62.3561 82.225 62.1499 79.6813C62.1499 79.4063 62.2874 78.9938 61.8061 78.925C61.1186 78.8563 60.4311 78.5125 59.7436 78.65C59.6749 78.65 59.6061 79.0625 59.6061 79.3375C59.2624 82.225 58.1624 84.8375 55.9624 86.8313C51.6999 90.6125 51.2874 95.15 53.0749 100.169C53.6249 101.75 53.3499 102.85 52.1811 103.606C51.0124 104.363 49.6374 103.95 48.3999 102.919C46.6811 101.338 46.4061 99.275 46.1311 97.2125C45.5811 93.775 45.4436 90.3375 45.4436 86.9C45.4436 86.35 45.4436 85.8688 45.4436 85.1125C44.7561 86.5563 44.2061 87.725 43.5874 88.9625C41.7999 92.675 39.2561 95.7688 35.6124 97.9C30.5249 100.925 25.2311 100.788 19.8686 99.4125C15.8124 98.3813 12.0311 96.525 8.52488 94.1875C6.87488 93.0875 5.43113 91.7125 3.84988 90.475C2.81863 89.5813 2.06238 88.4813 1.44363 87.3125C0.618627 85.8 1.37488 84.425 3.02488 84.15C5.91238 83.6 8.86863 83.6688 11.7561 83.325C15.1249 82.9125 18.4249 82.225 21.3811 80.575C25.6436 78.1 28.9436 74.7313 31.4874 70.4688C33.2749 67.5125 34.9249 64.5563 37.1936 61.9438C38.8436 60.0875 40.6999 58.5063 42.6936 57.0625C47.1624 53.7625 52.1124 52.8 57.4749 53.4875C57.9561 53.5563 58.0936 53.5563 58.2311 53.0063C58.3686 52.3875 58.7811 51.8375 59.1249 51.2875C61.1186 47.9875 60.1561 45.1688 58.0936 42.625C57.6811 42.1438 56.9936 41.9375 56.3749 41.5938C49.3624 37.2625 46.5436 30.8688 47.0936 22.825C47.5061 16.8438 49.6374 11.4125 52.4561 6.18751C53.4874 4.26251 54.7936 2.47501 55.8936 0.550005C56.3061 -0.137495 57.0624 -0.206245 57.8186 0.481255C58.5061 1.10001 59.3311 1.58126 60.1561 2.06251C63.6624 4.19376 66.8936 6.80625 69.9186 9.55626C71.9811 11.4813 74.1124 13.3375 75.7624 15.675C76.1061 16.0875 76.4499 16.2938 76.9999 16.225C79.4061 16.0875 81.7436 15.8813 84.1499 16.1563C84.6311 16.225 84.9061 16.0875 85.1811 15.675C87.4499 11.9625 90.2686 8.73126 93.3624 5.70626C95.4936 3.57501 97.9686 1.99376 100.581 0.618755C101.681 0.0687552 102.919 1.10001 102.781 2.40626C102.644 3.64376 102.3 4.88126 102.162 6.11875C101.75 10.1063 101.956 14.0938 102.094 18.0125C102.3 24.2688 103.812 30.3188 104.844 36.4375C105.394 39.7375 105.531 43.1063 106.425 46.3375C106.769 47.5063 107.112 48.675 107.731 49.775C108.075 50.325 108.419 51.0125 109.175 51.2188C109.106 51.6313 109.106 52.0438 109.106 52.4563ZM98.0374 7.70001C98.3124 8.18126 98.3124 8.59375 97.9686 9.07501C95.7686 12.1 95.2874 15.4 96.3874 18.975C96.5249 19.4563 96.5249 20.0063 97.0061 20.35C98.0374 21.0375 98.8624 21.9313 99.7561 22.825C99.9624 23.1688 100.237 23.4438 100.65 23.9938C100.1 16.7063 99.4124 9.69376 100.856 2.40626C94.8061 5.91251 90.5436 10.725 86.8311 16.3625C89.4436 16.775 91.9186 17.3938 94.2561 18.4938C94.2561 18.2875 94.3249 18.2188 94.3249 18.15C94.3249 17.875 94.2561 17.6688 94.1874 17.3938C93.7749 14.025 94.3249 10.9313 96.4561 8.1125C96.8686 7.49376 97.3499 7.28751 98.0374 7.70001ZM37.2624 94.3938C37.8124 94.05 38.0874 93.4313 38.4999 93.0188C40.8374 90.75 42.2124 87.7938 43.3124 84.8375C45.6499 78.8563 45.9249 72.4625 47.1624 66.2063C48.2624 61.6688 50.4624 57.8188 54.6561 55C51.6311 55.2063 49.0874 55.55 46.6124 56.8563C43.9999 58.3 41.5249 59.8813 39.4624 62.0813C37.0561 64.5563 35.2686 67.4438 33.5499 70.4C32.4499 72.3938 31.0749 74.1813 29.6311 75.9688C28.1186 77.8938 26.1936 79.3375 24.3374 80.85C19.8686 83.5312 15.1249 85.1125 9.89988 85.4563C7.76863 85.5938 5.70613 85.8688 3.57488 86.0063C2.68113 86.075 2.61238 86.4188 3.16238 87.0375C3.98738 87.9313 4.74363 88.9625 5.56863 89.7875C7.49363 91.6438 9.83113 93.0188 12.0999 94.325C15.7436 96.4563 19.7999 97.7625 24.0624 98.175C29.0124 98.725 33.4811 97.7625 37.2624 94.3938ZM54.5874 75.075C54.2436 74.5938 53.9686 74.1813 53.6249 73.7C53.3499 73.2188 53.4874 72.8063 53.8999 72.5312C54.3811 72.1875 54.7936 72.3938 55.0686 72.7375C55.2061 72.9438 55.3436 73.15 55.4811 73.3563C56.9249 75.075 58.4374 76.725 60.8436 77C61.5311 77.4125 61.8061 77.2063 61.7374 76.3813C61.6686 75.625 61.7374 74.9375 61.6686 74.1813C61.6686 73.5625 61.8749 73.0813 62.5624 72.9438C63.5249 73.0813 63.5249 73.7688 63.5249 74.525C63.5249 78.7875 63.9374 82.9813 64.6936 87.1063C65.2436 90.2688 66.1374 93.3625 66.4811 96.5938C66.7561 99.55 66.7561 102.506 66.7561 105.463C66.7561 106.494 67.1686 106.975 68.1311 107.113C68.4749 107.181 68.8186 107.25 69.1624 107.25C71.6374 107.456 71.7061 107.319 70.9499 105.05C69.7811 101.544 69.2999 97.9 69.5061 94.1875C69.7811 89.65 70.6749 85.25 72.0499 80.9188C72.3249 80.1625 72.2561 79.2 72.9436 78.5813C74.1124 78.4438 74.4561 78.7875 74.1811 79.9563C73.9061 81.125 73.4936 82.2938 73.1499 83.5312C75.6249 83.7375 77.8936 83.1188 79.8874 81.8813C81.9499 80.575 83.4624 78.5813 84.6999 76.5875C87.3811 72.325 88.8936 67.5813 89.9936 62.7C90.1311 62.2188 90.3374 61.8063 90.1311 61.2563C89.8561 61.3938 89.5811 61.6 89.2374 61.7375C86.8999 62.7 84.4249 63.25 81.8811 63.25C79.5436 63.25 77.2061 62.7688 75.2124 61.6C73.3561 60.5688 71.7061 59.1938 69.9186 58.025C69.2999 57.6125 68.7499 57.0625 67.9936 56.9938C66.2749 55.275 64.0749 54.3813 61.7374 54.5875C57.6124 54.8625 54.3124 57.0625 51.6999 60.225C51.4249 60.5688 51.1499 60.9125 50.9436 61.2563C49.7061 63.4563 48.9499 65.8625 48.4686 68.4062C47.0249 76.3813 46.6811 84.4938 47.0936 92.6063C47.2311 95.0813 47.4374 97.4875 48.0561 99.8938C48.3311 100.925 48.9499 101.681 49.9124 102.163C50.3249 102.369 50.6686 102.231 51.0124 101.956C51.3561 101.681 51.1499 101.406 51.0124 101.131C50.5311 100.031 50.2561 98.8625 50.0499 97.6938C49.4999 93.4313 50.1186 89.5813 53.5561 86.5563C53.9686 86.2125 54.3811 85.8688 54.6561 85.4563C55.7561 84.0125 56.8561 82.6375 57.1311 80.7812C57.4749 80.2313 57.3374 79.6125 57.4749 79.0625C57.6811 78.375 57.4749 77.8938 56.7874 77.55C56.0311 76.7938 55.2061 76.0375 54.5874 75.075ZM104.637 47.1625C104.5 46.6125 104.362 45.9938 104.225 45.4438C103.262 41.3875 103.194 37.1938 102.369 33.1375C101.544 29.2875 100.169 25.7125 97.2811 22.9625C94.8749 20.5563 91.7811 19.3188 88.4811 18.5625C84.5624 17.6688 80.5061 17.7375 76.5186 18.15C75.7624 18.2188 75.2124 18.0125 74.7311 17.3938C72.4624 14.575 69.8499 12.0313 67.1686 9.69376C64.2124 7.15001 61.0499 4.74376 57.6811 2.75001C57.1999 2.47501 56.9249 2.47501 56.5811 2.95626C55.8249 4.05626 55.2061 5.22501 54.5874 6.39376C51.8374 11.3438 49.7749 16.4313 49.0874 22.0688C48.6061 26.4 49.0874 30.5938 51.5624 34.3063C53.2124 36.9188 55.4124 39.05 58.1624 40.4938C59.0561 40.975 59.8811 41.525 60.3624 42.4188C61.6686 44.7563 62.4936 47.2313 61.8061 49.9813C61.5999 50.5312 61.3249 51.0813 61.1186 51.6313C60.9124 52.0438 60.9124 52.3188 61.5311 52.3875C64.3499 52.7313 66.8249 53.8313 69.2999 55.1375C70.8124 55.9625 71.9811 57.1313 73.3561 58.0938C77.5499 61.1188 82.1561 62.0125 87.1061 60.4313C89.9936 59.5375 92.6061 58.1625 95.1499 56.5125C98.5874 54.175 102.437 52.5938 106.425 51.15C105.6 49.8438 104.981 48.5375 104.637 47.1625ZM85.3186 79.4062C83.6686 81.5375 81.7436 83.1188 79.4061 84.15C78.6499 84.4938 78.4436 84.975 78.4436 85.6625C78.2374 91.7812 78.9936 97.8313 80.7124 103.675C81.1249 105.119 81.7436 106.494 82.7749 107.663C83.3249 108.281 83.5311 108.213 84.0124 107.594C84.4249 106.975 84.1499 106.494 83.8749 105.944C82.4999 103.675 81.8124 101.269 82.1561 98.5875C82.6374 94.4625 83.5311 90.3375 84.2186 86.2125C84.4936 84.0125 84.9061 81.675 85.3186 79.4062Z" fill="#43484F"/>
</g>
</g>
<defs>
<filter id="filter0_d_0_1" x="-76" y="-50" width="262" height="222" filterUnits="userSpaceOnUse" color-interpolation-filters="sRGB">
<feFlood flood-opacity="0" result="BackgroundImageFix"/>
<feColorMatrix in="SourceAlpha" type="matrix" values="0 0 0 0 0 0 0 0 0 0 0 0 0 0 0 0 0 0 127 0" result="hardAlpha"/>
<feOffset dy="4"/>
<feGaussianBlur stdDeviation="5.5"/>
<feComposite in2="hardAlpha" operator="out"/>
<feColorMatrix type="matrix" values="0 0 0 0 0 0 0 0 0 0 0 0 0 0 0 0 0 0 0.2 0"/>
<feBlend mode="normal" in2="BackgroundImageFix" result="effect1_dropShadow_0_1"/>
<feBlend mode="normal" in="SourceGraphic" in2="effect1_dropShadow_0_1" result="shape"/>
</filter>
<clipPath id="clip0_0_1">
<rect width="110" height="110" fill="white"/>
</clipPath>
</defs>
</svg>
