<svg width="109" height="110" viewBox="0 0 109 110" fill="none" xmlns="http://www.w3.org/2000/svg">
<path d="M60.1877 50.6686C60.944 47.8499 60.119 45.2374 58.6752 42.8311C58.194 41.9374 57.3002 41.3186 56.4065 40.8374C53.5877 39.3249 51.319 37.1249 49.6002 34.4436C47.1252 30.5936 46.5752 26.2624 47.0565 21.7936C47.744 15.9499 49.8752 10.6561 52.7627 5.56862C53.3815 4.33112 54.1377 3.16237 54.8252 1.99362C55.169 1.51237 55.444 1.51237 55.994 1.78737C59.5002 3.84987 62.7315 6.32487 65.8252 8.93737C68.644 11.3436 71.3252 13.9561 73.6627 16.9124C74.144 17.5311 74.694 17.7374 75.519 17.6686C79.644 17.2561 83.8377 17.1874 87.894 18.0811C91.2627 18.8374 94.4252 20.2124 96.969 22.6186C99.9252 25.5061 101.369 29.1499 102.194 33.1374C103.019 37.3311 103.088 41.6624 104.119 45.8561C104.256 46.4061 104.394 47.0936 104.531 47.6436C104.325 47.7124 104.119 47.7811 103.981 47.8499C102.331 48.8811 99.3752 48.7436 97.7252 47.7124C95.3877 46.1999 92.9127 45.4436 90.094 46.5436C88.719 47.0936 87.344 47.5749 85.969 48.1249C83.9065 48.8811 81.7065 48.8124 79.5065 48.6749C78.1315 48.6061 76.7565 48.4686 75.5877 47.9186C73.1127 46.7499 70.6377 46.4749 67.9565 46.7499C66.719 46.8874 65.5502 47.2311 64.3815 47.9186C62.9377 49.0186 61.6315 49.9811 60.1877 50.6686Z" fill="#F77143"/>
<path d="M59.9811 49.7751C61.4249 49.0876 62.7311 48.0563 64.1749 47.3001C65.3436 46.6813 66.5124 46.3376 67.7499 46.1313C70.3624 45.8563 72.9061 46.1313 75.3811 47.3001C76.6186 47.8501 77.9249 47.9188 79.2999 48.0563C81.4999 48.1938 83.6999 48.2626 85.7624 47.5063C87.1374 47.0251 88.5124 46.5438 89.8874 45.9251C92.6374 44.6876 95.1124 45.5126 97.5186 47.0938C99.1686 48.1251 102.194 48.2626 103.775 47.2313C103.912 47.0938 104.187 47.0938 104.325 47.0251C104.737 48.4688 105.287 49.7751 106.044 51.0813C101.919 52.5251 97.9311 54.1751 94.4249 56.6501C91.8124 58.4376 89.1311 59.7438 86.1061 60.7063C81.0186 62.3563 76.2061 61.3938 71.8749 58.3001C70.4311 57.3376 69.2624 56.0313 67.6811 55.2751C65.1374 53.9001 62.5249 52.8001 59.6374 52.4563C59.0186 52.3876 59.0874 52.1126 59.2249 51.7001C59.4999 50.9438 59.7061 50.3938 59.9811 49.7751Z" fill="#FBD8B5"/>
<path d="M57.0249 80.575C56.8187 82.5 55.5812 83.875 54.4812 85.3875C54.1374 85.8 53.7249 86.1438 53.3812 86.4875C49.9437 89.5813 49.2562 93.6375 49.8062 97.9688C49.9437 99.1375 50.2874 100.375 50.7687 101.475C50.9062 101.75 50.4249 102.025 50.0812 102.3C49.7374 102.575 49.4624 103.812 49.0499 103.606C48.0874 103.125 46.7124 101.337 46.4374 100.306C45.8187 97.8312 45.5437 95.2875 45.4749 92.8125C45.1312 84.4937 45.4062 75.9688 46.9187 67.7188C47.3999 65.1063 48.2249 62.7 49.4624 60.3625C49.6687 60.0188 49.9437 59.675 50.2187 59.3313C52.8999 56.1 56.9562 53.9 61.2187 53.625C63.6249 53.4188 65.8249 54.3812 67.6812 56.1C67.6812 56.2375 67.6812 56.3062 67.7499 56.4437C70.7062 63.5937 72.0124 71.0188 72.5624 78.5813C71.8749 79.2 71.9437 80.1625 71.6687 80.9875C70.2249 85.4563 69.2624 89.9937 69.0562 94.6687C68.8499 98.5187 69.3312 102.231 70.5687 105.875C71.3249 108.213 71.2562 108.35 68.7124 108.144C68.3687 108.144 68.0249 108.075 67.6812 108.006C66.7874 107.869 65.5499 107.319 65.5499 106.288C65.5499 103.263 65.5499 100.169 65.2749 97.1438C64.9999 93.8438 64.1062 90.6125 63.4187 87.3812C62.6624 83.1187 62.2499 78.7875 62.2499 74.4563L61.6999 77.8938L57.9187 77.6875L57.0249 80.575Z" fill="#F77143"/>
<path d="M36.6062 95.0812C33.3749 94.9437 30.3499 94.0499 27.6687 92.3312C26.5687 91.6437 25.4687 90.0624 25.0562 88.6874C25.6062 88.7562 26.0187 88.3437 26.5687 88.0687C30.1437 86.0062 32.6874 82.9124 35.1624 79.7499C37.5687 76.7249 39.9062 73.6311 42.3812 70.6061C43.4124 69.2311 44.5124 67.9937 45.5436 66.6874C45.9561 66.2062 46.3686 65.7249 46.9186 65.2437C45.6124 71.7062 45.3374 78.3062 42.9312 84.4249C41.6937 87.4499 40.3187 90.5437 37.9812 92.8812C37.4312 93.4999 37.1562 94.7374 36.6062 95.0812Z" fill="#D64D2D"/>
<path d="M23.4061 80.6438C25.3311 78.9938 27.3249 77.4813 28.9061 75.5563C30.3499 73.7 31.7249 71.8438 32.9624 69.7813C34.6811 66.6875 36.6061 63.7313 39.0811 61.1875C41.2811 58.9188 43.7561 57.2688 46.5061 55.7563C49.0499 54.3813 52.4186 54.6563 55.5124 54.5188C51.1811 57.5438 48.2249 60.775 47.0561 65.45C46.5061 65.7938 46.1624 66.275 45.6811 66.8938C44.5811 68.2 43.5499 69.4375 42.4499 70.8125C40.0436 73.9063 37.6374 76.9313 35.1624 80.025C32.6874 83.1875 30.0749 86.2813 26.5686 88.3438C26.0874 88.6188 25.7436 88.9625 25.0561 88.9625C24.6436 88.55 24.4374 88.0688 24.2311 87.45C23.2686 85.1813 23.3374 82.9125 23.4061 80.6438Z" fill="#E05934"/>
<path d="M84.5935 78.2375C84.181 80.7813 84.6623 84.2875 84.2498 86.7625C83.4248 91.2313 82.531 94.8063 82.0498 99.3438C81.7748 102.231 82.806 104.569 84.2498 106.975C84.5935 107.525 83.5623 108.075 83.081 108.831C82.6685 109.519 82.3248 109.656 81.7748 108.9C80.6748 107.663 79.9873 106.15 79.5748 104.569C77.7185 98.1751 76.9623 91.7125 77.0998 85.1125C77.0998 84.2875 77.306 83.875 78.131 83.4625C80.6748 82.225 82.7373 80.4375 84.5935 78.2375Z" fill="#E05934"/>
<path d="M93.3249 18.5625C93.3249 18.6312 93.3249 18.7 93.2562 18.9062C90.7124 17.8062 88.0312 17.05 85.2124 16.5687C89.1999 10.5187 93.8061 5.2937 100.337 1.51245C98.7561 9.4187 99.5124 16.9812 100.131 24.8187C99.7187 24.1999 99.4436 23.8562 99.1686 23.5812L93.3249 18.5625Z" fill="#E05934"/>
<path d="M52.3501 20.0749C52.4876 15.9499 53.5188 11.6187 55.5126 7.56242C56.1313 6.32492 56.4064 6.25617 57.6439 6.87492C60.6001 8.31867 63.0751 10.3812 65.1376 12.8562C68.5063 16.9124 68.9876 20.4874 66.4438 24.9562C64.7251 27.9812 62.9376 30.8687 60.7376 33.5499C60.6689 33.6874 60.5313 33.7562 60.4626 33.8937C58.6751 35.8187 58.2626 35.8187 56.6813 33.6874C54.6876 31.0062 53.1751 28.0499 52.6251 24.6812C52.4876 23.3062 52.3501 21.8624 52.3501 20.0749ZM54.2064 19.3874C54.2064 24.8874 55.3063 28.8062 58.0563 32.2437C58.5376 32.8624 58.8126 32.9312 59.3626 32.3124C61.6314 29.9062 63.2126 26.9499 64.8626 24.1312C65.3439 23.3062 65.7563 22.4124 66.0313 21.5187C66.9251 18.4937 65.4813 16.0874 63.6938 13.8874C62.1126 11.8937 59.8438 10.5874 57.7813 9.00617C57.1626 8.52492 56.8876 8.59367 56.6126 9.34992C55.1689 12.9937 54.1376 16.7062 54.2064 19.3874Z" fill="#474C55"/>
<path d="M82.2562 44.2063C80.1937 44.0688 78.0624 43.8626 76.1374 43.0376C73.3187 41.8001 70.5687 40.5626 68.2999 38.5001C67.5437 37.8126 66.8562 36.9876 66.1687 36.2313C65.7562 35.8188 65.6874 35.2688 66.1687 34.8563C66.6499 34.3751 67.1312 34.6501 67.5437 35.0626C69.5374 36.9876 71.5312 38.9126 74.0749 40.0813C76.6874 41.3188 79.4374 42.0751 82.3937 42.2126C83.2187 42.2126 83.6312 42.6251 83.5624 43.3813C83.4937 44.0688 82.9437 44.2063 82.2562 44.2063Z" fill="#43484F"/>
<path d="M99.8562 37.3313C99.7187 38.775 99.0312 39.875 98.0687 40.7688C96.4187 42.2813 94.4937 43.45 92.2937 44C91.675 44.1375 91.0562 44.2063 90.85 43.45C90.6437 42.6938 90.9875 42.2125 91.7437 42.075C92.8437 41.8 93.875 41.4563 94.9062 40.9063C96.35 40.0813 97.725 39.1875 98.0687 37.3313C98.1375 36.7813 98.4812 36.4375 99.1 36.5063C99.5812 36.5063 99.7875 36.85 99.8562 37.3313Z" fill="#43484F"/>
<path d="M93.6688 53.2812C94.8375 53.4187 95.6625 53.0062 96.075 51.9062C96.2813 51.3562 96.7625 50.9437 97.3813 51.2874C98 51.6312 98 52.1812 97.725 52.7312C96.8313 54.6562 94.7688 55.4812 92.5688 54.7937C92.0188 54.5874 91.675 54.5187 91.125 54.9312C90.1625 55.6187 88.925 55.6874 87.7563 55.5499C86.0375 55.2749 84.4563 54.5874 83.0125 53.6937C82.325 53.2812 82.2563 52.7312 82.7375 52.1124C83.2188 51.4937 83.5625 51.8374 84.0438 52.1812C85.5563 53.1437 87.2063 53.9687 89.0625 53.7624C89.4063 53.7624 89.8188 53.7624 89.9563 53.4874C90.1625 53.1437 89.6813 53.0062 89.475 52.7999C88.8563 52.1124 88.375 51.3562 87.9625 50.5999C87.4813 49.6374 87.6875 48.9499 88.65 48.3999C89.475 47.9874 90.4375 47.7124 91.4 47.6437C93.5313 47.5062 94.8375 49.0187 94.425 51.1499C94.3563 51.9062 94.15 52.6624 93.6688 53.2812ZM92.7063 50.7374C92.7063 50.1874 92.7063 49.6374 92.0875 49.5687C91.3313 49.4312 90.4375 49.4312 89.8875 50.0499C89.6125 50.3249 90.3688 50.7374 90.6438 51.1499C90.7813 51.3562 90.9875 51.4937 91.1938 51.6999C91.95 52.4562 92.3625 52.3187 92.6375 51.2874C92.7063 51.0812 92.7063 50.8749 92.7063 50.7374Z" fill="#43484F"/>
<path d="M72.0126 78.5812C71.5313 71.225 70.2251 64.0062 67.2001 57.2C67.1313 57.1312 67.2001 56.9937 67.1313 56.8562C67.8876 56.9937 68.4376 57.475 69.0563 57.8875C70.8438 59.0562 72.4938 60.4312 74.3501 61.4625C76.4126 62.6312 78.6814 63.0437 81.0189 63.1125C83.5626 63.1125 86.0376 62.5625 88.3751 61.6C88.6501 61.4625 88.9251 61.2562 89.2689 61.1187C89.4751 61.6 89.2001 62.0812 89.1314 62.5625C88.0314 67.4437 86.5188 72.1875 83.8376 76.45C82.5313 78.5125 81.0876 80.4375 79.0251 81.7437C76.9626 83.05 74.7626 83.6 72.2876 83.3937C72.6313 82.1562 73.0438 80.9875 73.3188 79.8187C73.5251 78.7875 73.1126 78.4437 72.0126 78.5812Z" fill="#FBD8B5"/>
<path d="M28.0123 91.8501C30.7623 93.6376 33.8561 94.6001 37.0873 94.6688C33.1686 98.1751 28.4936 99.1376 23.3373 98.7251C18.8686 98.3126 14.7436 96.9376 10.8248 94.6688C8.48733 93.2938 6.01233 91.8501 4.01858 89.9251C3.05608 89.0314 2.29983 88.0688 1.47483 87.0376C0.924829 86.4188 0.993579 86.0063 1.88733 85.9376C4.08733 85.8001 6.28733 85.5251 8.48733 85.3876C13.8498 84.9751 18.9373 83.2563 23.6123 80.5063C23.5436 82.7751 23.4748 85.1126 24.5061 87.3126C24.4373 87.3813 26.0186 90.7501 28.0123 91.8501Z" fill="#FBD8B5"/>
<path d="M97.0376 7.70007C97.7251 7.21882 97.7251 7.70007 97.7251 8.18132C98.0001 11.6876 98.2751 15.1938 98.5501 18.7001C98.6188 20.0751 98.6876 21.4501 98.7563 22.8251C97.8626 22.0001 97.0376 21.1063 96.0063 20.3501C95.5251 20.0063 95.5251 19.4563 95.3876 18.9751C94.2876 15.4001 94.7688 12.1001 96.9688 9.07507C97.3126 8.59382 97.3126 8.11257 97.0376 7.70007Z" fill="#FBD8B5"/>
<path d="M54.2065 19.3874C54.2065 16.6374 55.2377 12.9937 56.6815 9.41868C56.9565 8.66243 57.3002 8.59368 57.8502 9.07493C59.844 10.5874 62.1127 11.8937 63.7627 13.9562C65.5502 16.1562 66.994 18.5624 66.1002 21.5874C65.8252 22.4812 65.4127 23.3749 64.9315 24.1999C63.2815 27.0187 61.7002 29.9749 59.4315 32.3812C58.8127 32.9999 58.6065 32.9312 58.1252 32.3124C55.3065 28.8062 54.1377 24.8874 54.2065 19.3874Z" fill="#FBD8B5"/>
<path d="M92.9812 50.9437C92.9812 51.0812 92.9812 51.3562 92.9125 51.4937C92.5687 52.7312 92.0187 52.8 91.1937 51.975C90.9187 51.7 90.7812 51.5625 90.5062 51.2875C90.1625 50.875 89.2687 50.325 89.6125 49.9812C90.3 49.2937 91.2625 49.2937 92.225 49.4312C92.9812 49.6375 92.9812 50.325 92.9812 50.9437Z" fill="#43484F"/>
<path d="M108.106 52.4563C107.625 52.7313 107.075 52.8001 106.525 52.9376C103.362 53.5563 100.406 54.7251 97.6561 56.3751C95.7999 57.5438 93.9436 58.7126 92.0186 59.7438C91.5374 60.0188 91.3999 60.3626 91.3311 60.7751C90.5061 65.3813 89.0624 69.7813 87.2749 74.1126C86.5186 75.9688 86.4499 78.1688 86.0374 80.1626C85.0061 86.0751 83.9749 91.9188 82.9436 97.8313C82.5311 100.306 82.9436 102.575 84.1811 104.706C84.5936 105.463 85.1436 106.219 85.0061 107.181C84.8686 108.625 83.9061 109.725 82.7374 109.931C81.4999 110.138 80.1249 109.244 79.4374 107.8C77.5811 104.225 76.8249 100.306 76.2749 96.3876C75.7249 92.9501 75.5186 89.5126 75.6561 86.0751C75.6561 85.3188 75.4499 85.2501 74.8311 85.3876C74.2124 85.4563 73.5249 85.5938 72.9749 85.4563C71.9436 85.2501 71.6686 85.7313 71.4624 86.6251C70.0874 92.8126 69.7436 99.0001 72.0124 105.119C72.1499 105.531 72.2186 105.944 72.2874 106.356C72.4936 108.419 71.8061 109.244 69.7436 109.313C68.5749 109.313 67.4061 109.244 66.3061 108.9C65.0686 108.556 64.4499 107.731 64.2436 106.494C64.1749 105.944 64.0374 105.463 64.1061 104.913C64.3811 98.9313 63.4874 93.0876 62.1124 87.2438C61.5624 84.7688 61.3561 82.2251 61.1499 79.6813C61.1499 79.4063 61.2874 78.9938 60.8061 78.9251C60.1186 78.8563 59.4311 78.5126 58.7436 78.6501C58.6749 78.6501 58.6061 79.0626 58.6061 79.3376C58.2624 82.2251 57.1624 84.8376 54.9624 86.8313C50.6999 90.6126 50.2874 95.1501 52.0749 100.169C52.6249 101.75 52.3499 102.85 51.1811 103.606C50.0124 104.363 48.6374 103.95 47.3999 102.919C45.6811 101.338 45.4061 99.2751 45.1311 97.2126C44.5811 93.7751 44.4436 90.3376 44.4436 86.9001C44.4436 86.3501 44.4436 85.8688 44.4436 85.1126C43.7561 86.5563 43.2061 87.7251 42.5874 88.9626C40.7999 92.6751 38.2561 95.7688 34.6124 97.9001C29.5249 100.925 24.2311 100.788 18.8686 99.4126C14.8124 98.3813 11.0311 96.5251 7.52488 94.1876C5.87488 93.0876 4.43113 91.7126 2.84988 90.4751C1.81863 89.5813 1.06238 88.4813 0.443627 87.3126C-0.381373 85.8001 0.374878 84.4251 2.02488 84.1501C4.91238 83.6001 7.86863 83.6688 10.7561 83.3251C14.1249 82.9126 17.4249 82.2251 20.3811 80.5751C24.6436 78.1001 27.9436 74.7313 30.4874 70.4688C32.2749 67.5126 33.9249 64.5563 36.1936 61.9438C37.8436 60.0876 39.6999 58.5063 41.6936 57.0626C46.1624 53.7626 51.1124 52.8001 56.4749 53.4876C56.9561 53.5563 57.0936 53.5563 57.2311 53.0063C57.3686 52.3876 57.7811 51.8376 58.1249 51.2876C60.1186 47.9876 59.1561 45.1688 57.0936 42.6251C56.6811 42.1438 55.9936 41.9376 55.3749 41.5938C48.3624 37.2626 45.5436 30.8688 46.0936 22.8251C46.5061 16.8438 48.6374 11.4126 51.4561 6.18757C52.4874 4.26257 53.7936 2.47507 54.8936 0.550066C55.3061 -0.137434 56.0624 -0.206184 56.8186 0.481316C57.5061 1.10007 58.3311 1.58132 59.1561 2.06257C62.6624 4.19382 65.8936 6.80632 68.9186 9.55632C70.9811 11.4813 73.1124 13.3376 74.7624 15.6751C75.1061 16.0876 75.4499 16.2938 75.9999 16.2251C78.4061 16.0876 80.7436 15.8813 83.1499 16.1563C83.6311 16.2251 83.9061 16.0876 84.1811 15.6751C86.4499 11.9626 89.2686 8.73132 92.3624 5.70632C94.4936 3.57507 96.9686 1.99382 99.5811 0.618816C100.681 0.0688162 101.919 1.10007 101.781 2.40632C101.644 3.64382 101.3 4.88132 101.162 6.11882C100.75 10.1063 100.956 14.0938 101.094 18.0126C101.3 24.2688 102.812 30.3188 103.844 36.4376C104.394 39.7376 104.531 43.1063 105.425 46.3376C105.769 47.5063 106.112 48.6751 106.731 49.7751C107.075 50.3251 107.419 51.0126 108.175 51.2188C108.106 51.6313 108.106 52.0438 108.106 52.4563ZM97.0374 7.70007C97.3124 8.18132 97.3124 8.59382 96.9686 9.07507C94.7686 12.1001 94.2874 15.4001 95.3874 18.9751C95.5249 19.4563 95.5249 20.0063 96.0061 20.3501C97.0374 21.0376 97.8624 21.9313 98.7561 22.8251C98.9624 23.1688 99.2374 23.4438 99.6499 23.9938C99.0999 16.7063 98.4124 9.69382 99.8561 2.40632C93.8061 5.91257 89.5436 10.7251 85.8311 16.3626C88.4436 16.7751 90.9186 17.3938 93.2561 18.4938C93.2561 18.2876 93.3249 18.2188 93.3249 18.1501C93.3249 17.8751 93.2561 17.6688 93.1874 17.3938C92.7749 14.0251 93.3249 10.9313 95.4561 8.11257C95.8686 7.49382 96.3499 7.28757 97.0374 7.70007ZM36.2624 94.3938C36.8124 94.0501 37.0874 93.4313 37.4999 93.0188C39.8374 90.7501 41.2124 87.7938 42.3124 84.8376C44.6499 78.8563 44.9249 72.4626 46.1624 66.2063C47.2624 61.6688 49.4624 57.8188 53.6561 55.0001C50.6311 55.2063 48.0874 55.5501 45.6124 56.8563C42.9999 58.3001 40.5249 59.8813 38.4624 62.0813C36.0561 64.5563 34.2686 67.4438 32.5499 70.4001C31.4499 72.3938 30.0749 74.1813 28.6311 75.9688C27.1186 77.8938 25.1936 79.3376 23.3374 80.8501C18.8686 83.5313 14.1249 85.1126 8.89988 85.4563C6.76863 85.5938 4.70613 85.8688 2.57488 86.0063C1.68113 86.0751 1.61238 86.4188 2.16238 87.0376C2.98738 87.9313 3.74363 88.9626 4.56863 89.7876C6.49363 91.6438 8.83113 93.0188 11.0999 94.3251C14.7436 96.4563 18.7999 97.7626 23.0624 98.1751C28.0124 98.7251 32.4811 97.7626 36.2624 94.3938ZM53.5874 75.0751C53.2436 74.5938 52.9686 74.1813 52.6249 73.7001C52.3499 73.2188 52.4874 72.8063 52.8999 72.5313C53.3811 72.1876 53.7936 72.3938 54.0686 72.7376C54.2061 72.9438 54.3436 73.1501 54.4811 73.3563C55.9249 75.0751 57.4374 76.7251 59.8436 77.0001C60.5311 77.4126 60.8061 77.2063 60.7374 76.3813C60.6686 75.6251 60.7374 74.9376 60.6686 74.1813C60.6686 73.5626 60.8749 73.0813 61.5624 72.9438C62.5249 73.0813 62.5249 73.7688 62.5249 74.5251C62.5249 78.7876 62.9374 82.9813 63.6936 87.1063C64.2436 90.2688 65.1374 93.3626 65.4811 96.5938C65.7561 99.5501 65.7561 102.506 65.7561 105.463C65.7561 106.494 66.1686 106.975 67.1311 107.113C67.4749 107.181 67.8186 107.25 68.1624 107.25C70.6374 107.456 70.7061 107.319 69.9499 105.05C68.7811 101.544 68.2999 97.9001 68.5061 94.1876C68.7811 89.6501 69.6749 85.2501 71.0499 80.9188C71.3249 80.1626 71.2561 79.2001 71.9436 78.5813C73.1124 78.4438 73.4561 78.7876 73.1811 79.9563C72.9061 81.1251 72.4936 82.2938 72.1499 83.5313C74.6249 83.7376 76.8936 83.1188 78.8874 81.8813C80.9499 80.5751 82.4624 78.5813 83.6999 76.5876C86.3811 72.3251 87.8936 67.5813 88.9936 62.7001C89.1311 62.2188 89.3374 61.8063 89.1311 61.2563C88.8561 61.3938 88.5811 61.6001 88.2374 61.7376C85.8999 62.7001 83.4249 63.2501 80.8811 63.2501C78.5436 63.2501 76.2061 62.7688 74.2124 61.6001C72.3561 60.5688 70.7061 59.1938 68.9186 58.0251C68.2999 57.6126 67.7499 57.0626 66.9936 56.9938C65.2749 55.2751 63.0749 54.3813 60.7374 54.5876C56.6124 54.8626 53.3124 57.0626 50.6999 60.2251C50.4249 60.5688 50.1499 60.9126 49.9436 61.2563C48.7061 63.4563 47.9499 65.8626 47.4686 68.4063C46.0249 76.3813 45.6811 84.4938 46.0936 92.6063C46.2311 95.0813 46.4374 97.4876 47.0561 99.8938C47.3311 100.925 47.9499 101.681 48.9124 102.163C49.3249 102.369 49.6686 102.231 50.0124 101.956C50.3561 101.681 50.1499 101.406 50.0124 101.131C49.5311 100.031 49.2561 98.8626 49.0499 97.6938C48.4999 93.4313 49.1186 89.5813 52.5561 86.5563C52.9686 86.2126 53.3811 85.8688 53.6561 85.4563C54.7561 84.0126 55.8561 82.6376 56.1311 80.7813C56.4749 80.2313 56.3374 79.6126 56.4749 79.0626C56.6811 78.3751 56.4749 77.8938 55.7874 77.5501C55.0311 76.7938 54.2061 76.0376 53.5874 75.0751ZM103.637 47.1626C103.5 46.6126 103.362 45.9938 103.225 45.4438C102.262 41.3876 102.194 37.1938 101.369 33.1376C100.544 29.2876 99.1686 25.7126 96.2811 22.9626C93.8749 20.5563 90.7811 19.3188 87.4811 18.5626C83.5624 17.6688 79.5061 17.7376 75.5186 18.1501C74.7624 18.2188 74.2124 18.0126 73.7311 17.3938C71.4624 14.5751 68.8499 12.0313 66.1686 9.69382C63.2124 7.15007 60.0499 4.74382 56.6811 2.75007C56.1999 2.47507 55.9249 2.47507 55.5811 2.95632C54.8249 4.05632 54.2061 5.22507 53.5874 6.39382C50.8374 11.3438 48.7749 16.4313 48.0874 22.0688C47.6061 26.4001 48.0874 30.5938 50.5624 34.3063C52.2124 36.9188 54.4124 39.0501 57.1624 40.4938C58.0561 40.9751 58.8811 41.5251 59.3624 42.4188C60.6686 44.7563 61.4936 47.2313 60.8061 49.9813C60.5999 50.5313 60.3249 51.0813 60.1186 51.6313C59.9124 52.0438 59.9124 52.3188 60.5311 52.3876C63.3499 52.7313 65.8249 53.8313 68.2999 55.1376C69.8124 55.9626 70.9811 57.1313 72.3561 58.0938C76.5499 61.1188 81.1561 62.0126 86.1061 60.4313C88.9936 59.5376 91.6061 58.1626 94.1499 56.5126C97.5874 54.1751 101.437 52.5938 105.425 51.1501C104.6 49.8438 103.981 48.5376 103.637 47.1626ZM84.3186 79.4063C82.6686 81.5376 80.7436 83.1188 78.4061 84.1501C77.6499 84.4938 77.4436 84.9751 77.4436 85.6626C77.2374 91.7813 77.9936 97.8313 79.7124 103.675C80.1249 105.119 80.7436 106.494 81.7749 107.663C82.3249 108.281 82.5311 108.213 83.0124 107.594C83.4249 106.975 83.1499 106.494 82.8749 105.944C81.4999 103.675 80.8124 101.269 81.1561 98.5876C81.6374 94.4626 82.5311 90.3376 83.2186 86.2126C83.4936 84.0126 83.9061 81.6751 84.3186 79.4063Z" fill="#43484F"/>
</svg>
